<svg width="145" height="145" viewBox="0 0 145 145" fill="none" xmlns="http://www.w3.org/2000/svg">
<path d="M57.7 78.1L67.9 88.3M57.7 78.1L45.8 93.4V96.8L39 105.3L40.7 107L49.2 100.2H52.6L67.9 88.3M57.7 78.1L62.8 73L64.5 71.3C65.0667 71.8667 66.54 72.66 67.9 71.3C69.26 69.94 68.4667 68.4667 67.9 67.9L69.4634 66.3366L73 62.8M67.9 88.3L73 83.2L74.7 81.5C74.1333 80.9333 73.34 79.46 74.7 78.1C76.06 76.74 77.5333 77.5333 78.1 78.1L79.8 76.4L83.2 73M73 62.8L83.2 73M73 62.8L93.4 42.4M83.2 73L103.6 52.6M93.4 42.4L103.6 52.6M93.4 42.4H98.5H100.2L103.6 39L107 42.4L103.6 45.8V52.6" stroke="#FF5527" stroke-width="5"/>
</svg>
