<svg width="145" height="145" viewBox="0 0 145 145" fill="none" xmlns="http://www.w3.org/2000/svg">
<path d="M107.5 65.333C107.5 92.1663 73 115.166 73 115.166C73 115.166 38.5 92.1663 38.5 65.333C38.5 56.183 42.1348 47.4078 48.6048 40.9378C55.0748 34.4678 63.85 30.833 73 30.833C82.15 30.833 90.9252 34.4678 97.3952 40.9378C103.865 47.4078 107.5 56.183 107.5 65.333Z" stroke="#F3F0DD" stroke-width="6" stroke-linecap="round" stroke-linejoin="round"/>
<path d="M73 76.833C79.3513 76.833 84.5 71.6843 84.5 65.333C84.5 58.9817 79.3513 53.833 73 53.833C66.6487 53.833 61.5 58.9817 61.5 65.333C61.5 71.6843 66.6487 76.833 73 76.833Z" stroke="#F3F0DD" stroke-width="6" stroke-linecap="round" stroke-linejoin="round"/>
</svg>
