<svg width="145" height="145" viewBox="0 0 145 145" fill="none" xmlns="http://www.w3.org/2000/svg">
<path d="M115.167 99.8333C115.167 101.867 114.359 103.817 112.921 105.254C111.483 106.692 109.533 107.5 107.5 107.5H38.4999C36.4666 107.5 34.5165 106.692 33.0788 105.254C31.641 103.817 30.8333 101.867 30.8333 99.8333V57.6667C30.8333 55.6333 31.641 53.6833 33.0788 52.2455C34.5165 50.8077 36.4666 50 38.4999 50H53.8333L61.4999 38.5H84.4999L92.1666 50H107.5C109.533 50 111.483 50.8077 112.921 52.2455C114.359 53.6833 115.167 55.6333 115.167 57.6667V99.8333Z" stroke="black" stroke-width="6" stroke-linecap="round" stroke-linejoin="round"/>
<path d="M73.0001 92.1667C81.4684 92.1667 88.3334 85.3017 88.3334 76.8333C88.3334 68.365 81.4684 61.5 73.0001 61.5C64.5317 61.5 57.6667 68.365 57.6667 76.8333C57.6667 85.3017 64.5317 92.1667 73.0001 92.1667Z" stroke="black" stroke-width="6" stroke-linecap="round" stroke-linejoin="round"/>
</svg>
