<svg width="145" height="145" viewBox="0 0 145 145" fill="none" xmlns="http://www.w3.org/2000/svg">
<path d="M99.8333 38.5H46.1667C41.9325 38.5 38.5 41.9325 38.5 46.1667V99.8333C38.5 104.068 41.9325 107.5 46.1667 107.5H99.8333C104.068 107.5 107.5 104.068 107.5 99.8333V46.1667C107.5 41.9325 104.068 38.5 99.8333 38.5Z" stroke="black" stroke-width="6" stroke-linecap="round" stroke-linejoin="round"/>
<path d="M59.5833 65.3333C62.7589 65.3333 65.3333 62.7589 65.3333 59.5833C65.3333 56.4076 62.7589 53.8333 59.5833 53.8333C56.4076 53.8333 53.8333 56.4076 53.8333 59.5833C53.8333 62.7589 56.4076 65.3333 59.5833 65.3333Z" stroke="black" stroke-width="6" stroke-linecap="round" stroke-linejoin="round"/>
<path d="M107.5 84.4999L88.3334 65.3333L46.1667 107.5" stroke="black" stroke-width="6" stroke-linecap="round" stroke-linejoin="round"/>
</svg>
