<?xml version="1.0" encoding="UTF-8"?>
<svg xmlns="http://www.w3.org/2000/svg" version="1.1" viewBox="0 0 609 609">
  <defs>
    <style>
      .cls-1 {
        fill: #f3f0dd;
      }
    </style>
  </defs>
  <!-- Generator: Adobe Illustrator 28.7.1, SVG Export Plug-In . SVG Version: 1.2.0 Build 142)  -->
  <g>
    <g id="Laag_1">
      <path class="cls-1" d="M329.6,215.9l-4.3,8.4c0,2.4,1.9,4.3,4.3,4.3s4.3-1.9,4.3-4.3l-4.3-8.4Z"/>
      <g>
        <path class="cls-1" d="M43.3,381.2v-139.8h21.8v139.8h-21.8Z"/>
        <path class="cls-1" d="M80.4,381.2v-139.8h32.6l9.6,44.5,10.3,76.1h4.4l-4.1-63.8-1.7-56.8h21.1v139.8h-34l-10-47.1-8-73.6h-4.6l3.7,67.5,1.8,53.2h-21.1Z"/>
        <path class="cls-1" d="M168,381.2v-139.8h23.3l-.3,33.6-3.8,32.7h4.2l9.2-33.6,11.7-32.7h23.9l-22.5,59,23.9,80.8h-22.2l-16.2-56.4-8.8,20.4v36h-22.4Z"/>
        <path class="cls-1" d="M277.3,382.7c-11.4,0-19.5-2.4-24.4-7.3-4.9-4.9-7.5-12.9-8-24.2-.1-2.4-.2-4.9-.2-7.3s0-4.9.1-7.3c0-2.4.3-4.9.6-7.3h20.5c-.2,4.5-.4,9-.4,13.4,0,4.5.1,8.6.4,12.5.3,3.1,1.3,5.5,3.1,7.2,1.8,1.6,4.5,2.4,8.1,2.4s6.2-.8,7.9-2.4,2.6-4,2.9-7.2c.2-2.3.4-4.6.5-6.7,0-2.2,0-4.3,0-6.5,0-2.2-.2-4.5-.5-7-.2-3-.9-5.6-2.1-7.9-1.3-2.3-3.3-3.8-6.2-4.5l-12.8-3.3c-5.6-1.4-10-3.5-13.2-6.2-3.2-2.8-5.5-6.2-6.9-10.4-1.4-4.1-2.2-9.1-2.4-14.8,0-2.9,0-5.7,0-8.4,0-2.8,0-5.5,0-8.3.3-7.5,1.6-13.5,3.8-18.1,2.2-4.6,5.6-8,10.4-10,4.7-2.1,11-3.1,18.7-3.1,11.1,0,19.1,2.4,24,7.3,4.9,4.8,7.6,12.8,8.1,24,.1,2.7.1,6.1,0,10,0,3.9-.2,7.8-.3,11.5h-21c.2-4.2.3-8.4.3-12.7,0-4.3,0-8.5-.2-12.7,0-3.2-1-5.6-2.9-7.2-1.9-1.6-4.6-2.4-8-2.4s-6.3.8-8,2.4c-1.7,1.6-2.7,4-3,7.2-.3,3.4-.4,6.8-.4,10.3s.1,6.9.4,10.3c.2,3.2,1,5.9,2.3,8,1.3,2.1,3.5,3.6,6.6,4.3l11.2,2.7c6,1.4,10.7,3.5,14,6.4,3.4,2.9,5.7,6.4,7.2,10.7,1.4,4.3,2.2,9.3,2.4,15,0,2,.1,3.9.1,5.7,0,1.8,0,3.6,0,5.3,0,1.7-.1,3.5-.2,5.4-.5,11.2-3.1,19.3-8,24.2-4.9,4.9-13.1,7.3-24.5,7.3Z"/>
        <path class="cls-1" d="M322.7,381.2v-139.8h30.1c11.5,0,19.9,2.4,25,7.1,5.1,4.7,7.8,12.6,8.2,23.5.2,5.8.3,11.1.3,15.9s-.1,9.9-.3,15.2c-.3,11-3.1,18.8-8.2,23.6-5.1,4.7-13.5,7.1-25,7.1h-8.1v47.5h-21.8ZM344.5,314.4h8.1c3.8,0,6.6-.9,8.4-2.6,1.8-1.7,2.8-4.3,3-7.6.2-3.4.3-7,.3-10.9,0-3.9,0-7.7,0-11.6,0-3.8-.2-7.5-.3-10.9-.2-3.3-1.2-5.9-3-7.6-1.8-1.7-4.6-2.6-8.4-2.6h-8.2v53.8Z"/>
        <path class="cls-1" d="M397.8,381.2v-139.8h21.8v139.8h-21.8Z"/>
        <path class="cls-1" d="M435,381.2v-139.8h30.1c11.5,0,19.9,2.4,25,7.1,5.1,4.7,7.8,12.6,8.2,23.5.2,3.9.3,7.4.3,10.5,0,3.1,0,6.1,0,9.2,0,3-.1,6.3-.3,9.9-.2,7-1.3,12.7-3.5,17.1-2.2,4.4-5.5,7.7-10,9.8l15.7,52.8h-23.2l-13.2-49h-7.3v49h-21.8ZM456.8,312.8h8.1c3.8,0,6.6-.9,8.4-2.6,1.8-1.7,2.8-4.3,3-7.6.2-3.4.3-6.9.3-10.5,0-3.6,0-7.2,0-10.8,0-3.6-.2-7.1-.3-10.5-.2-3.3-1.2-5.9-3-7.6-1.8-1.7-4.6-2.6-8.4-2.6h-8.2v52.3Z"/>
        <path class="cls-1" d="M511.5,381.2v-139.8h54.3v19.2h-32.4v40.1h30.7v19.2h-30.7v42h32.4v19.2h-54.3Z"/>
      </g>
      <path class="cls-1" d="M329.7,203.4l-54.3-7.3h0c-2.8-6.5-9.3-11-16.8-11h-120c-.5,0-.7.5-.4.9,2.2,2.3,2.3,7,1.3,10.1-1.1,3.5-3.4,6.6-4.6,10-.7,1.9-1,3.9-1.1,5.9,0,5.4,4.3,9.8,9.8,9.8h115.1c7.5,0,14-4.6,16.8-11.1h0s54.3-7.3,54.3-7.3ZM152,209.5c-1,0-1.9-.8-1.9-1.9s.8-1.9,1.9-1.9,1.9.8,1.9,1.9-.8,1.9-1.9,1.9ZM161.1,208.8c-2.3,0-4.1-1.8-4.1-4.1s1.8-4.1,4.1-4.1,4.1,1.8,4.1,4.1-1.8,4.1-4.1,4.1Z"/>
      <path class="cls-1" d="M96.7,184.9h-44v-4.1c0-2.5-2-4.5-4.5-4.5s-4.5,2-4.5,4.5v45.1c0,2.5,2,4.5,4.5,4.5s4.5-2,4.5-4.5v-4.1h44v-37Z"/>
    </g>
  </g>
</svg>