<?xml version="1.0" encoding="UTF-8"?>
<svg xmlns="http://www.w3.org/2000/svg" version="1.1" viewBox="0 0 538 219">
  <defs>
    <style>
      .cls-1 {
        fill: none;
      }

      .cls-2 {
        fill: #f3f0dd;
      }

      .cls-3 {
        fill: #f7ffe9;
      }

      .cls-4 {
        fill: #ff5527;
      }
    </style>
  </defs>
  <!-- Generator: Adobe Illustrator 28.7.1, SVG Export Plug-In . SVG Version: 1.2.0 Build 142)  -->
  <g>
    <g id="Laag_1">
      <rect x="-4484.3" y="-172" width="614" height="609"/>
      <rect x="-3855.3" y="-172" width="609" height="609"/>
      <rect x="-3226.3" y="-172" width="609" height="609"/>
      <rect x="-2596.3" y="-172" width="609" height="609"/>
      <g>
        <path class="cls-2" d="M-4431.9,187.4v-111h17.4v111h-17.4Z"/>
        <path class="cls-2" d="M-4402.4,187.4v-111h25.9l7.6,35.3,8.2,60.4h3.5l-3.3-50.7-1.3-45.1h16.8v111h-27l-7.9-37.4-6.4-58.4h-3.7l2.9,53.6,1.5,42.3h-16.8Z"/>
        <path class="cls-2" d="M-4332.8,187.4v-111h18.5l-.3,26.7-3,26h3.3l7.3-26.7,9.3-26h18.9l-17.9,46.8,19,64.2h-17.6l-12.8-44.8-7,16.2v28.6h-17.8Z"/>
        <path class="cls-2" d="M-4240.2,187.4v-111h28.5l8.4,43.1,2.6,52.5h3.3l2.5-52.5,8.5-43.1h28.4v111h-17.4v-33.6l3.3-62.2h-3.5l-6.3,63.2-7.5,32.4h-19.4l-7.4-32.4-6.5-63.2h-3.4l3.1,62.2v33.6h-17.4Z"/>
        <path class="cls-2" d="M-4150.1,187.4l14.4-111h28.1l14.3,111h-17.8l-2.5-25.9h-16.2l-2.5,25.9h-17.8ZM-4128.2,146.2h12.9l-2.4-24.5-2.1-30.1h-3.9l-2.1,30.1-2.4,24.4Z"/>
        <path class="cls-2" d="M-4079.6,187.4v-95.8h-16.8v-15.3h50.8v15.3h-16.7v95.8h-17.3Z"/>
        <path class="cls-2" d="M-4014.7,188.8c-9.2,0-15.8-1.9-19.7-5.8-3.9-3.9-6-10.3-6.2-19.2,0-4.7-.2-9.8-.2-15.2,0-5.4,0-11,0-16.7s0-11.3,0-16.7c0-5.5,0-10.5.2-15.3,0-7.7,2.2-13.8,6.2-18.2,4.1-4.4,10.6-6.6,19.6-6.6s15.3,1.9,19.3,5.8c4,3.8,6.1,10.2,6.3,19.2,0,1.6,0,3.4,0,5.4s0,4.1,0,6.1c0,2,0,3.8-.1,5.4h-17.3c0-1.8,0-4,.1-6.4,0-2.4,0-4.8,0-7.3,0-2.4,0-4.6,0-6.5,0-2.5-.8-4.4-2.2-5.7-1.4-1.3-3.5-1.9-6.2-1.9s-4.8.6-6.2,1.9c-1.4,1.3-2.2,3.2-2.3,5.7-.1,5.5-.2,11.2-.3,17.1,0,5.9-.1,11.9-.1,17.9s0,12,.1,17.9c0,5.9.2,11.6.3,17,0,2.6.9,4.5,2.3,5.8,1.5,1.3,3.6,1.9,6.3,1.9s5.1-.6,6.6-1.9c1.5-1.3,2.3-3.2,2.3-5.8,0-1.9,0-4.1.1-6.6,0-2.5,0-4.9,0-7.4,0-2.5,0-4.6-.1-6.6h17.2c.1,2.7.2,5.6.2,8.7s0,6-.1,8.8c-.2,8.9-2.4,15.3-6.4,19.2-4,3.9-10.6,5.8-19.7,5.8Z"/>
        <path class="cls-2" d="M-3977.9,187.4v-111h17.4v47.1h15.5v-47.1h17.4v111h-17.4v-48.7h-15.5v48.7h-17.4Z"/>
      </g>
      <path class="cls-2" d="M-4388.8,22c-3.6,0-6.6,2.9-6.6,6.6v1.9h-21.2c-8.3,0-14.9,6.7-14.9,14.9s6.7,14.9,14.9,14.9h21.2v2.3c0,3.6,2.9,6.6,6.6,6.6s6.6-2.9,6.6-6.6V28.6c0-3.6-2.9-6.6-6.6-6.6Z"/>
      <path class="cls-2" d="M-4353.8,31.1c-.3-.3,0-.7.3-.7h97.7c6.1,0,11.4,3.7,13.7,9,.5-.1,1-.1,1.6-.1,3.1.2,5.7,2.8,5.8,5.9,0,3.4-2.7,6.2-6.1,6.2s-.8,0-1.2-.1c-2.3,5.3-7.6,9-13.7,9h-93.7c-4.4,0-8-3.6-8-8,0-1.6.3-3.2.9-4.8,1-2.8,2.9-5.3,3.8-8.2.8-2.5.7-6.3-1-8.2Z"/>
      <circle cx="-4335.1" cy="47.9" r="3.3"/>
      <circle cx="-4342.5" cy="50.2" r="1.5"/>
      <g>
        <path class="cls-2" d="M-3820.2,194.3v-118.7h18.5v118.7h-18.5Z"/>
        <path class="cls-2" d="M-3788.7,194.3v-118.7h27.7l8.2,37.8,8.8,64.6h3.7l-3.5-54.1-1.4-48.2h17.9v118.7h-28.9l-8.5-40-6.8-62.5h-3.9l3.1,57.3,1.6,45.2h-17.9Z"/>
        <path class="cls-2" d="M-3714.3,194.3v-118.7h19.8l-.3,28.6-3.2,27.7h3.6l7.8-28.6,9.9-27.7h20.3l-19.1,50.1,20.3,68.6h-18.8l-13.7-47.8-7.5,17.3v30.6h-19Z"/>
        <path class="cls-2" d="M-3615.4,194.3v-118.7h30.5l9,46.1,2.8,56.1h3.5l2.7-56.1,9.1-46.1h30.3v118.7h-18.6v-35.9l3.6-66.5h-3.8l-6.7,67.6-8,34.6h-20.7l-7.9-34.6-6.9-67.6h-3.6l3.3,66.5v35.9h-18.5Z"/>
        <path class="cls-2" d="M-3519,194.3l15.4-118.7h30l15.3,118.7h-19.1l-2.7-27.7h-17.3l-2.7,27.7h-19ZM-3495.6,150.2h13.8l-2.6-26.2-2.2-32.1h-4.2l-2.2,32.2-2.6,26.1Z"/>
        <path class="cls-2" d="M-3443.8,194.3v-102.4h-18v-16.3h54.3v16.3h-17.9v102.4h-18.5Z"/>
        <path class="cls-2" d="M-3374.3,195.7c-9.8,0-16.9-2.1-21.1-6.2-4.2-4.1-6.4-11-6.6-20.5,0-5-.2-10.5-.2-16.2,0-5.8,0-11.7,0-17.8s0-12,0-17.9c0-5.8,0-11.3.2-16.3,0-8.3,2.3-14.7,6.7-19.4,4.4-4.7,11.3-7,20.9-7s16.4,2.1,20.7,6.2c4.3,4.1,6.5,10.9,6.8,20.5,0,1.7,0,3.6,0,5.8s0,4.4,0,6.6c0,2.2,0,4.1-.1,5.8h-18.5c0-2,0-4.3.1-6.9,0-2.6,0-5.2,0-7.8,0-2.6,0-4.9,0-7,0-2.7-.8-4.7-2.4-6-1.5-1.4-3.7-2-6.6-2s-5.1.7-6.7,2c-1.5,1.4-2.3,3.4-2.4,6-.1,5.9-.3,12-.3,18.3,0,6.3-.1,12.7-.1,19.2s0,12.9.1,19.2c0,6.3.2,12.4.3,18.1,0,2.8.9,4.8,2.5,6.2s3.8,2,6.7,2,5.4-.7,7-2c1.6-1.4,2.4-3.4,2.5-6.2,0-2,0-4.4.1-7,0-2.6,0-5.3,0-7.9,0-2.6,0-5-.1-7h18.4c.1,2.9.2,6,.2,9.3s0,6.4-.1,9.4c-.2,9.5-2.5,16.4-6.9,20.5-4.3,4.1-11.4,6.2-21.1,6.2Z"/>
        <path class="cls-2" d="M-3335,194.3v-118.7h18.5v50.4h16.6v-50.4h18.5v118.7h-18.5v-52h-16.6v52h-18.5Z"/>
      </g>
      <rect class="cls-2" x="-3691.5" y="14.6" width="29.5" height="8.2" rx="-1816.2" ry="-1816.2" transform="translate(-1715.7 -3091.5) rotate(-57.5)"/>
      <path class="cls-2" d="M-3675.2,8.7l-9.9,15.5-13.8-8.8c-2.9-1.8-3.7-5.7-1.9-8.6l3.2-5.1c1.8-2.9,5.7-3.7,8.6-1.9l13.8,8.8Z"/>
      <path class="cls-2" d="M-3654.1,22.7c0-.2.2-.4.4-.3l50.8,32.4c3.2,2,4.7,5.7,4.1,9.2.3.1.6.3.9.5,1.6,1.1,2,3.3,1,5-1.1,1.8-3.5,2.3-5.2,1.2s-.4-.3-.6-.5c-2.9,2-6.9,2.2-10.1.1l-48.7-31.1c-2.3-1.5-3-4.5-1.5-6.8s1.2-1.6,2-2.2c1.5-1.1,3.3-1.8,4.7-3,1.2-1,2.5-3,2.2-4.6Z"/>
      <circle cx="-3649.2" cy="37.9" r="2.1"/>
      <circle cx="-3653.8" cy="36.6" r="1"/>
      <path class="cls-2" d="M-4235.4,55.6l-3.5,6.7c0,1.9,1.6,3.5,3.5,3.5s3.5-1.6,3.5-3.5l-3.5-6.7Z"/>
      <g>
        <path class="cls-3" d="M-2915,109.9V-62.6h27V109.9h-27Z"/>
        <path class="cls-3" d="M-2869.1,109.9V-62.6h40.2l11.9,54.9,12.7,93.9h5.4l-5.1-78.7-2-70.1h26.1V109.9h-41.9l-12.3-58.1-9.9-90.8h-5.7l4.5,83.2,2.3,65.7h-26.1Z"/>
        <path class="cls-3" d="M-2761.1,109.9V-62.6h28.8l-.4,41.5-4.6,40.3h5.2l11.3-41.5,14.4-40.3h29.4l-27.8,72.8,29.5,99.7h-27.4l-19.9-69.5-10.9,25.1v44.4h-27.6Z"/>
        <path class="cls-3" d="M-3168.2,325.5v-172.5h44.3l13,66.9,4.1,81.5h5.1l3.9-81.5,13.3-66.9h44.1v172.5h-27.1v-52.2l5.2-96.6h-5.5l-9.8,98.2-11.6,50.3h-30.1l-11.4-50.3-10-98.2h-5.3l4.9,96.6v52.2h-27Z"/>
        <path class="cls-3" d="M-3028.2,325.5l22.3-172.5h43.7l22.2,172.5h-27.7l-3.9-40.2h-25.1l-3.9,40.2h-27.6ZM-2994.1,261.5h20.1l-3.8-38.1-3.2-46.7h-6l-3.2,46.8-3.8,37.9Z"/>
        <path class="cls-3" d="M-2918.7,325.5v-148.8h-26.1v-23.7h78.9v23.7h-26v148.8h-26.8Z"/>
        <path class="cls-3" d="M-2817.8,327.6c-14.3,0-24.5-3-30.6-9-6.1-6-9.3-15.9-9.6-29.8-.1-7.3-.2-15.2-.3-23.6,0-8.4,0-17,0-25.9s0-17.5,0-26c0-8.5.1-16.4.3-23.7.1-12,3.4-21.4,9.7-28.2,6.3-6.8,16.5-10.2,30.4-10.2s23.8,3,30,8.9c6.2,6,9.5,15.9,9.9,29.8,0,2.4.1,5.3.1,8.5s0,6.4-.1,9.5c0,3.2-.1,6-.2,8.4h-26.8c0-2.9.1-6.2.2-10s0-7.5.1-11.3c0-3.7,0-7.1,0-10.1,0-3.9-1.2-6.8-3.4-8.8-2.2-2-5.4-3-9.6-3s-7.5,1-9.7,3c-2.2,2-3.4,4.9-3.6,8.8-.2,8.6-.4,17.4-.5,26.6-.1,9.2-.2,18.5-.2,27.9s0,18.7.2,27.9c.1,9.2.3,17.9.5,26.4.1,4,1.3,7,3.6,9,2.3,2,5.5,3,9.8,3s7.9-1,10.2-3c2.3-2,3.5-5,3.6-9,0-2.9.1-6.3.2-10.2,0-3.8,0-7.7,0-11.5,0-3.8,0-7.2-.2-10.2h26.7c.2,4.2.3,8.8.3,13.5s0,9.3-.2,13.6c-.4,13.9-3.7,23.8-10,29.8-6.3,6-16.5,9-30.7,9Z"/>
        <path class="cls-3" d="M-2760.7,325.5v-172.5h27v73.2h24.1v-73.2h27v172.5h-27v-75.6h-24.1v75.6h-27Z"/>
      </g>
      <path class="cls-2" d="M-2937.6-52c-6.5-8.3-18.5-9.7-26.8-3.2l-21.8,17.1-1.8-2.3c-2.9-3.7-8.3-4.3-12-1.4h0c-3.7,2.9-4.3,8.3-1.4,12l27.3,34.7c2.9,3.7,8.3,4.3,12,1.4s4.3-8.3,1.4-12l-1.8-2.3,21.8-17.1c8.3-6.5,9.7-18.5,3.2-26.8Z"/>
      <path class="cls-2" d="M-3004.3,23.7c.5,0,.6.7.2,1l-98.2,77.3c-6.2,4.8-14.4,5.3-20.8,1.8-.4.5-.9,1-1.5,1.4-3.3,2.3-7.9,1.7-10.5-1.4-2.8-3.4-2.2-8.4,1.2-11s.9-.6,1.3-.8c-1.9-7.1.5-15,6.7-19.9l94.1-74.1c4.4-3.5,10.9-2.7,14.3,1.8,1.2,1.6,2.2,3.5,2.9,5.5,1.3,3.6,1.3,7.6,2.7,11.2s4.3,6.9,7.5,7.4Z"/>
      <circle cx="-3037.6" cy="23" r="4.3"/>
      <circle cx="-3031.9" cy="14.7" r="2"/>
      <path class="cls-2" d="M-3131,112.2l-5.4,10.4c0,3,2.4,5.4,5.4,5.4s5.4-2.4,5.4-5.4l-5.4-10.4Z"/>
      <g>
        <rect class="cls-1" x="-2664.5" y="87.5" width="760.2" height="107.7"/>
        <path class="cls-2" d="M-2521.2,191.8v-104.3h16.3v104.3h-16.3Z"/>
        <path class="cls-2" d="M-2493.5,191.8v-104.3h24.3l7.2,33.2,7.7,56.8h3.3l-3.1-47.6-1.2-42.4h15.8v104.3h-25.4l-7.4-35.1-6-54.9h-3.5l2.7,50.3,1.4,39.7h-15.8Z"/>
        <path class="cls-2" d="M-2428.2,191.8v-104.3h17.4l-.3,25.1-2.8,24.4h3.1l6.8-25.1,8.7-24.4h17.8l-16.8,44,17.9,60.3h-16.6l-12.1-42-6.6,15.2v26.9h-16.7Z"/>
        <path class="cls-2" d="M-2341.2,191.8v-104.3h26.8l7.9,40.5,2.5,49.3h3.1l2.3-49.3,8-40.5h26.7v104.3h-16.4v-31.5l3.1-58.4h-3.3l-5.9,59.4-7,30.4h-18.2l-6.9-30.4-6.1-59.4h-3.2l2.9,58.4v31.5h-16.3Z"/>
        <path class="cls-2" d="M-2256.5,191.8l13.5-104.3h26.4l13.4,104.3h-16.8l-2.3-24.3h-15.2l-2.3,24.3h-16.7ZM-2235.9,153.1h12.1l-2.3-23-2-28.2h-3.7l-2,28.3-2.3,22.9Z"/>
        <path class="cls-2" d="M-2190.4,191.8v-90h-15.8v-14.3h47.7v14.3h-15.7v90h-16.2Z"/>
        <path class="cls-2" d="M-2129.4,193.1c-8.6,0-14.8-1.8-18.5-5.4-3.7-3.6-5.6-9.6-5.8-18,0-4.4-.1-9.2-.2-14.3,0-5.1,0-10.3,0-15.6s0-10.6,0-15.7c0-5.1,0-9.9.2-14.3,0-7.3,2-12.9,5.9-17.1,3.8-4.1,10-6.2,18.4-6.2s14.4,1.8,18.2,5.4c3.8,3.6,5.7,9.6,6,18,0,1.5,0,3.2,0,5.1s0,3.9,0,5.8c0,1.9,0,3.6-.1,5.1h-16.2c0-1.7,0-3.7,0-6,0-2.3,0-4.6,0-6.8,0-2.3,0-4.3,0-6.1,0-2.3-.7-4.1-2.1-5.3-1.3-1.2-3.3-1.8-5.8-1.8s-4.5.6-5.9,1.8c-1.3,1.2-2.1,3-2.2,5.3-.1,5.2-.2,10.5-.3,16.1,0,5.5,0,11.2,0,16.8s0,11.3,0,16.8c0,5.5.2,10.9.3,15.9,0,2.4.8,4.2,2.2,5.4,1.4,1.2,3.3,1.8,5.9,1.8s4.7-.6,6.2-1.8,2.1-3,2.2-5.4c0-1.8,0-3.8,0-6.2,0-2.3,0-4.6,0-6.9,0-2.3,0-4.4,0-6.2h16.2c.1,2.6.2,5.3.2,8.2s0,5.6-.1,8.2c-.2,8.4-2.2,14.4-6,18-3.8,3.6-10,5.4-18.5,5.4Z"/>
        <path class="cls-2" d="M-2094.8,191.8v-104.3h16.3v44.3h14.6v-44.3h16.3v104.3h-16.3v-45.7h-14.6v45.7h-16.3Z"/>
      </g>
      <rect class="cls-2" x="-2486.9" y="32.4" width="12.3" height="44.3"/>
      <rect class="cls-2" x="-2520.8" y="40.4" width="34.4" height="28.1"/>
      <circle class="cls-2" cx="-2430.3" cy="60.7" r="3.1"/>
      <circle class="cls-2" cx="-2437.3" cy="62.9" r="1.4"/>
      <path class="cls-2" d="M-2337.9,70.5l-3.3,6.3c0,1.8,1.5,3.3,3.3,3.3s3.3-1.5,3.3-3.3l-3.3-6.3Z"/>
      <path class="cls-2" d="M-2451.2,69.1h106.9v-28.7h-106.9c.4,1.8.6,3.5.3,5.3-.2,1.1-.8,2.2-1.1,3.3-.3,1.1-.5,2.4,0,3.4.5,1,1.5,1.5,2.1,2.4.9,1.3.9,3.1.4,4.6s-1.3,2.9-1.9,4.4-.6,3.7,0,5.2Z"/>
      <circle cx="-2435.8" cy="60.7" r="3.4"/>
      <circle cx="-2443.4" cy="63" r="1.6"/>
      <path class="cls-2" d="M-2339.2,59.8h-6.3v-10.1h6.3c.1,0,.2,0,.2.2v9.7c0,.1,0,.2-.2.2Z"/>
      <rect class="cls-3" x="-2617.3" y="797" width="710" height="403"/>
      <g>
        <rect class="cls-1" x="-2568.9" y="852.2" width="613" height="313.1"/>
        <path d="M-2566.7,884.2v-32h1.7v30.4h6v1.6h-7.7Z"/>
        <path d="M-2552.5,884.5c-1,0-1.8-.2-2.5-.5s-1.1-.8-1.4-1.4-.5-1.5-.5-2.5c0-1.3,0-2.5,0-3.9,0-1.3,0-2.6,0-4s0-2.7,0-4c0-1.3,0-2.6,0-3.9,0-1.1.2-1.9.5-2.5s.7-1.1,1.4-1.4,1.4-.5,2.5-.5,1.9.2,2.5.5,1.1.8,1.4,1.4c.3.6.4,1.5.5,2.5,0,1.3,0,2.5,0,3.9,0,1.3,0,2.6,0,4s0,2.7,0,4c0,1.3,0,2.6,0,3.9,0,1-.2,1.9-.5,2.5-.3.6-.7,1.1-1.4,1.4s-1.4.5-2.5.5ZM-2552.5,883c.9,0,1.6-.2,2-.6.4-.4.6-1.1.7-2.1,0-1.6,0-3,0-4.3,0-1.3,0-2.6,0-3.8s0-2.5,0-3.8c0-1.3,0-2.7,0-4.3,0-1-.2-1.8-.6-2.1s-1-.6-2-.6-1.6.2-2,.6c-.4.4-.6,1.1-.6,2.1,0,1.5,0,3-.1,4.3,0,1.3,0,2.6,0,3.8s0,2.5,0,3.8c0,1.3,0,2.7.1,4.3,0,1,.3,1.7.7,2.1.4.4,1.1.6,2,.6Z"/>
        <path d="M-2543.9,884.2v-24h1.7v2.1h.4c.3-.8.6-1.3,1.1-1.7.5-.3,1.1-.4,1.9-.4h1.1v1.5h-1.1c-1,0-1.8.2-2.3.6-.5.4-.9,1.1-1.1,2v19.9h-1.7Z"/>
        <path d="M-2531.5,884.5c-1.5,0-2.6-.3-3.3-1s-1-1.7-1.1-3.2c0-1.3,0-2.6,0-3.9,0-1.3,0-2.7,0-4.1s0-2.7,0-4.1,0-2.7,0-3.9c0-1.5.4-2.6,1.1-3.3s1.8-1,3.3-1,2.5.3,3.1,1,1,1.7,1.1,3.2c0,.5,0,1.1,0,1.9,0,.8,0,1.8,0,2.9s0,2.3,0,3.7h-6.9c0,1.2,0,2.4,0,3.6,0,1.2,0,2.6,0,4.1,0,1,.2,1.7.6,2.1.4.4,1.1.6,2,.6s1.5-.2,1.9-.6.6-1.1.6-2.1c0-.5,0-1.2,0-1.8s0-1.4,0-2.2h1.7c0,.7,0,1.4,0,2.1,0,.7,0,1.3,0,1.8,0,1.5-.4,2.6-1,3.2-.6.6-1.7,1-3.2,1ZM-2534.3,871.2h5.3c0-1,0-2,0-2.9,0-.9,0-1.8,0-2.5,0-.7,0-1.3,0-1.7,0-1-.2-1.6-.6-2.1-.4-.4-1-.6-1.9-.6s-1.6.2-2,.6-.6,1.1-.7,2.1c0,1.3,0,2.6,0,3.8,0,1.2,0,2.3,0,3.4Z"/>
        <path d="M-2523.3,884.2v-24h1.7v2h.4c.3-.8.8-1.4,1.3-1.7s1.2-.5,2-.5,1.6.2,2.1.5c.5.4.9,1,1.1,1.8h.4c.4-.8.8-1.4,1.3-1.8s1.2-.6,2.1-.6,2,.3,2.5,1c.5.6.8,1.7.8,3.2v20.1h-1.7v-20.1c0-1-.2-1.6-.5-2.1-.3-.4-.9-.6-1.6-.6s-1.5.2-2,.6c-.5.4-.9,1.1-1.2,2v20.2h-1.7v-20.1c0-1-.2-1.6-.5-2.1-.3-.4-.9-.6-1.6-.6s-1.5.2-2,.6c-.5.4-.9,1.1-1.2,2v20.2h-1.7Z"/>
        <path d="M-2495.9,855.1v-2.8h3.7v2.8h-3.7ZM-2494.9,884.2v-24h1.7v24h-1.7Z"/>
        <path d="M-2488.6,892.2v-32h1.7v2h.4c.3-.8.7-1.4,1.2-1.7.5-.4,1.1-.5,2-.5s2,.3,2.5,1c.5.6.8,1.7.9,3.2,0,1,0,2.1,0,3.5,0,1.3,0,2.8,0,4.2s0,2.9,0,4.4c0,1.4,0,2.8,0,4,0,1.5-.3,2.6-.9,3.2s-1.4,1-2.5,1-1.4-.2-1.9-.5c-.5-.4-.9-.9-1.2-1.7h-.4v10h-1.7ZM-2483.7,883.1c.7,0,1.3-.2,1.6-.6.3-.4.5-1.1.5-2.1,0-1.7,0-3.2,0-4.6,0-1.4,0-2.8,0-4.1,0-1.3,0-2.6,0-3.8,0-1.2,0-2.5,0-3.8,0-1-.2-1.6-.5-2.1-.3-.4-.9-.6-1.6-.6s-1.5.2-2,.6c-.5.4-.9,1.1-1.2,2v16.4c.3.9.7,1.6,1.2,2,.5.4,1.1.6,2,.6Z"/>
        <path d="M-2472.2,884.5c-1.5,0-2.5-.3-3.1-1s-.9-1.7-.9-3.2c0-.6,0-1.2,0-1.8s0-1.4,0-2.1h1.6c0,.8,0,1.5,0,2.2s0,1.3,0,1.9c0,1,.2,1.7.6,2.1s1,.6,1.9.6,1.6-.2,2-.6c.4-.4.6-1.1.6-2.1,0-.4,0-.8,0-1.2s0-.7,0-1.1,0-.7,0-1.1c0-1.2-.2-2-.4-2.6-.2-.6-.7-1-1.5-1.3l-1.6-.6c-.8-.3-1.5-.7-1.9-1.1-.5-.4-.8-1-.9-1.8-.2-.7-.3-1.7-.3-2.9,0-.5,0-.9,0-1.3,0-.4,0-.8,0-1.3,0-1.5.3-2.6.9-3.3s1.6-1,3.2-1,2.5.3,3.1,1c.6.7.9,1.7.9,3.2v1.8c0,.7,0,1.4,0,2.1h-1.6c0-.5,0-1,0-1.5v-1.4c0-.4,0-.8,0-1.2,0-1-.2-1.7-.5-2.1-.3-.4-1-.5-1.9-.5s-1.5.2-1.9.5c-.3.4-.5,1.1-.6,2.1,0,.5,0,1,0,1.3,0,.4,0,.8,0,1.3,0,1.1.1,2,.3,2.7s.7,1.2,1.5,1.5l1.6.5c1.1.4,1.9,1,2.5,1.8s.8,2,.8,3.7,0,1.1,0,1.6c0,.6,0,1.1,0,1.7,0,1.5-.4,2.6-1,3.2-.6.7-1.7,1-3.2,1Z"/>
        <path d="M-2460.8,884.5c-1.1,0-2-.3-2.5-1s-.8-1.7-.8-3.2v-20h1.7v20.1c0,.9.2,1.6.5,2.1.3.4.9.6,1.6.6s1.4-.2,2-.7,1-1.1,1.2-2v-20.2h1.7v24h-1.7v-2h-.4c-.3.7-.8,1.3-1.3,1.7s-1.2.6-1.9.6Z"/>
        <path d="M-2450.9,884.2v-24h1.7v2h.4c.3-.8.8-1.4,1.3-1.7s1.2-.5,2-.5,1.6.2,2.1.5c.5.4.9,1,1.1,1.8h.4c.4-.8.8-1.4,1.3-1.8s1.2-.6,2.1-.6,2,.3,2.5,1c.5.6.8,1.7.8,3.2v20.1h-1.7v-20.1c0-1-.2-1.6-.5-2.1-.3-.4-.9-.6-1.6-.6s-1.5.2-2,.6c-.5.4-.9,1.1-1.2,2v20.2h-1.7v-20.1c0-1-.2-1.6-.5-2.1-.3-.4-.9-.6-1.6-.6s-1.5.2-2,.6c-.5.4-.9,1.1-1.2,2v20.2h-1.7Z"/>
        <path d="M-2419.5,884.5c-1.1,0-2-.3-2.5-1-.5-.7-.8-1.7-.9-3.2,0-1.3,0-2.6,0-3.9s0-2.6,0-3.9,0-2.7,0-4.1,0-2.8,0-4.2c0-1.5.3-2.6.9-3.2.5-.6,1.4-1,2.5-1s1.5.2,2,.5c.5.4.9.9,1.3,1.7h.4v-10h1.7v32h-1.7v-2h-.4c-.3.7-.8,1.3-1.2,1.7-.5.4-1.1.6-2,.6ZM-2419.1,883.1c.8,0,1.5-.2,2-.6.5-.4.9-1.1,1.2-2v-16.4c-.3-.9-.7-1.6-1.2-2-.5-.4-1.2-.6-2-.6s-1.3.2-1.6.6c-.3.4-.5,1.1-.5,2.1,0,2,0,3.9,0,5.8s0,3.6,0,5.3,0,3.5,0,5.2c0,.9.2,1.6.5,2.1.3.4.8.6,1.6.6Z"/>
        <path d="M-2405.6,884.5c-1,0-1.8-.2-2.5-.5s-1.1-.8-1.4-1.4-.5-1.5-.5-2.5c0-1.3,0-2.5,0-3.9,0-1.3,0-2.6,0-4s0-2.7,0-4c0-1.3,0-2.6,0-3.9,0-1.1.2-1.9.5-2.5s.7-1.1,1.4-1.4,1.4-.5,2.5-.5,1.9.2,2.5.5,1.1.8,1.4,1.4c.3.6.4,1.5.5,2.5,0,1.3,0,2.5,0,3.9,0,1.3,0,2.6,0,4s0,2.7,0,4c0,1.3,0,2.6,0,3.9,0,1-.2,1.9-.5,2.5-.3.6-.7,1.1-1.4,1.4s-1.4.5-2.5.5ZM-2405.6,883c.9,0,1.6-.2,2-.6.4-.4.6-1.1.7-2.1,0-1.6,0-3,0-4.3,0-1.3,0-2.6,0-3.8s0-2.5,0-3.8c0-1.3,0-2.7,0-4.3,0-1-.2-1.8-.6-2.1s-1-.6-2-.6-1.6.2-2,.6c-.4.4-.6,1.1-.6,2.1,0,1.5,0,3-.1,4.3,0,1.3,0,2.6,0,3.8s0,2.5,0,3.8c0,1.3,0,2.7.1,4.3,0,1,.3,1.7.7,2.1.4.4,1.1.6,2,.6Z"/>
        <path d="M-2397,884.2v-32h1.7v32h-1.7Z"/>
        <path d="M-2386.8,884.5c-1,0-1.8-.2-2.5-.5s-1.1-.8-1.4-1.4-.5-1.5-.5-2.5c0-1.3,0-2.5,0-3.9,0-1.3,0-2.6,0-4s0-2.7,0-4c0-1.3,0-2.6,0-3.9,0-1.1.2-1.9.5-2.5s.7-1.1,1.4-1.4,1.4-.5,2.5-.5,1.9.2,2.5.5,1.1.8,1.4,1.4c.3.6.4,1.5.5,2.5,0,1.3,0,2.5,0,3.9,0,1.3,0,2.6,0,4s0,2.7,0,4c0,1.3,0,2.6,0,3.9,0,1-.2,1.9-.5,2.5-.3.6-.7,1.1-1.4,1.4s-1.4.5-2.5.5ZM-2386.8,883c.9,0,1.6-.2,2-.6.4-.4.6-1.1.7-2.1,0-1.6,0-3,0-4.3,0-1.3,0-2.6,0-3.8s0-2.5,0-3.8c0-1.3,0-2.7,0-4.3,0-1-.2-1.8-.6-2.1s-1-.6-2-.6-1.6.2-2,.6c-.4.4-.6,1.1-.6,2.1,0,1.5,0,3-.1,4.3,0,1.3,0,2.6,0,3.8s0,2.5,0,3.8c0,1.3,0,2.7.1,4.3,0,1,.3,1.7.7,2.1.4.4,1.1.6,2,.6Z"/>
        <path d="M-2378.1,884.2v-24h1.7v2.1h.4c.3-.8.6-1.3,1.1-1.7.5-.3,1.1-.4,1.9-.4h1.1v1.5h-1.1c-1,0-1.8.2-2.3.6-.5.4-.9,1.1-1.1,2v19.9h-1.7Z"/>
        <path d="M-2359.5,884.5c-1.5,0-2.5-.3-3.1-1s-.9-1.7-.9-3.2c0-.6,0-1.2,0-1.8s0-1.4,0-2.1h1.6c0,.8,0,1.5,0,2.2s0,1.3,0,1.9c0,1,.2,1.7.6,2.1s1,.6,1.9.6,1.6-.2,2-.6c.4-.4.6-1.1.6-2.1,0-.4,0-.8,0-1.2s0-.7,0-1.1,0-.7,0-1.1c0-1.2-.2-2-.4-2.6-.2-.6-.7-1-1.5-1.3l-1.6-.6c-.8-.3-1.5-.7-1.9-1.1-.5-.4-.8-1-.9-1.8-.2-.7-.3-1.7-.3-2.9,0-.5,0-.9,0-1.3,0-.4,0-.8,0-1.3,0-1.5.3-2.6.9-3.3s1.6-1,3.2-1,2.5.3,3.1,1c.6.7.9,1.7.9,3.2v1.8c0,.7,0,1.4,0,2.1h-1.6c0-.5,0-1,0-1.5v-1.4c0-.4,0-.8,0-1.2,0-1-.2-1.7-.5-2.1-.3-.4-1-.5-1.9-.5s-1.5.2-1.9.5c-.3.4-.5,1.1-.6,2.1,0,.5,0,1,0,1.3,0,.4,0,.8,0,1.3,0,1.1.1,2,.3,2.7s.7,1.2,1.5,1.5l1.6.5c1.1.4,1.9,1,2.5,1.8s.8,2,.8,3.7,0,1.1,0,1.6c0,.6,0,1.1,0,1.7,0,1.5-.4,2.6-1,3.2-.6.7-1.7,1-3.2,1Z"/>
        <path d="M-2352.3,855.1v-2.8h3.7v2.8h-3.7ZM-2351.3,884.2v-24h1.7v24h-1.7Z"/>
        <path d="M-2341,884.5c-1.5,0-2.5-.3-3.1-1-.5-.7-.8-1.7-.8-3.2v-18.6h-1.5v-1.4h1.5v-6.8h1.7v6.8h3.4v1.4h-3.5v18.7c0,1,.1,1.7.4,2.1s.9.6,1.8.6.7,0,.9,0c.2,0,.5,0,.8-.1v1.4c-.3,0-.5,0-.8.1-.3,0-.6,0-.9,0Z"/>
        <path d="M-2327.3,884.5c-1.2,0-2-.4-2.6-1.1-.6-.7-.9-1.7-1-3.1,0-.4,0-.7,0-1.1,0-.3,0-.7,0-1,0-.9.2-1.7.4-2.5s.5-1.5,1-2.1c.5-.6,1.2-1.3,2-1.8.5-.4,1.1-.7,1.7-1.1.6-.3,1.2-.7,1.8-1v-5.7c0-.9-.2-1.6-.5-2s-1-.6-1.9-.6-1.4.2-1.8.5c-.4.4-.6,1.1-.7,2.1,0,.3,0,.8,0,1.2,0,.5,0,.9,0,1.4,0,.5,0,1,0,1.4h-1.6c0-.6,0-1.3,0-2,0-.7,0-1.3,0-1.9,0-1,.2-1.8.5-2.4s.8-1.1,1.4-1.3c.6-.3,1.4-.4,2.4-.4s1.8.1,2.4.5c.6.3,1,.8,1.3,1.4.3.6.4,1.5.4,2.5v19.9h-1.7v-2h-.3c-.2.7-.6,1.2-1,1.6-.4.4-1.1.6-1.9.6ZM-2326.9,883.1c.7,0,1.3-.2,1.8-.6.5-.4.8-1.1,1.1-1.9v-9.1c-.4.2-.9.5-1.4.8s-1.1.7-1.8,1.2c-.8.6-1.3,1.3-1.6,2.1-.3.8-.4,1.7-.5,2.7,0,.2,0,.5,0,.9s0,.7,0,1.1c0,.9.3,1.6.7,2.1.4.5.9.7,1.6.7Z"/>
        <path d="M-2317.8,884.2v-24h1.7v2h.4c.3-.8.8-1.4,1.3-1.7s1.2-.5,2-.5,1.6.2,2.1.5c.5.4.9,1,1.1,1.8h.4c.4-.8.8-1.4,1.3-1.8s1.2-.6,2.1-.6,2,.3,2.5,1c.5.6.8,1.7.8,3.2v20.1h-1.7v-20.1c0-1-.2-1.6-.5-2.1-.3-.4-.9-.6-1.6-.6s-1.5.2-2,.6c-.5.4-.9,1.1-1.2,2v20.2h-1.7v-20.1c0-1-.2-1.6-.5-2.1-.3-.4-.9-.6-1.6-.6s-1.5.2-2,.6c-.5.4-.9,1.1-1.2,2v20.2h-1.7Z"/>
        <path d="M-2293.5,884.5c-1.5,0-2.6-.3-3.3-1s-1-1.7-1.1-3.2c0-1.3,0-2.6,0-3.9,0-1.3,0-2.7,0-4.1s0-2.7,0-4.1,0-2.7,0-3.9c0-1.5.4-2.6,1.1-3.3s1.8-1,3.3-1,2.5.3,3.1,1,1,1.7,1.1,3.2c0,.5,0,1.1,0,1.9,0,.8,0,1.8,0,2.9s0,2.3,0,3.7h-6.9c0,1.2,0,2.4,0,3.6,0,1.2,0,2.6,0,4.1,0,1,.2,1.7.6,2.1.4.4,1.1.6,2,.6s1.5-.2,1.9-.6.6-1.1.6-2.1c0-.5,0-1.2,0-1.8s0-1.4,0-2.2h1.7c0,.7,0,1.4,0,2.1,0,.7,0,1.3,0,1.8,0,1.5-.4,2.6-1,3.2-.6.6-1.7,1-3.2,1ZM-2296.3,871.2h5.3c0-1,0-2,0-2.9,0-.9,0-1.8,0-2.5,0-.7,0-1.3,0-1.7,0-1-.2-1.6-.6-2.1-.4-.4-1-.6-1.9-.6s-1.6.2-2,.6-.6,1.1-.7,2.1c0,1.3,0,2.6,0,3.8,0,1.2,0,2.3,0,3.4Z"/>
        <path d="M-2281.3,884.5c-1.5,0-2.5-.3-3.1-1-.5-.7-.8-1.7-.8-3.2v-18.6h-1.5v-1.4h1.5v-6.8h1.7v6.8h3.4v1.4h-3.5v18.7c0,1,.1,1.7.4,2.1s.9.6,1.8.6.7,0,.9,0c.2,0,.5,0,.8-.1v1.4c-.3,0-.5,0-.8.1-.3,0-.6,0-.9,0Z"/>
        <path d="M-2276.4,887.9l1.3-3.6h-2.2v-3h3.8v2.7l-1.5,3.9h-1.4Z"/>
        <path d="M-2254.6,868.1c0-.5,0-1,0-1.5s0-.9,0-1.4c0-.4,0-.8,0-1.2,0-1-.2-1.7-.6-2.1-.4-.4-1.1-.5-2-.5s-1.6.2-2,.5c-.4.4-.6,1.1-.6,2.1,0,1.6,0,3,0,4.3,0,1.3,0,2.6,0,3.8s0,2.5,0,3.8c0,1.3,0,2.7,0,4.3,0,1,.2,1.7.6,2.1.4.4,1.1.6,2,.6s1.6-.2,2-.6c.4-.4.6-1.1.6-2.1,0-.6,0-1.2,0-1.9s0-1.4,0-2.2h1.7c0,.7,0,1.4,0,2.1,0,.7,0,1.3,0,1.8,0,1.5-.4,2.6-1,3.2s-1.7,1-3.2,1-2.6-.3-3.2-1-1-1.7-1-3.2c0-1.3,0-2.6,0-3.9,0-1.3,0-2.7,0-4.1s0-2.7,0-4.1,0-2.7,0-3.9c0-1.5.4-2.6,1.1-3.3s1.7-1,3.2-1,2.6.3,3.3,1,1,1.7,1,3.2c0,.5,0,1.1,0,1.8s0,1.4,0,2.1h-1.7Z"/>
        <path d="M-2245,884.5c-1,0-1.8-.2-2.5-.5s-1.1-.8-1.4-1.4-.5-1.5-.5-2.5c0-1.3,0-2.5,0-3.9,0-1.3,0-2.6,0-4s0-2.7,0-4c0-1.3,0-2.6,0-3.9,0-1.1.2-1.9.5-2.5s.7-1.1,1.4-1.4,1.4-.5,2.5-.5,1.9.2,2.5.5,1.1.8,1.4,1.4c.3.6.4,1.5.5,2.5,0,1.3,0,2.5,0,3.9,0,1.3,0,2.6,0,4s0,2.7,0,4c0,1.3,0,2.6,0,3.9,0,1-.2,1.9-.5,2.5-.3.6-.7,1.1-1.4,1.4s-1.4.5-2.5.5ZM-2245,883c.9,0,1.6-.2,2-.6.4-.4.6-1.1.7-2.1,0-1.6,0-3,0-4.3,0-1.3,0-2.6,0-3.8s0-2.5,0-3.8c0-1.3,0-2.7,0-4.3,0-1-.2-1.8-.6-2.1s-1-.6-2-.6-1.6.2-2,.6c-.4.4-.6,1.1-.6,2.1,0,1.5,0,3-.1,4.3,0,1.3,0,2.6,0,3.8s0,2.5,0,3.8c0,1.3,0,2.7.1,4.3,0,1,.3,1.7.7,2.1.4.4,1.1.6,2,.6Z"/>
        <path d="M-2236.3,884.2v-24h1.7v2h.4c.3-.7.7-1.3,1.3-1.7.5-.4,1.2-.6,1.9-.6,1.1,0,2,.3,2.5,1,.5.6.8,1.7.8,3.2v20.1h-1.7v-20.1c0-1-.2-1.7-.5-2.1-.3-.4-.9-.6-1.6-.6s-1.4.2-2,.7c-.6.5-1,1.1-1.2,2v20.2h-1.7Z"/>
        <path d="M-2219.7,884.5c-1.5,0-2.5-.3-3.1-1s-.9-1.7-.9-3.2c0-.6,0-1.2,0-1.8s0-1.4,0-2.1h1.6c0,.8,0,1.5,0,2.2s0,1.3,0,1.9c0,1,.2,1.7.6,2.1s1,.6,1.9.6,1.6-.2,2-.6c.4-.4.6-1.1.6-2.1,0-.4,0-.8,0-1.2s0-.7,0-1.1,0-.7,0-1.1c0-1.2-.2-2-.4-2.6-.2-.6-.7-1-1.5-1.3l-1.6-.6c-.8-.3-1.5-.7-1.9-1.1-.5-.4-.8-1-.9-1.8-.2-.7-.3-1.7-.3-2.9,0-.5,0-.9,0-1.3,0-.4,0-.8,0-1.3,0-1.5.3-2.6.9-3.3s1.6-1,3.2-1,2.5.3,3.1,1c.6.7.9,1.7.9,3.2v1.8c0,.7,0,1.4,0,2.1h-1.6c0-.5,0-1,0-1.5v-1.4c0-.4,0-.8,0-1.2,0-1-.2-1.7-.5-2.1-.3-.4-1-.5-1.9-.5s-1.5.2-1.9.5c-.3.4-.5,1.1-.6,2.1,0,.5,0,1,0,1.3,0,.4,0,.8,0,1.3,0,1.1.1,2,.3,2.7s.7,1.2,1.5,1.5l1.6.5c1.1.4,1.9,1,2.5,1.8s.8,2,.8,3.7,0,1.1,0,1.6c0,.6,0,1.1,0,1.7,0,1.5-.4,2.6-1,3.2-.6.7-1.7,1-3.2,1Z"/>
        <path d="M-2207.5,884.5c-1.5,0-2.6-.3-3.3-1s-1-1.7-1.1-3.2c0-1.3,0-2.6,0-3.9,0-1.3,0-2.7,0-4.1s0-2.7,0-4.1,0-2.7,0-3.9c0-1.5.4-2.6,1.1-3.3s1.8-1,3.3-1,2.5.3,3.1,1,1,1.7,1.1,3.2c0,.5,0,1.1,0,1.9,0,.8,0,1.8,0,2.9s0,2.3,0,3.7h-6.9c0,1.2,0,2.4,0,3.6,0,1.2,0,2.6,0,4.1,0,1,.2,1.7.6,2.1.4.4,1.1.6,2,.6s1.5-.2,1.9-.6.6-1.1.6-2.1c0-.5,0-1.2,0-1.8s0-1.4,0-2.2h1.7c0,.7,0,1.4,0,2.1,0,.7,0,1.3,0,1.8,0,1.5-.4,2.6-1,3.2-.6.6-1.7,1-3.2,1ZM-2210.2,871.2h5.3c0-1,0-2,0-2.9,0-.9,0-1.8,0-2.5,0-.7,0-1.3,0-1.7,0-1-.2-1.6-.6-2.1-.4-.4-1-.6-1.9-.6s-1.6.2-2,.6-.6,1.1-.7,2.1c0,1.3,0,2.6,0,3.8,0,1.2,0,2.3,0,3.4Z"/>
        <path d="M-2192.7,868.1c0-.5,0-1,0-1.5s0-.9,0-1.4c0-.4,0-.8,0-1.2,0-1-.2-1.7-.6-2.1-.4-.4-1.1-.5-2-.5s-1.6.2-2,.5c-.4.4-.6,1.1-.6,2.1,0,1.6,0,3,0,4.3,0,1.3,0,2.6,0,3.8s0,2.5,0,3.8c0,1.3,0,2.7,0,4.3,0,1,.2,1.7.6,2.1.4.4,1.1.6,2,.6s1.6-.2,2-.6c.4-.4.6-1.1.6-2.1,0-.6,0-1.2,0-1.9s0-1.4,0-2.2h1.7c0,.7,0,1.4,0,2.1,0,.7,0,1.3,0,1.8,0,1.5-.4,2.6-1,3.2s-1.7,1-3.2,1-2.6-.3-3.2-1-1-1.7-1-3.2c0-1.3,0-2.6,0-3.9,0-1.3,0-2.7,0-4.1s0-2.7,0-4.1,0-2.7,0-3.9c0-1.5.4-2.6,1.1-3.3s1.7-1,3.2-1,2.6.3,3.3,1,1,1.7,1,3.2c0,.5,0,1.1,0,1.8s0,1.4,0,2.1h-1.7Z"/>
        <path d="M-2183.1,884.5c-1.5,0-2.5-.3-3.1-1-.5-.7-.8-1.7-.8-3.2v-18.6h-1.5v-1.4h1.5v-6.8h1.7v6.8h3.4v1.4h-3.5v18.7c0,1,.1,1.7.4,2.1s.9.6,1.8.6.7,0,.9,0c.2,0,.5,0,.8-.1v1.4c-.3,0-.5,0-.8.1-.3,0-.6,0-.9,0Z"/>
        <path d="M-2174.8,884.5c-1.5,0-2.6-.3-3.3-1s-1-1.7-1.1-3.2c0-1.3,0-2.6,0-3.9,0-1.3,0-2.7,0-4.1s0-2.7,0-4.1,0-2.7,0-3.9c0-1.5.4-2.6,1.1-3.3s1.8-1,3.3-1,2.5.3,3.1,1,1,1.7,1.1,3.2c0,.5,0,1.1,0,1.9,0,.8,0,1.8,0,2.9s0,2.3,0,3.7h-6.9c0,1.2,0,2.4,0,3.6,0,1.2,0,2.6,0,4.1,0,1,.2,1.7.6,2.1.4.4,1.1.6,2,.6s1.5-.2,1.9-.6.6-1.1.6-2.1c0-.5,0-1.2,0-1.8s0-1.4,0-2.2h1.7c0,.7,0,1.4,0,2.1,0,.7,0,1.3,0,1.8,0,1.5-.4,2.6-1,3.2-.6.6-1.7,1-3.2,1ZM-2177.5,871.2h5.3c0-1,0-2,0-2.9,0-.9,0-1.8,0-2.5,0-.7,0-1.3,0-1.7,0-1-.2-1.6-.6-2.1-.4-.4-1-.6-1.9-.6s-1.6.2-2,.6-.6,1.1-.7,2.1c0,1.3,0,2.6,0,3.8,0,1.2,0,2.3,0,3.4Z"/>
        <path d="M-2162.5,884.5c-1.5,0-2.5-.3-3.1-1-.5-.7-.8-1.7-.8-3.2v-18.6h-1.5v-1.4h1.5v-6.8h1.7v6.8h3.4v1.4h-3.5v18.7c0,1,.1,1.7.4,2.1s.9.6,1.8.6.7,0,.9,0c.2,0,.5,0,.8-.1v1.4c-.3,0-.5,0-.8.1-.3,0-.6,0-.9,0Z"/>
        <path d="M-2155,884.5c-1.1,0-2-.3-2.5-1s-.8-1.7-.8-3.2v-20h1.7v20.1c0,.9.2,1.6.5,2.1.3.4.9.6,1.6.6s1.4-.2,2-.7,1-1.1,1.2-2v-20.2h1.7v24h-1.7v-2h-.4c-.3.7-.8,1.3-1.3,1.7s-1.2.6-1.9.6Z"/>
        <path d="M-2141,884.5c-1.5,0-2.6-.3-3.3-1s-1-1.7-1.1-3.2c0-1.3,0-2.6,0-3.9,0-1.3,0-2.7,0-4.1s0-2.7,0-4.1,0-2.7,0-3.9c0-1.5.4-2.6,1.1-3.3s1.8-1,3.3-1,2.5.3,3.1,1,1,1.7,1.1,3.2c0,.5,0,1.1,0,1.9,0,.8,0,1.8,0,2.9s0,2.3,0,3.7h-6.9c0,1.2,0,2.4,0,3.6,0,1.2,0,2.6,0,4.1,0,1,.2,1.7.6,2.1.4.4,1.1.6,2,.6s1.5-.2,1.9-.6.6-1.1.6-2.1c0-.5,0-1.2,0-1.8s0-1.4,0-2.2h1.7c0,.7,0,1.4,0,2.1,0,.7,0,1.3,0,1.8,0,1.5-.4,2.6-1,3.2-.6.6-1.7,1-3.2,1ZM-2143.7,871.2h5.3c0-1,0-2,0-2.9,0-.9,0-1.8,0-2.5,0-.7,0-1.3,0-1.7,0-1-.2-1.6-.6-2.1-.4-.4-1-.6-1.9-.6s-1.6.2-2,.6-.6,1.1-.7,2.1c0,1.3,0,2.6,0,3.8,0,1.2,0,2.3,0,3.4Z"/>
        <path d="M-2132.7,884.2v-24h1.7v2.1h.4c.3-.8.6-1.3,1.1-1.7.5-.3,1.1-.4,1.9-.4h1.1v1.5h-1.1c-1,0-1.8.2-2.3.6-.5.4-.9,1.1-1.1,2v19.9h-1.7Z"/>
        <path d="M-2114.6,884.5c-1.2,0-2-.4-2.6-1.1-.6-.7-.9-1.7-1-3.1,0-.4,0-.7,0-1.1,0-.3,0-.7,0-1,0-.9.2-1.7.4-2.5s.5-1.5,1-2.1c.5-.6,1.2-1.3,2-1.8.5-.4,1.1-.7,1.7-1.1.6-.3,1.2-.7,1.8-1v-5.7c0-.9-.2-1.6-.5-2s-1-.6-1.9-.6-1.4.2-1.8.5c-.4.4-.6,1.1-.7,2.1,0,.3,0,.8,0,1.2,0,.5,0,.9,0,1.4,0,.5,0,1,0,1.4h-1.6c0-.6,0-1.3,0-2,0-.7,0-1.3,0-1.9,0-1,.2-1.8.5-2.4s.8-1.1,1.4-1.3c.6-.3,1.4-.4,2.4-.4s1.8.1,2.4.5c.6.3,1,.8,1.3,1.4.3.6.4,1.5.4,2.5v19.9h-1.7v-2h-.3c-.2.7-.6,1.2-1,1.6-.4.4-1.1.6-1.9.6ZM-2114.2,883.1c.7,0,1.3-.2,1.8-.6.5-.4.8-1.1,1.1-1.9v-9.1c-.4.2-.9.5-1.4.8s-1.1.7-1.8,1.2c-.8.6-1.3,1.3-1.6,2.1-.3.8-.4,1.7-.5,2.7,0,.2,0,.5,0,.9s0,.7,0,1.1c0,.9.3,1.6.7,2.1.4.5.9.7,1.6.7Z"/>
        <path d="M-2102.1,884.5c-1.1,0-2-.3-2.5-1-.5-.7-.8-1.7-.9-3.2,0-1.3,0-2.6,0-3.9s0-2.6,0-3.9,0-2.7,0-4.1,0-2.8,0-4.2c0-1.5.3-2.6.9-3.2.5-.6,1.4-1,2.5-1s1.5.2,2,.5c.5.4.9.9,1.3,1.7h.4v-10h1.7v32h-1.7v-2h-.4c-.3.7-.8,1.3-1.2,1.7-.5.4-1.1.6-2,.6ZM-2101.7,883.1c.8,0,1.5-.2,2-.6.5-.4.9-1.1,1.2-2v-16.4c-.3-.9-.7-1.6-1.2-2-.5-.4-1.2-.6-2-.6s-1.3.2-1.6.6c-.3.4-.5,1.1-.5,2.1,0,2,0,3.9,0,5.8s0,3.6,0,5.3,0,3.5,0,5.2c0,.9.2,1.6.5,2.1.3.4.8.6,1.6.6Z"/>
        <path d="M-2093.1,855.1v-2.8h3.7v2.8h-3.7ZM-2092.1,884.2v-24h1.7v24h-1.7Z"/>
        <path d="M-2085.8,892.2v-32h1.7v2h.4c.3-.8.7-1.4,1.2-1.7.5-.4,1.1-.5,2-.5s2,.3,2.5,1c.5.6.8,1.7.9,3.2,0,1,0,2.1,0,3.5,0,1.3,0,2.8,0,4.2s0,2.9,0,4.4c0,1.4,0,2.8,0,4,0,1.5-.3,2.6-.9,3.2s-1.4,1-2.5,1-1.4-.2-1.9-.5c-.5-.4-.9-.9-1.2-1.7h-.4v10h-1.7ZM-2081,883.1c.7,0,1.3-.2,1.6-.6.3-.4.5-1.1.5-2.1,0-1.7,0-3.2,0-4.6,0-1.4,0-2.8,0-4.1,0-1.3,0-2.6,0-3.8,0-1.2,0-2.5,0-3.8,0-1-.2-1.6-.5-2.1-.3-.4-.9-.6-1.6-.6s-1.5.2-2,.6c-.5.4-.9,1.1-1.2,2v16.4c.3.9.7,1.6,1.2,2,.5.4,1.1.6,2,.6Z"/>
        <path d="M-2073.8,855.1v-2.8h3.7v2.8h-3.7ZM-2072.8,884.2v-24h1.7v24h-1.7Z"/>
        <path d="M-2063.1,884.5c-1.5,0-2.5-.3-3.1-1s-.9-1.7-.9-3.2c0-.6,0-1.2,0-1.8s0-1.4,0-2.1h1.6c0,.8,0,1.5,0,2.2s0,1.3,0,1.9c0,1,.2,1.7.6,2.1s1,.6,1.9.6,1.6-.2,2-.6c.4-.4.6-1.1.6-2.1,0-.4,0-.8,0-1.2s0-.7,0-1.1,0-.7,0-1.1c0-1.2-.2-2-.4-2.6-.2-.6-.7-1-1.5-1.3l-1.6-.6c-.8-.3-1.5-.7-1.9-1.1-.5-.4-.8-1-.9-1.8-.2-.7-.3-1.7-.3-2.9,0-.5,0-.9,0-1.3,0-.4,0-.8,0-1.3,0-1.5.3-2.6.9-3.3s1.6-1,3.2-1,2.5.3,3.1,1c.6.7.9,1.7.9,3.2v1.8c0,.7,0,1.4,0,2.1h-1.6c0-.5,0-1,0-1.5v-1.4c0-.4,0-.8,0-1.2,0-1-.2-1.7-.5-2.1-.3-.4-1-.5-1.9-.5s-1.5.2-1.9.5c-.3.4-.5,1.1-.6,2.1,0,.5,0,1,0,1.3,0,.4,0,.8,0,1.3,0,1.1.1,2,.3,2.7s.7,1.2,1.5,1.5l1.6.5c1.1.4,1.9,1,2.5,1.8s.8,2,.8,3.7,0,1.1,0,1.6c0,.6,0,1.1,0,1.7,0,1.5-.4,2.6-1,3.2-.6.7-1.7,1-3.2,1Z"/>
        <path d="M-2048.4,868.1c0-.5,0-1,0-1.5s0-.9,0-1.4c0-.4,0-.8,0-1.2,0-1-.2-1.7-.6-2.1-.4-.4-1.1-.5-2-.5s-1.6.2-2,.5c-.4.4-.6,1.1-.6,2.1,0,1.6,0,3,0,4.3,0,1.3,0,2.6,0,3.8s0,2.5,0,3.8c0,1.3,0,2.7,0,4.3,0,1,.2,1.7.6,2.1.4.4,1.1.6,2,.6s1.6-.2,2-.6c.4-.4.6-1.1.6-2.1,0-.6,0-1.2,0-1.9s0-1.4,0-2.2h1.7c0,.7,0,1.4,0,2.1,0,.7,0,1.3,0,1.8,0,1.5-.4,2.6-1,3.2s-1.7,1-3.2,1-2.6-.3-3.2-1-1-1.7-1-3.2c0-1.3,0-2.6,0-3.9,0-1.3,0-2.7,0-4.1s0-2.7,0-4.1,0-2.7,0-3.9c0-1.5.4-2.6,1.1-3.3s1.7-1,3.2-1,2.6.3,3.3,1,1,1.7,1,3.2c0,.5,0,1.1,0,1.8s0,1.4,0,2.1h-1.7Z"/>
        <path d="M-2043.8,855.1v-2.8h3.7v2.8h-3.7ZM-2042.8,884.2v-24h1.7v24h-1.7Z"/>
        <path d="M-2036.4,884.2v-24h1.7v2h.4c.3-.7.7-1.3,1.3-1.7.5-.4,1.2-.6,1.9-.6,1.1,0,2,.3,2.5,1,.5.6.8,1.7.8,3.2v20.1h-1.7v-20.1c0-1-.2-1.7-.5-2.1-.3-.4-.9-.6-1.6-.6s-1.4.2-2,.7c-.6.5-1,1.1-1.2,2v20.2h-1.7Z"/>
        <path d="M-2019.1,890.3c-1.5,0-2.7-.2-3.6-.7-.9-.5-1.4-1.3-1.4-2.6,0-.1,0-.2,0-.3s0-.2,0-.4c0-.8.3-1.4.8-1.8s1-.7,1.6-.8v-.4c-.5-.2-.9-.5-1.2-.8-.3-.3-.4-.7-.5-1.2v-.5c0-.5.2-1,.5-1.4.3-.4.7-.6,1.1-.6v-.4c-.6-.3-1-.8-1.2-1.4-.3-.6-.4-1.4-.5-2.3,0-1,0-1.9,0-2.7,0-.8,0-1.5,0-2.3s0-1.5,0-2.4c0-.9,0-1.9,0-3,0-1,.2-1.8.5-2.5.3-.6.8-1.1,1.4-1.4.6-.3,1.4-.4,2.4-.4s2,.2,2.7.5c.6.3,1.1.9,1.3,1.7h.4c0-.6.2-1.1.6-1.5.4-.3.9-.5,1.5-.5v1.4h-.5c-.5,0-.9.3-1.2.8-.3.5-.5,1.3-.5,2.3v2c0,.7,0,1.4,0,2v1.8c0,.6,0,1.2,0,1.9,0,.6,0,1.4,0,2.2,0,1-.2,1.8-.5,2.4-.3.6-.8,1.1-1.4,1.3-.6.3-1.4.4-2.5.4-.9,0-1.6.1-2,.4-.5.3-.7.7-.7,1.4v.3c0,.4.1.7.3.9.2.2.5.4,1,.5.4.1,1,.2,1.7.2,1.6,0,2.8.3,3.7.8s1.3,1.4,1.4,2.7v.8c0,.9-.3,1.6-.7,2.2-.4.5-1.1.9-1.8,1.1s-1.6.3-2.6.3ZM-2019.1,888.9c.7,0,1.3,0,1.8-.2.5,0,.9-.3,1.2-.6s.5-.8.5-1.4v-.7c0-.6-.2-1.1-.5-1.4-.3-.3-.7-.5-1.2-.6-.5,0-1.1-.1-1.8-.2-1,0-1.8,0-2.4.3s-.9.9-1,1.8v.7c0,.6.2,1.1.5,1.4.3.3.7.5,1.2.6.5,0,1.1.1,1.7.1ZM-2019.2,877.4c.9,0,1.6-.2,2-.6.4-.4.6-1.1.7-2.1,0-.8,0-1.7,0-2.5,0-.9,0-1.8,0-2.7s0-1.8,0-2.7c0-.9,0-1.8,0-2.7,0-1-.3-1.7-.7-2.1-.4-.4-1.1-.6-2-.6s-1.6.2-2,.6c-.4.4-.6,1.1-.7,2.1,0,.9,0,1.8,0,2.7,0,.9,0,1.8,0,2.7s0,1.8,0,2.7c0,.9,0,1.7,0,2.5,0,1,.3,1.7.7,2.1.4.4,1.1.6,2,.6Z"/>
        <path d="M-1997.9,884.5c-1.5,0-2.6-.3-3.3-1s-1-1.7-1.1-3.2c0-1.3,0-2.6,0-3.9,0-1.3,0-2.7,0-4.1s0-2.7,0-4.1,0-2.7,0-3.9c0-1.5.4-2.6,1.1-3.3s1.8-1,3.3-1,2.5.3,3.1,1,1,1.7,1.1,3.2c0,.5,0,1.1,0,1.9,0,.8,0,1.8,0,2.9s0,2.3,0,3.7h-6.9c0,1.2,0,2.4,0,3.6,0,1.2,0,2.6,0,4.1,0,1,.2,1.7.6,2.1.4.4,1.1.6,2,.6s1.5-.2,1.9-.6.6-1.1.6-2.1c0-.5,0-1.2,0-1.8s0-1.4,0-2.2h1.7c0,.7,0,1.4,0,2.1,0,.7,0,1.3,0,1.8,0,1.5-.4,2.6-1,3.2-.6.6-1.7,1-3.2,1ZM-2000.7,871.2h5.3c0-1,0-2,0-2.9,0-.9,0-1.8,0-2.5,0-.7,0-1.3,0-1.7,0-1-.2-1.6-.6-2.1-.4-.4-1-.6-1.9-.6s-1.6.2-2,.6-.6,1.1-.7,2.1c0,1.3,0,2.6,0,3.8,0,1.2,0,2.3,0,3.4Z"/>
        <path d="M-1989.7,884.2v-32h1.7v32h-1.7Z"/>
        <path d="M-1984.4,855.1v-2.8h3.7v2.8h-3.7ZM-1983.4,884.2v-24h1.7v24h-1.7Z"/>
        <path d="M-1973.1,884.5c-1.5,0-2.5-.3-3.1-1-.5-.7-.8-1.7-.8-3.2v-18.6h-1.5v-1.4h1.5v-6.8h1.7v6.8h3.4v1.4h-3.5v18.7c0,1,.1,1.7.4,2.1s.9.6,1.8.6.7,0,.9,0c.2,0,.5,0,.8-.1v1.4c-.3,0-.5,0-.8.1-.3,0-.6,0-.9,0Z"/>
        <path d="M-1968.2,887.9l1.3-3.6h-2.2v-3h3.8v2.7l-1.5,3.9h-1.4Z"/>
        <path d="M-2563.3,932.5c-1.5,0-2.5-.3-3.1-1s-.9-1.7-.9-3.2c0-.6,0-1.2,0-1.8s0-1.4,0-2.1h1.6c0,.8,0,1.5,0,2.2s0,1.3,0,1.9c0,1,.2,1.7.6,2.1s1,.6,1.9.6,1.6-.2,2-.6c.4-.4.6-1.1.6-2.1,0-.4,0-.8,0-1.2s0-.7,0-1.1,0-.7,0-1.1c0-1.2-.2-2-.4-2.6-.2-.6-.7-1-1.5-1.3l-1.6-.6c-.8-.3-1.5-.7-1.9-1.1-.5-.4-.8-1-.9-1.8-.2-.7-.3-1.7-.3-2.9,0-.5,0-.9,0-1.3,0-.4,0-.8,0-1.3,0-1.5.3-2.6.9-3.3s1.6-1,3.2-1,2.5.3,3.1,1c.6.7.9,1.7.9,3.2v1.8c0,.7,0,1.4,0,2.1h-1.6c0-.5,0-1,0-1.5v-1.4c0-.4,0-.8,0-1.2,0-1-.2-1.7-.5-2.1-.3-.4-1-.5-1.9-.5s-1.5.2-1.9.5c-.3.4-.5,1.1-.6,2.1,0,.5,0,1,0,1.3,0,.4,0,.8,0,1.3,0,1.1.1,2,.3,2.7s.7,1.2,1.5,1.5l1.6.5c1.1.4,1.9,1,2.5,1.8s.8,2,.8,3.7,0,1.1,0,1.6c0,.6,0,1.1,0,1.7,0,1.5-.4,2.6-1,3.2-.6.7-1.7,1-3.2,1Z"/>
        <path d="M-2551.1,932.5c-1.5,0-2.6-.3-3.3-1s-1-1.7-1.1-3.2c0-1.3,0-2.6,0-3.9,0-1.3,0-2.7,0-4.1s0-2.7,0-4.1,0-2.7,0-3.9c0-1.5.4-2.6,1.1-3.3s1.8-1,3.3-1,2.5.3,3.1,1,1,1.7,1.1,3.2c0,.5,0,1.1,0,1.9,0,.8,0,1.8,0,2.9s0,2.3,0,3.7h-6.9c0,1.2,0,2.4,0,3.6,0,1.2,0,2.6,0,4.1,0,1,.2,1.7.6,2.1.4.4,1.1.6,2,.6s1.5-.2,1.9-.6.6-1.1.6-2.1c0-.5,0-1.2,0-1.8s0-1.4,0-2.2h1.7c0,.7,0,1.4,0,2.1,0,.7,0,1.3,0,1.8,0,1.5-.4,2.6-1,3.2-.6.6-1.7,1-3.2,1ZM-2553.8,919.2h5.3c0-1,0-2,0-2.9,0-.9,0-1.8,0-2.5,0-.7,0-1.3,0-1.7,0-1-.2-1.6-.6-2.1-.4-.4-1-.6-1.9-.6s-1.6.2-2,.6-.6,1.1-.7,2.1c0,1.3,0,2.6,0,3.8,0,1.2,0,2.3,0,3.4Z"/>
        <path d="M-2539.8,932.5c-1.1,0-2-.3-2.5-1-.5-.7-.8-1.7-.9-3.2,0-1.3,0-2.6,0-3.9s0-2.6,0-3.9,0-2.7,0-4.1,0-2.8,0-4.2c0-1.5.3-2.6.9-3.2.5-.6,1.4-1,2.5-1s1.5.2,2,.5c.5.4.9.9,1.3,1.7h.4v-10h1.7v32h-1.7v-2h-.4c-.3.7-.8,1.3-1.2,1.7-.5.4-1.1.6-2,.6ZM-2539.4,931.1c.8,0,1.5-.2,2-.6.5-.4.9-1.1,1.2-2v-16.4c-.3-.9-.7-1.6-1.2-2-.5-.4-1.2-.6-2-.6s-1.3.2-1.6.6c-.3.4-.5,1.1-.5,2.1,0,2,0,3.9,0,5.8s0,3.6,0,5.3,0,3.5,0,5.2c0,.9.2,1.6.5,2.1.3.4.8.6,1.6.6Z"/>
        <path d="M-2518.7,932.5c-1.1,0-2-.3-2.5-1-.5-.7-.8-1.7-.9-3.2,0-1.3,0-2.6,0-3.9s0-2.6,0-3.9,0-2.7,0-4.1,0-2.8,0-4.2c0-1.5.3-2.6.9-3.2.5-.6,1.4-1,2.5-1s1.5.2,2,.5c.5.4.9.9,1.3,1.7h.4v-10h1.7v32h-1.7v-2h-.4c-.3.7-.8,1.3-1.2,1.7-.5.4-1.1.6-2,.6ZM-2518.2,931.1c.8,0,1.5-.2,2-.6.5-.4.9-1.1,1.2-2v-16.4c-.3-.9-.7-1.6-1.2-2-.5-.4-1.2-.6-2-.6s-1.3.2-1.6.6c-.3.4-.5,1.1-.5,2.1,0,2,0,3.9,0,5.8s0,3.6,0,5.3,0,3.5,0,5.2c0,.9.2,1.6.5,2.1.3.4.8.6,1.6.6Z"/>
        <path d="M-2509.7,903.1v-2.8h3.7v2.8h-3.7ZM-2508.7,932.2v-24h1.7v24h-1.7Z"/>
        <path d="M-2499.5,932.5c-1.2,0-2-.4-2.6-1.1-.6-.7-.9-1.7-1-3.1,0-.4,0-.7,0-1.1,0-.3,0-.7,0-1,0-.9.2-1.7.4-2.5s.5-1.5,1-2.1c.5-.6,1.2-1.3,2-1.8.5-.4,1.1-.7,1.7-1.1.6-.3,1.2-.7,1.8-1v-5.7c0-.9-.2-1.6-.5-2s-1-.6-1.9-.6-1.4.2-1.8.5c-.4.4-.6,1.1-.7,2.1,0,.3,0,.8,0,1.2,0,.5,0,.9,0,1.4,0,.5,0,1,0,1.4h-1.6c0-.6,0-1.3,0-2,0-.7,0-1.3,0-1.9,0-1,.2-1.8.5-2.4s.8-1.1,1.4-1.3c.6-.3,1.4-.4,2.4-.4s1.8.1,2.4.5c.6.3,1,.8,1.3,1.4.3.6.4,1.5.4,2.5v19.9h-1.7v-2h-.3c-.2.7-.6,1.2-1,1.6-.4.4-1.1.6-1.9.6ZM-2499.1,931.1c.7,0,1.3-.2,1.8-.6.5-.4.8-1.1,1.1-1.9v-9.1c-.4.2-.9.5-1.4.8s-1.1.7-1.8,1.2c-.8.6-1.3,1.3-1.6,2.1-.3.8-.4,1.7-.5,2.7,0,.2,0,.5,0,.9s0,.7,0,1.1c0,.9.3,1.6.7,2.1.4.5.9.7,1.6.7Z"/>
        <path d="M-2490,932.2v-24h1.7v2h.4c.3-.8.8-1.4,1.3-1.7s1.2-.5,2-.5,1.6.2,2.1.5c.5.4.9,1,1.1,1.8h.4c.4-.8.8-1.4,1.3-1.8s1.2-.6,2.1-.6,2,.3,2.5,1c.5.6.8,1.7.8,3.2v20.1h-1.7v-20.1c0-1-.2-1.6-.5-2.1-.3-.4-.9-.6-1.6-.6s-1.5.2-2,.6c-.5.4-.9,1.1-1.2,2v20.2h-1.7v-20.1c0-1-.2-1.6-.5-2.1-.3-.4-.9-.6-1.6-.6s-1.5.2-2,.6c-.5.4-.9,1.1-1.2,2v20.2h-1.7Z"/>
        <path d="M-2461.6,932.2v-24h1.7v2h.4c.3-.7.7-1.3,1.3-1.7.5-.4,1.2-.6,1.9-.6,1.1,0,2,.3,2.5,1,.5.6.8,1.7.8,3.2v20.1h-1.7v-20.1c0-1-.2-1.7-.5-2.1-.3-.4-.9-.6-1.6-.6s-1.4.2-2,.7c-.6.5-1,1.1-1.2,2v20.2h-1.7Z"/>
        <path d="M-2444.4,932.5c-1,0-1.8-.2-2.5-.5s-1.1-.8-1.4-1.4-.5-1.5-.5-2.5c0-1.3,0-2.5,0-3.9,0-1.3,0-2.6,0-4s0-2.7,0-4c0-1.3,0-2.6,0-3.9,0-1.1.2-1.9.5-2.5s.7-1.1,1.4-1.4,1.4-.5,2.5-.5,1.9.2,2.5.5,1.1.8,1.4,1.4c.3.6.4,1.5.5,2.5,0,1.3,0,2.5,0,3.9,0,1.3,0,2.6,0,4s0,2.7,0,4c0,1.3,0,2.6,0,3.9,0,1-.2,1.9-.5,2.5-.3.6-.7,1.1-1.4,1.4s-1.4.5-2.5.5ZM-2444.4,931c.9,0,1.6-.2,2-.6.4-.4.6-1.1.7-2.1,0-1.6,0-3,0-4.3,0-1.3,0-2.6,0-3.8s0-2.5,0-3.8c0-1.3,0-2.7,0-4.3,0-1-.2-1.8-.6-2.1s-1-.6-2-.6-1.6.2-2,.6c-.4.4-.6,1.1-.6,2.1,0,1.5,0,3-.1,4.3,0,1.3,0,2.6,0,3.8s0,2.5,0,3.8c0,1.3,0,2.7.1,4.3,0,1,.3,1.7.7,2.1.4.4,1.1.6,2,.6Z"/>
        <path d="M-2435.7,932.2v-24h1.7v2h.4c.3-.7.7-1.3,1.3-1.7.5-.4,1.2-.6,1.9-.6,1.1,0,2,.3,2.5,1,.5.6.8,1.7.8,3.2v20.1h-1.7v-20.1c0-1-.2-1.7-.5-2.1-.3-.4-.9-.6-1.6-.6s-1.4.2-2,.7c-.6.5-1,1.1-1.2,2v20.2h-1.7Z"/>
        <path d="M-2419.3,932.5c-1.1,0-2-.3-2.5-1s-.8-1.7-.8-3.2v-20h1.7v20.1c0,.9.2,1.6.5,2.1.3.4.9.6,1.6.6s1.4-.2,2-.7,1-1.1,1.2-2v-20.2h1.7v24h-1.7v-2h-.4c-.3.7-.8,1.3-1.3,1.7s-1.2.6-1.9.6Z"/>
        <path d="M-2409.3,932.2v-24h1.7v2h.4c.3-.8.8-1.4,1.3-1.7s1.2-.5,2-.5,1.6.2,2.1.5c.5.4.9,1,1.1,1.8h.4c.4-.8.8-1.4,1.3-1.8s1.2-.6,2.1-.6,2,.3,2.5,1c.5.6.8,1.7.8,3.2v20.1h-1.7v-20.1c0-1-.2-1.6-.5-2.1-.3-.4-.9-.6-1.6-.6s-1.5.2-2,.6c-.5.4-.9,1.1-1.2,2v20.2h-1.7v-20.1c0-1-.2-1.6-.5-2.1-.3-.4-.9-.6-1.6-.6s-1.5.2-2,.6c-.5.4-.9,1.1-1.2,2v20.2h-1.7Z"/>
        <path d="M-2389.1,932.2v-24h1.7v2h.4c.3-.8.8-1.4,1.3-1.7s1.2-.5,2-.5,1.6.2,2.1.5c.5.4.9,1,1.1,1.8h.4c.4-.8.8-1.4,1.3-1.8s1.2-.6,2.1-.6,2,.3,2.5,1c.5.6.8,1.7.8,3.2v20.1h-1.7v-20.1c0-1-.2-1.6-.5-2.1-.3-.4-.9-.6-1.6-.6s-1.5.2-2,.6c-.5.4-.9,1.1-1.2,2v20.2h-1.7v-20.1c0-1-.2-1.6-.5-2.1-.3-.4-.9-.6-1.6-.6s-1.5.2-2,.6c-.5.4-.9,1.1-1.2,2v20.2h-1.7Z"/>
        <path d="M-2368.1,940.3c-.3,0-.7,0-1.2,0-.5,0-.9,0-1.2-.1v-1.4c.3,0,.6,0,1.1.1.4,0,.8,0,1.2,0,1,0,1.6-.2,1.9-.6.3-.4.5-1.1.7-2.1l.5-3.9h-2l-2.8-24h1.8l1.1,11.9,1.2,10.6h1l1.3-10.6,1.2-11.9h1.8l-3.4,27.8c-.1,1-.3,1.8-.6,2.4-.3.6-.7,1.1-1.3,1.4s-1.3.4-2.3.4Z"/>
        <path d="M-2350,932.2v-24h1.7v2h.4c.3-.7.7-1.3,1.3-1.7.5-.4,1.2-.6,1.9-.6,1.1,0,2,.3,2.5,1,.5.6.8,1.7.8,3.2v20.1h-1.7v-20.1c0-1-.2-1.7-.5-2.1-.3-.4-.9-.6-1.6-.6s-1.4.2-2,.7c-.6.5-1,1.1-1.2,2v20.2h-1.7Z"/>
        <path d="M-2337.8,903.1v-2.8h3.7v2.8h-3.7ZM-2336.8,932.2v-24h1.7v24h-1.7Z"/>
        <path d="M-2325.2,932.5c-.8,0-1.5-.2-2-.5-.5-.4-.9-.9-1.3-1.7h-.4v2h-1.7v-32h1.7v10h.4c.3-.8.8-1.4,1.2-1.7.5-.4,1.1-.5,2-.5s2,.3,2.5,1c.5.6.8,1.7.8,3.2,0,1.4,0,2.8,0,4.2,0,1.4,0,2.7,0,4.1s0,2.6,0,3.9c0,1.3,0,2.6,0,3.9,0,1.5-.3,2.6-.9,3.2s-1.4,1-2.5,1ZM-2325.5,931.1c.7,0,1.3-.2,1.6-.6.3-.4.5-1.1.5-2.1,0-1.3,0-2.6,0-3.9,0-1.3,0-2.6,0-3.9s0-2.7,0-4.1c0-1.4,0-2.9,0-4.4,0-1-.2-1.6-.5-2.1-.3-.4-.9-.6-1.6-.6s-1.5.2-2,.6c-.5.4-.9,1.1-1.2,2v16.4c.3.9.7,1.6,1.2,2,.5.4,1.2.6,2,.6Z"/>
        <path d="M-2317.5,932.2v-32h1.7v10h.4c.3-.8.8-1.4,1.2-1.7.5-.4,1.1-.5,2-.5s2,.3,2.5,1c.5.6.8,1.7.8,3.2v20.1h-1.7v-20.1c0-1-.2-1.7-.5-2.1-.3-.4-.9-.6-1.6-.6s-1.5.2-2,.6c-.5.4-.9,1.1-1.2,2v20.2h-1.7Z"/>
        <path d="M-2292.1,932.5c-1.5,0-2.6-.3-3.3-1s-1-1.7-1.1-3.2c0-1.3,0-2.6,0-3.9,0-1.3,0-2.7,0-4.1s0-2.7,0-4.1,0-2.7,0-3.9c0-1.5.4-2.6,1.1-3.3s1.8-1,3.3-1,2.5.3,3.1,1,1,1.7,1.1,3.2c0,.5,0,1.1,0,1.9,0,.8,0,1.8,0,2.9s0,2.3,0,3.7h-6.9c0,1.2,0,2.4,0,3.6,0,1.2,0,2.6,0,4.1,0,1,.2,1.7.6,2.1.4.4,1.1.6,2,.6s1.5-.2,1.9-.6.6-1.1.6-2.1c0-.5,0-1.2,0-1.8s0-1.4,0-2.2h1.7c0,.7,0,1.4,0,2.1,0,.7,0,1.3,0,1.8,0,1.5-.4,2.6-1,3.2-.6.6-1.7,1-3.2,1ZM-2294.8,919.2h5.3c0-1,0-2,0-2.9,0-.9,0-1.8,0-2.5,0-.7,0-1.3,0-1.7,0-1-.2-1.6-.6-2.1-.4-.4-1-.6-1.9-.6s-1.6.2-2,.6-.6,1.1-.7,2.1c0,1.3,0,2.6,0,3.8,0,1.2,0,2.3,0,3.4Z"/>
        <path d="M-2280.6,932.5c-1.1,0-2-.3-2.5-1s-.8-1.7-.8-3.2v-20h1.7v20.1c0,.9.2,1.6.5,2.1.3.4.9.6,1.6.6s1.4-.2,2-.7,1-1.1,1.2-2v-20.2h1.7v24h-1.7v-2h-.4c-.3.7-.8,1.3-1.3,1.7s-1.2.6-1.9.6Z"/>
        <path d="M-2271.6,903.1v-2.8h3.7v2.8h-3.7ZM-2270.6,932.2v-24h1.7v24h-1.7Z"/>
        <path d="M-2260.9,932.5c-1.5,0-2.5-.3-3.1-1s-.9-1.7-.9-3.2c0-.6,0-1.2,0-1.8s0-1.4,0-2.1h1.6c0,.8,0,1.5,0,2.2s0,1.3,0,1.9c0,1,.2,1.7.6,2.1s1,.6,1.9.6,1.6-.2,2-.6c.4-.4.6-1.1.6-2.1,0-.4,0-.8,0-1.2s0-.7,0-1.1,0-.7,0-1.1c0-1.2-.2-2-.4-2.6-.2-.6-.7-1-1.5-1.3l-1.6-.6c-.8-.3-1.5-.7-1.9-1.1-.5-.4-.8-1-.9-1.8-.2-.7-.3-1.7-.3-2.9,0-.5,0-.9,0-1.3,0-.4,0-.8,0-1.3,0-1.5.3-2.6.9-3.3s1.6-1,3.2-1,2.5.3,3.1,1c.6.7.9,1.7.9,3.2v1.8c0,.7,0,1.4,0,2.1h-1.6c0-.5,0-1,0-1.5v-1.4c0-.4,0-.8,0-1.2,0-1-.2-1.7-.5-2.1-.3-.4-1-.5-1.9-.5s-1.5.2-1.9.5c-.3.4-.5,1.1-.6,2.1,0,.5,0,1,0,1.3,0,.4,0,.8,0,1.3,0,1.1.1,2,.3,2.7s.7,1.2,1.5,1.5l1.6.5c1.1.4,1.9,1,2.5,1.8s.8,2,.8,3.7,0,1.1,0,1.6c0,.6,0,1.1,0,1.7,0,1.5-.4,2.6-1,3.2-.6.7-1.7,1-3.2,1Z"/>
        <path d="M-2252.7,932.2v-24h1.7v2h.4c.3-.8.8-1.4,1.3-1.7s1.2-.5,2-.5,1.6.2,2.1.5c.5.4.9,1,1.1,1.8h.4c.4-.8.8-1.4,1.3-1.8s1.2-.6,2.1-.6,2,.3,2.5,1c.5.6.8,1.7.8,3.2v20.1h-1.7v-20.1c0-1-.2-1.6-.5-2.1-.3-.4-.9-.6-1.6-.6s-1.5.2-2,.6c-.5.4-.9,1.1-1.2,2v20.2h-1.7v-20.1c0-1-.2-1.6-.5-2.1-.3-.4-.9-.6-1.6-.6s-1.5.2-2,.6c-.5.4-.9,1.1-1.2,2v20.2h-1.7Z"/>
        <path d="M-2228.5,932.5c-1,0-1.8-.2-2.5-.5s-1.1-.8-1.4-1.4-.5-1.5-.5-2.5c0-1.3,0-2.5,0-3.9,0-1.3,0-2.6,0-4s0-2.7,0-4c0-1.3,0-2.6,0-3.9,0-1.1.2-1.9.5-2.5s.7-1.1,1.4-1.4,1.4-.5,2.5-.5,1.9.2,2.5.5,1.1.8,1.4,1.4c.3.6.4,1.5.5,2.5,0,1.3,0,2.5,0,3.9,0,1.3,0,2.6,0,4s0,2.7,0,4c0,1.3,0,2.6,0,3.9,0,1-.2,1.9-.5,2.5-.3.6-.7,1.1-1.4,1.4s-1.4.5-2.5.5ZM-2228.5,931c.9,0,1.6-.2,2-.6.4-.4.6-1.1.7-2.1,0-1.6,0-3,0-4.3,0-1.3,0-2.6,0-3.8s0-2.5,0-3.8c0-1.3,0-2.7,0-4.3,0-1-.2-1.8-.6-2.1s-1-.6-2-.6-1.6.2-2,.6c-.4.4-.6,1.1-.6,2.1,0,1.5,0,3-.1,4.3,0,1.3,0,2.6,0,3.8s0,2.5,0,3.8c0,1.3,0,2.7.1,4.3,0,1,.3,1.7.7,2.1.4.4,1.1.6,2,.6Z"/>
        <path d="M-2216.8,932.5c-1.1,0-2-.3-2.5-1-.5-.7-.8-1.7-.9-3.2,0-1.3,0-2.6,0-3.9s0-2.6,0-3.9,0-2.7,0-4.1,0-2.8,0-4.2c0-1.5.3-2.6.9-3.2.5-.6,1.4-1,2.5-1s1.5.2,2,.5c.5.4.9.9,1.3,1.7h.4v-10h1.7v32h-1.7v-2h-.4c-.3.7-.8,1.3-1.2,1.7-.5.4-1.1.6-2,.6ZM-2216.4,931.1c.8,0,1.5-.2,2-.6.5-.4.9-1.1,1.2-2v-16.4c-.3-.9-.7-1.6-1.2-2-.5-.4-1.2-.6-2-.6s-1.3.2-1.6.6c-.3.4-.5,1.1-.5,2.1,0,2,0,3.9,0,5.8s0,3.6,0,5.3,0,3.5,0,5.2c0,.9.2,1.6.5,2.1.3.4.8.6,1.6.6Z"/>
        <path d="M-2195.5,932.5c-1.5,0-2.5-.3-3.1-1-.5-.7-.8-1.7-.8-3.2v-18.6h-1.5v-1.4h1.5v-6.8h1.7v6.8h3.4v1.4h-3.5v18.7c0,1,.1,1.7.4,2.1s.9.6,1.8.6.7,0,.9,0c.2,0,.5,0,.8-.1v1.4c-.3,0-.5,0-.8.1-.3,0-.6,0-.9,0Z"/>
        <path d="M-2192.2,903.1v-2.8h3.7v2.8h-3.7ZM-2191.2,932.2v-24h1.7v24h-1.7Z"/>
        <path d="M-2184.9,932.2v-24h1.7v2h.4c.3-.7.7-1.3,1.3-1.7.5-.4,1.2-.6,1.9-.6,1.1,0,2,.3,2.5,1,.5.6.8,1.7.8,3.2v20.1h-1.7v-20.1c0-1-.2-1.7-.5-2.1-.3-.4-.9-.6-1.6-.6s-1.4.2-2,.7c-.6.5-1,1.1-1.2,2v20.2h-1.7Z"/>
        <path d="M-2165.1,916.1c0-.5,0-1,0-1.5s0-.9,0-1.4c0-.4,0-.8,0-1.2,0-1-.2-1.7-.6-2.1-.4-.4-1.1-.5-2-.5s-1.6.2-2,.5c-.4.4-.6,1.1-.6,2.1,0,1.6,0,3,0,4.3,0,1.3,0,2.6,0,3.8s0,2.5,0,3.8c0,1.3,0,2.7,0,4.3,0,1,.2,1.7.6,2.1.4.4,1.1.6,2,.6s1.6-.2,2-.6c.4-.4.6-1.1.6-2.1,0-.6,0-1.2,0-1.9s0-1.4,0-2.2h1.7c0,.7,0,1.4,0,2.1,0,.7,0,1.3,0,1.8,0,1.5-.4,2.6-1,3.2s-1.7,1-3.2,1-2.6-.3-3.2-1-1-1.7-1-3.2c0-1.3,0-2.6,0-3.9,0-1.3,0-2.7,0-4.1s0-2.7,0-4.1,0-2.7,0-3.9c0-1.5.4-2.6,1.1-3.3s1.7-1,3.2-1,2.6.3,3.3,1,1,1.7,1,3.2c0,.5,0,1.1,0,1.8s0,1.4,0,2.1h-1.7Z"/>
        <path d="M-2160.5,903.1v-2.8h3.7v2.8h-3.7ZM-2159.5,932.2v-24h1.7v24h-1.7Z"/>
        <path d="M-2150.1,932.5c-1.1,0-2-.3-2.5-1-.5-.7-.8-1.7-.9-3.2,0-1.3,0-2.6,0-3.9s0-2.6,0-3.9,0-2.7,0-4.1,0-2.8,0-4.2c0-1.5.3-2.6.9-3.2.5-.6,1.4-1,2.5-1s1.5.2,2,.5c.5.4.9.9,1.3,1.7h.4v-10h1.7v32h-1.7v-2h-.4c-.3.7-.8,1.3-1.2,1.7-.5.4-1.1.6-2,.6ZM-2149.7,931.1c.8,0,1.5-.2,2-.6.5-.4.9-1.1,1.2-2v-16.4c-.3-.9-.7-1.6-1.2-2-.5-.4-1.2-.6-2-.6s-1.3.2-1.6.6c-.3.4-.5,1.1-.5,2.1,0,2,0,3.9,0,5.8s0,3.6,0,5.3,0,3.5,0,5.2c0,.9.2,1.6.5,2.1.3.4.8.6,1.6.6Z"/>
        <path d="M-2136.9,932.5c-1.1,0-2-.3-2.5-1s-.8-1.7-.8-3.2v-20h1.7v20.1c0,.9.2,1.6.5,2.1.3.4.9.6,1.6.6s1.4-.2,2-.7,1-1.1,1.2-2v-20.2h1.7v24h-1.7v-2h-.4c-.3.7-.8,1.3-1.3,1.7s-1.2.6-1.9.6Z"/>
        <path d="M-2127,932.2v-24h1.7v2h.4c.3-.7.7-1.3,1.3-1.7.5-.4,1.2-.6,1.9-.6,1.1,0,2,.3,2.5,1,.5.6.8,1.7.8,3.2v20.1h-1.7v-20.1c0-1-.2-1.7-.5-2.1-.3-.4-.9-.6-1.6-.6s-1.4.2-2,.7c-.6.5-1,1.1-1.2,2v20.2h-1.7Z"/>
        <path d="M-2109.7,932.5c-1.5,0-2.5-.3-3.1-1-.5-.7-.8-1.7-.8-3.2v-18.6h-1.5v-1.4h1.5v-6.8h1.7v6.8h3.4v1.4h-3.5v18.7c0,1,.1,1.7.4,2.1s.9.6,1.8.6.7,0,.9,0c.2,0,.5,0,.8-.1v1.4c-.3,0-.5,0-.8.1-.3,0-.6,0-.9,0Z"/>
        <path d="M-2095.7,932.5c-1.1,0-2-.3-2.5-1s-.8-1.7-.8-3.2v-20h1.7v20.1c0,.9.2,1.6.5,2.1.3.4.9.6,1.6.6s1.4-.2,2-.7,1-1.1,1.2-2v-20.2h1.7v24h-1.7v-2h-.4c-.3.7-.8,1.3-1.3,1.7s-1.2.6-1.9.6Z"/>
        <path d="M-2081.7,932.5c-1.5,0-2.5-.3-3.1-1-.5-.7-.8-1.7-.8-3.2v-18.6h-1.5v-1.4h1.5v-6.8h1.7v6.8h3.4v1.4h-3.5v18.7c0,1,.1,1.7.4,2.1s.9.6,1.8.6.7,0,.9,0c.2,0,.5,0,.8-.1v1.4c-.3,0-.5,0-.8.1-.3,0-.6,0-.9,0Z"/>
        <path d="M-2070.9,932.2v-32h1.7v32h-1.7Z"/>
        <path d="M-2061.7,932.5c-1.2,0-2-.4-2.6-1.1-.6-.7-.9-1.7-1-3.1,0-.4,0-.7,0-1.1,0-.3,0-.7,0-1,0-.9.2-1.7.4-2.5s.5-1.5,1-2.1c.5-.6,1.2-1.3,2-1.8.5-.4,1.1-.7,1.7-1.1.6-.3,1.2-.7,1.8-1v-5.7c0-.9-.2-1.6-.5-2s-1-.6-1.9-.6-1.4.2-1.8.5c-.4.4-.6,1.1-.7,2.1,0,.3,0,.8,0,1.2,0,.5,0,.9,0,1.4,0,.5,0,1,0,1.4h-1.6c0-.6,0-1.3,0-2,0-.7,0-1.3,0-1.9,0-1,.2-1.8.5-2.4s.8-1.1,1.4-1.3c.6-.3,1.4-.4,2.4-.4s1.8.1,2.4.5c.6.3,1,.8,1.3,1.4.3.6.4,1.5.4,2.5v19.9h-1.7v-2h-.3c-.2.7-.6,1.2-1,1.6-.4.4-1.1.6-1.9.6ZM-2061.3,931.1c.7,0,1.3-.2,1.8-.6.5-.4.8-1.1,1.1-1.9v-9.1c-.4.2-.9.5-1.4.8s-1.1.7-1.8,1.2c-.8.6-1.3,1.3-1.6,2.1-.3.8-.4,1.7-.5,2.7,0,.2,0,.5,0,.9s0,.7,0,1.1c0,.9.3,1.6.7,2.1.4.5.9.7,1.6.7Z"/>
        <path d="M-2048.2,932.5c-1,0-1.8-.2-2.5-.5s-1.1-.8-1.4-1.4-.5-1.5-.5-2.5c0-1.3,0-2.5,0-3.9,0-1.3,0-2.6,0-4s0-2.7,0-4c0-1.3,0-2.6,0-3.9,0-1.1.2-1.9.5-2.5s.7-1.1,1.4-1.4,1.4-.5,2.5-.5,1.9.2,2.5.5,1.1.8,1.4,1.4c.3.6.4,1.5.5,2.5,0,1.3,0,2.5,0,3.9,0,1.3,0,2.6,0,4s0,2.7,0,4c0,1.3,0,2.6,0,3.9,0,1-.2,1.9-.5,2.5-.3.6-.7,1.1-1.4,1.4s-1.4.5-2.5.5ZM-2048.2,931c.9,0,1.6-.2,2-.6.4-.4.6-1.1.7-2.1,0-1.6,0-3,0-4.3,0-1.3,0-2.6,0-3.8s0-2.5,0-3.8c0-1.3,0-2.7,0-4.3,0-1-.2-1.8-.6-2.1s-1-.6-2-.6-1.6.2-2,.6c-.4.4-.6,1.1-.6,2.1,0,1.5,0,3-.1,4.3,0,1.3,0,2.6,0,3.8s0,2.5,0,3.8c0,1.3,0,2.7.1,4.3,0,1,.3,1.7.7,2.1.4.4,1.1.6,2,.6Z"/>
        <path d="M-2039.5,932.2v-24h1.7v2.1h.4c.3-.8.6-1.3,1.1-1.7.5-.3,1.1-.4,1.9-.4h1.1v1.5h-1.1c-1,0-1.8.2-2.3.6-.5.4-.9,1.1-1.1,2v19.9h-1.7Z"/>
        <path d="M-2027.2,932.5c-1.5,0-2.6-.3-3.3-1s-1-1.7-1.1-3.2c0-1.3,0-2.6,0-3.9,0-1.3,0-2.7,0-4.1s0-2.7,0-4.1,0-2.7,0-3.9c0-1.5.4-2.6,1.1-3.3s1.8-1,3.3-1,2.5.3,3.1,1,1,1.7,1.1,3.2c0,.5,0,1.1,0,1.9,0,.8,0,1.8,0,2.9s0,2.3,0,3.7h-6.9c0,1.2,0,2.4,0,3.6,0,1.2,0,2.6,0,4.1,0,1,.2,1.7.6,2.1.4.4,1.1.6,2,.6s1.5-.2,1.9-.6.6-1.1.6-2.1c0-.5,0-1.2,0-1.8s0-1.4,0-2.2h1.7c0,.7,0,1.4,0,2.1,0,.7,0,1.3,0,1.8,0,1.5-.4,2.6-1,3.2-.6.6-1.7,1-3.2,1ZM-2029.9,919.2h5.3c0-1,0-2,0-2.9,0-.9,0-1.8,0-2.5,0-.7,0-1.3,0-1.7,0-1-.2-1.6-.6-2.1-.4-.4-1-.6-1.9-.6s-1.6.2-2,.6-.6,1.1-.7,2.1c0,1.3,0,2.6,0,3.8,0,1.2,0,2.3,0,3.4Z"/>
        <path d="M-2014.9,932.5c-1.5,0-2.6-.3-3.3-1s-1-1.7-1.1-3.2c0-1.3,0-2.6,0-3.9,0-1.3,0-2.7,0-4.1s0-2.7,0-4.1,0-2.7,0-3.9c0-1.5.4-2.6,1.1-3.3s1.8-1,3.3-1,2.5.3,3.1,1,1,1.7,1.1,3.2c0,.5,0,1.1,0,1.9,0,.8,0,1.8,0,2.9s0,2.3,0,3.7h-6.9c0,1.2,0,2.4,0,3.6,0,1.2,0,2.6,0,4.1,0,1,.2,1.7.6,2.1.4.4,1.1.6,2,.6s1.5-.2,1.9-.6.6-1.1.6-2.1c0-.5,0-1.2,0-1.8s0-1.4,0-2.2h1.7c0,.7,0,1.4,0,2.1,0,.7,0,1.3,0,1.8,0,1.5-.4,2.6-1,3.2-.6.6-1.7,1-3.2,1ZM-2017.6,919.2h5.3c0-1,0-2,0-2.9,0-.9,0-1.8,0-2.5,0-.7,0-1.3,0-1.7,0-1-.2-1.6-.6-2.1-.4-.4-1-.6-1.9-.6s-1.6.2-2,.6-.6,1.1-.7,2.1c0,1.3,0,2.6,0,3.8,0,1.2,0,2.3,0,3.4Z"/>
        <path d="M-2002.6,932.5c-1.5,0-2.5-.3-3.1-1-.5-.7-.8-1.7-.8-3.2v-18.6h-1.5v-1.4h1.5v-6.8h1.7v6.8h3.4v1.4h-3.5v18.7c0,1,.1,1.7.4,2.1s.9.6,1.8.6.7,0,.9,0c.2,0,.5,0,.8-.1v1.4c-.3,0-.5,0-.8.1-.3,0-.6,0-.9,0Z"/>
        <path d="M-2563.6,980.5c-1.1,0-2-.3-2.5-1-.5-.7-.8-1.7-.9-3.2,0-1.3,0-2.6,0-3.9s0-2.6,0-3.9,0-2.7,0-4.1,0-2.8,0-4.2c0-1.5.3-2.6.9-3.2.5-.6,1.4-1,2.5-1s1.5.2,2,.5c.5.4.9.9,1.3,1.7h.4v-10h1.7v32h-1.7v-2h-.4c-.3.7-.8,1.3-1.2,1.7-.5.4-1.1.6-2,.6ZM-2563.2,979.1c.8,0,1.5-.2,2-.6.5-.4.9-1.1,1.2-2v-16.4c-.3-.9-.7-1.6-1.2-2-.5-.4-1.2-.6-2-.6s-1.3.2-1.6.6c-.3.4-.5,1.1-.5,2.1,0,2,0,3.9,0,5.8s0,3.6,0,5.3,0,3.5,0,5.2c0,.9.2,1.6.5,2.1.3.4.8.6,1.6.6Z"/>
        <path d="M-2549.8,980.5c-1,0-1.8-.2-2.5-.5s-1.1-.8-1.4-1.4-.5-1.5-.5-2.5c0-1.3,0-2.5,0-3.9,0-1.3,0-2.6,0-4s0-2.7,0-4c0-1.3,0-2.6,0-3.9,0-1.1.2-1.9.5-2.5s.7-1.1,1.4-1.4,1.4-.5,2.5-.5,1.9.2,2.5.5,1.1.8,1.4,1.4c.3.6.4,1.5.5,2.5,0,1.3,0,2.5,0,3.9,0,1.3,0,2.6,0,4s0,2.7,0,4c0,1.3,0,2.6,0,3.9,0,1-.2,1.9-.5,2.5-.3.6-.7,1.1-1.4,1.4s-1.4.5-2.5.5ZM-2549.8,979c.9,0,1.6-.2,2-.6.4-.4.6-1.1.7-2.1,0-1.6,0-3,0-4.3,0-1.3,0-2.6,0-3.8s0-2.5,0-3.8c0-1.3,0-2.7,0-4.3,0-1-.2-1.8-.6-2.1s-1-.6-2-.6-1.6.2-2,.6c-.4.4-.6,1.1-.6,2.1,0,1.5,0,3-.1,4.3,0,1.3,0,2.6,0,3.8s0,2.5,0,3.8c0,1.3,0,2.7.1,4.3,0,1,.3,1.7.7,2.1.4.4,1.1.6,2,.6Z"/>
        <path d="M-2541.1,980.2v-32h1.7v32h-1.7Z"/>
        <path d="M-2530.9,980.5c-1,0-1.8-.2-2.5-.5s-1.1-.8-1.4-1.4-.5-1.5-.5-2.5c0-1.3,0-2.5,0-3.9,0-1.3,0-2.6,0-4s0-2.7,0-4c0-1.3,0-2.6,0-3.9,0-1.1.2-1.9.5-2.5s.7-1.1,1.4-1.4,1.4-.5,2.5-.5,1.9.2,2.5.5,1.1.8,1.4,1.4c.3.6.4,1.5.5,2.5,0,1.3,0,2.5,0,3.9,0,1.3,0,2.6,0,4s0,2.7,0,4c0,1.3,0,2.6,0,3.9,0,1-.2,1.9-.5,2.5-.3.6-.7,1.1-1.4,1.4s-1.4.5-2.5.5ZM-2530.9,979c.9,0,1.6-.2,2-.6.4-.4.6-1.1.7-2.1,0-1.6,0-3,0-4.3,0-1.3,0-2.6,0-3.8s0-2.5,0-3.8c0-1.3,0-2.7,0-4.3,0-1-.2-1.8-.6-2.1s-1-.6-2-.6-1.6.2-2,.6c-.4.4-.6,1.1-.6,2.1,0,1.5,0,3-.1,4.3,0,1.3,0,2.6,0,3.8s0,2.5,0,3.8c0,1.3,0,2.7.1,4.3,0,1,.3,1.7.7,2.1.4.4,1.1.6,2,.6Z"/>
        <path d="M-2522.2,980.2v-24h1.7v2.1h.4c.3-.8.6-1.3,1.1-1.7.5-.3,1.1-.4,1.9-.4h1.1v1.5h-1.1c-1,0-1.8.2-2.3.6-.5.4-.9,1.1-1.1,2v19.9h-1.7Z"/>
        <path d="M-2509.9,980.5c-1.5,0-2.6-.3-3.3-1s-1-1.7-1.1-3.2c0-1.3,0-2.6,0-3.9,0-1.3,0-2.7,0-4.1s0-2.7,0-4.1,0-2.7,0-3.9c0-1.5.4-2.6,1.1-3.3s1.8-1,3.3-1,2.5.3,3.1,1,1,1.7,1.1,3.2c0,.5,0,1.1,0,1.9,0,.8,0,1.8,0,2.9s0,2.3,0,3.7h-6.9c0,1.2,0,2.4,0,3.6,0,1.2,0,2.6,0,4.1,0,1,.2,1.7.6,2.1.4.4,1.1.6,2,.6s1.5-.2,1.9-.6.6-1.1.6-2.1c0-.5,0-1.2,0-1.8s0-1.4,0-2.2h1.7c0,.7,0,1.4,0,2.1,0,.7,0,1.3,0,1.8,0,1.5-.4,2.6-1,3.2-.6.6-1.7,1-3.2,1ZM-2512.6,967.2h5.3c0-1,0-2,0-2.9,0-.9,0-1.8,0-2.5,0-.7,0-1.3,0-1.7,0-1-.2-1.6-.6-2.1-.4-.4-1-.6-1.9-.6s-1.6.2-2,.6-.6,1.1-.7,2.1c0,1.3,0,2.6,0,3.8,0,1.2,0,2.3,0,3.4Z"/>
        <path d="M-2493.5,980.2v-24h1.7v2h.4c.3-.8.8-1.4,1.3-1.7s1.2-.5,2-.5,1.6.2,2.1.5c.5.4.9,1,1.1,1.8h.4c.4-.8.8-1.4,1.3-1.8s1.2-.6,2.1-.6,2,.3,2.5,1c.5.6.8,1.7.8,3.2v20.1h-1.7v-20.1c0-1-.2-1.6-.5-2.1-.3-.4-.9-.6-1.6-.6s-1.5.2-2,.6c-.5.4-.9,1.1-1.2,2v20.2h-1.7v-20.1c0-1-.2-1.6-.5-2.1-.3-.4-.9-.6-1.6-.6s-1.5.2-2,.6c-.5.4-.9,1.1-1.2,2v20.2h-1.7Z"/>
        <path d="M-2470.4,980.5c-1.2,0-2-.4-2.6-1.1-.6-.7-.9-1.7-1-3.1,0-.4,0-.7,0-1.1,0-.3,0-.7,0-1,0-.9.2-1.7.4-2.5s.5-1.5,1-2.1c.5-.6,1.2-1.3,2-1.8.5-.4,1.1-.7,1.7-1.1.6-.3,1.2-.7,1.8-1v-5.7c0-.9-.2-1.6-.5-2s-1-.6-1.9-.6-1.4.2-1.8.5c-.4.4-.6,1.1-.7,2.1,0,.3,0,.8,0,1.2,0,.5,0,.9,0,1.4,0,.5,0,1,0,1.4h-1.6c0-.6,0-1.3,0-2,0-.7,0-1.3,0-1.9,0-1,.2-1.8.5-2.4s.8-1.1,1.4-1.3c.6-.3,1.4-.4,2.4-.4s1.8.1,2.4.5c.6.3,1,.8,1.3,1.4.3.6.4,1.5.4,2.5v19.9h-1.7v-2h-.3c-.2.7-.6,1.2-1,1.6-.4.4-1.1.6-1.9.6ZM-2470,979.1c.7,0,1.3-.2,1.8-.6.5-.4.8-1.1,1.1-1.9v-9.1c-.4.2-.9.5-1.4.8s-1.1.7-1.8,1.2c-.8.6-1.3,1.3-1.6,2.1-.3.8-.4,1.7-.5,2.7,0,.2,0,.5,0,.9s0,.7,0,1.1c0,.9.3,1.6.7,2.1.4.5.9.7,1.6.7Z"/>
        <path d="M-2456.8,986.3c-1.5,0-2.7-.2-3.6-.7-.9-.5-1.4-1.3-1.4-2.6,0-.1,0-.2,0-.3s0-.2,0-.4c0-.8.3-1.4.8-1.8s1-.7,1.6-.8v-.4c-.5-.2-.9-.5-1.2-.8-.3-.3-.4-.7-.5-1.2v-.5c0-.5.2-1,.5-1.4.3-.4.7-.6,1.1-.6v-.4c-.6-.3-1-.8-1.2-1.4-.3-.6-.4-1.4-.5-2.3,0-1,0-1.9,0-2.7,0-.8,0-1.5,0-2.3s0-1.5,0-2.4c0-.9,0-1.9,0-3,0-1,.2-1.8.5-2.5.3-.6.8-1.1,1.4-1.4.6-.3,1.4-.4,2.4-.4s2,.2,2.7.5c.6.3,1.1.9,1.3,1.7h.4c0-.6.2-1.1.6-1.5.4-.3.9-.5,1.5-.5v1.4h-.5c-.5,0-.9.3-1.2.8-.3.5-.5,1.3-.5,2.3v2c0,.7,0,1.4,0,2v1.8c0,.6,0,1.2,0,1.9,0,.6,0,1.4,0,2.2,0,1-.2,1.8-.5,2.4-.3.6-.8,1.1-1.4,1.3-.6.3-1.4.4-2.5.4-.9,0-1.6.1-2,.4-.5.3-.7.7-.7,1.4v.3c0,.4.1.7.3.9.2.2.5.4,1,.5.4.1,1,.2,1.7.2,1.6,0,2.8.3,3.7.8s1.3,1.4,1.4,2.7v.8c0,.9-.3,1.6-.7,2.2-.4.5-1.1.9-1.8,1.1s-1.6.3-2.6.3ZM-2456.8,984.9c.7,0,1.3,0,1.8-.2.5,0,.9-.3,1.2-.6s.5-.8.5-1.4v-.7c0-.6-.2-1.1-.5-1.4-.3-.3-.7-.5-1.2-.6-.5,0-1.1-.1-1.8-.2-1,0-1.8,0-2.4.3s-.9.9-1,1.8v.7c0,.6.2,1.1.5,1.4.3.3.7.5,1.2.6.5,0,1.1.1,1.7.1ZM-2456.9,973.4c.9,0,1.6-.2,2-.6.4-.4.6-1.1.7-2.1,0-.8,0-1.7,0-2.5,0-.9,0-1.8,0-2.7s0-1.8,0-2.7c0-.9,0-1.8,0-2.7,0-1-.3-1.7-.7-2.1-.4-.4-1.1-.6-2-.6s-1.6.2-2,.6c-.4.4-.6,1.1-.7,2.1,0,.9,0,1.8,0,2.7,0,.9,0,1.8,0,2.7s0,1.8,0,2.7c0,.9,0,1.7,0,2.5,0,1,.3,1.7.7,2.1.4.4,1.1.6,2,.6Z"/>
        <path d="M-2447.8,980.2v-24h1.7v2h.4c.3-.7.7-1.3,1.3-1.7.5-.4,1.2-.6,1.9-.6,1.1,0,2,.3,2.5,1,.5.6.8,1.7.8,3.2v20.1h-1.7v-20.1c0-1-.2-1.7-.5-2.1-.3-.4-.9-.6-1.6-.6s-1.4.2-2,.7c-.6.5-1,1.1-1.2,2v20.2h-1.7Z"/>
        <path d="M-2431.7,980.5c-1.2,0-2-.4-2.6-1.1-.6-.7-.9-1.7-1-3.1,0-.4,0-.7,0-1.1,0-.3,0-.7,0-1,0-.9.2-1.7.4-2.5s.5-1.5,1-2.1c.5-.6,1.2-1.3,2-1.8.5-.4,1.1-.7,1.7-1.1.6-.3,1.2-.7,1.8-1v-5.7c0-.9-.2-1.6-.5-2s-1-.6-1.9-.6-1.4.2-1.8.5c-.4.4-.6,1.1-.7,2.1,0,.3,0,.8,0,1.2,0,.5,0,.9,0,1.4,0,.5,0,1,0,1.4h-1.6c0-.6,0-1.3,0-2,0-.7,0-1.3,0-1.9,0-1,.2-1.8.5-2.4s.8-1.1,1.4-1.3c.6-.3,1.4-.4,2.4-.4s1.8.1,2.4.5c.6.3,1,.8,1.3,1.4.3.6.4,1.5.4,2.5v19.9h-1.7v-2h-.3c-.2.7-.6,1.2-1,1.6-.4.4-1.1.6-1.9.6ZM-2431.3,979.1c.7,0,1.3-.2,1.8-.6.5-.4.8-1.1,1.1-1.9v-9.1c-.4.2-.9.5-1.4.8s-1.1.7-1.8,1.2c-.8.6-1.3,1.3-1.6,2.1-.3.8-.4,1.7-.5,2.7,0,.2,0,.5,0,.9s0,.7,0,1.1c0,.9.3,1.6.7,2.1.4.5.9.7,1.6.7Z"/>
        <path d="M-2411.2,980.5c-1.2,0-2-.4-2.6-1.1-.6-.7-.9-1.7-1-3.1,0-.4,0-.7,0-1.1,0-.3,0-.7,0-1,0-.9.2-1.7.4-2.5s.5-1.5,1-2.1c.5-.6,1.2-1.3,2-1.8.5-.4,1.1-.7,1.7-1.1.6-.3,1.2-.7,1.8-1v-5.7c0-.9-.2-1.6-.5-2s-1-.6-1.9-.6-1.4.2-1.8.5c-.4.4-.6,1.1-.7,2.1,0,.3,0,.8,0,1.2,0,.5,0,.9,0,1.4,0,.5,0,1,0,1.4h-1.6c0-.6,0-1.3,0-2,0-.7,0-1.3,0-1.9,0-1,.2-1.8.5-2.4s.8-1.1,1.4-1.3c.6-.3,1.4-.4,2.4-.4s1.8.1,2.4.5c.6.3,1,.8,1.3,1.4.3.6.4,1.5.4,2.5v19.9h-1.7v-2h-.3c-.2.7-.6,1.2-1,1.6-.4.4-1.1.6-1.9.6ZM-2410.8,979.1c.7,0,1.3-.2,1.8-.6.5-.4.8-1.1,1.1-1.9v-9.1c-.4.2-.9.5-1.4.8s-1.1.7-1.8,1.2c-.8.6-1.3,1.3-1.6,2.1-.3.8-.4,1.7-.5,2.7,0,.2,0,.5,0,.9s0,.7,0,1.1c0,.9.3,1.6.7,2.1.4.5.9.7,1.6.7Z"/>
        <path d="M-2401.7,980.2v-32h1.7v32h-1.7Z"/>
        <path d="M-2396.4,951.1v-2.8h3.7v2.8h-3.7ZM-2395.4,980.2v-24h1.7v24h-1.7Z"/>
        <path d="M-2382.4,988.2v-10h-.4c-.3.8-.8,1.4-1.2,1.7-.5.4-1.1.5-1.9.5-1.1,0-2-.3-2.5-1-.6-.7-.9-1.7-.9-3.2,0-1,0-2.1,0-3.4,0-1.3,0-2.7,0-4.2s0-3,0-4.4,0-2.8,0-4c0-1.5.3-2.6.9-3.2.5-.6,1.4-1,2.5-1s1.5.2,2,.5.9.9,1.2,1.7h.4v-2h1.7v32h-1.7ZM-2385.5,979.1c.8,0,1.5-.2,2-.6.5-.4.9-1.1,1.2-2v-16.4c-.3-.9-.7-1.6-1.2-2-.5-.4-1.2-.6-2-.6s-1.3.2-1.6.6c-.3.4-.5,1.1-.5,2.1,0,2.1,0,4.1,0,5.9,0,1.8,0,3.5,0,5.2,0,1.7,0,3.4.1,5.1,0,.9.2,1.6.6,2.1.3.4.9.6,1.6.6Z"/>
        <path d="M-2372.8,980.5c-1.1,0-2-.3-2.5-1s-.8-1.7-.8-3.2v-20h1.7v20.1c0,.9.2,1.6.5,2.1.3.4.9.6,1.6.6s1.4-.2,2-.7,1-1.1,1.2-2v-20.2h1.7v24h-1.7v-2h-.4c-.3.7-.8,1.3-1.3,1.7s-1.2.6-1.9.6Z"/>
        <path d="M-2360,980.5c-1.2,0-2-.4-2.6-1.1-.6-.7-.9-1.7-1-3.1,0-.4,0-.7,0-1.1,0-.3,0-.7,0-1,0-.9.2-1.7.4-2.5s.5-1.5,1-2.1c.5-.6,1.2-1.3,2-1.8.5-.4,1.1-.7,1.7-1.1.6-.3,1.2-.7,1.8-1v-5.7c0-.9-.2-1.6-.5-2s-1-.6-1.9-.6-1.4.2-1.8.5c-.4.4-.6,1.1-.7,2.1,0,.3,0,.8,0,1.2,0,.5,0,.9,0,1.4,0,.5,0,1,0,1.4h-1.6c0-.6,0-1.3,0-2,0-.7,0-1.3,0-1.9,0-1,.2-1.8.5-2.4s.8-1.1,1.4-1.3c.6-.3,1.4-.4,2.4-.4s1.8.1,2.4.5c.6.3,1,.8,1.3,1.4.3.6.4,1.5.4,2.5v19.9h-1.7v-2h-.3c-.2.7-.6,1.2-1,1.6-.4.4-1.1.6-1.9.6ZM-2359.6,979.1c.7,0,1.3-.2,1.8-.6.5-.4.8-1.1,1.1-1.9v-9.1c-.4.2-.9.5-1.4.8s-1.1.7-1.8,1.2c-.8.6-1.3,1.3-1.6,2.1-.3.8-.4,1.7-.5,2.7,0,.2,0,.5,0,.9s0,.7,0,1.1c0,.9.3,1.6.7,2.1.4.5.9.7,1.6.7Z"/>
        <path d="M-2350.5,980.2v-24h1.7v2h.4c.3-.8.8-1.4,1.3-1.7s1.2-.5,2-.5,1.6.2,2.1.5c.5.4.9,1,1.1,1.8h.4c.4-.8.8-1.4,1.3-1.8s1.2-.6,2.1-.6,2,.3,2.5,1c.5.6.8,1.7.8,3.2v20.1h-1.7v-20.1c0-1-.2-1.6-.5-2.1-.3-.4-.9-.6-1.6-.6s-1.5.2-2,.6c-.5.4-.9,1.1-1.2,2v20.2h-1.7v-20.1c0-1-.2-1.6-.5-2.1-.3-.4-.9-.6-1.6-.6s-1.5.2-2,.6c-.5.4-.9,1.1-1.2,2v20.2h-1.7Z"/>
        <path d="M-2318.1,980.5c-1.5,0-2.6-.3-3.3-1s-1-1.7-1.1-3.2c0-1.3,0-2.6,0-3.9,0-1.3,0-2.7,0-4.1s0-2.7,0-4.1,0-2.7,0-3.9c0-1.5.4-2.6,1.1-3.3s1.8-1,3.3-1,2.5.3,3.1,1,1,1.7,1.1,3.2c0,.5,0,1.1,0,1.9,0,.8,0,1.8,0,2.9s0,2.3,0,3.7h-6.9c0,1.2,0,2.4,0,3.6,0,1.2,0,2.6,0,4.1,0,1,.2,1.7.6,2.1.4.4,1.1.6,2,.6s1.5-.2,1.9-.6.6-1.1.6-2.1c0-.5,0-1.2,0-1.8s0-1.4,0-2.2h1.7c0,.7,0,1.4,0,2.1,0,.7,0,1.3,0,1.8,0,1.5-.4,2.6-1,3.2-.6.6-1.7,1-3.2,1ZM-2320.9,967.2h5.3c0-1,0-2,0-2.9,0-.9,0-1.8,0-2.5,0-.7,0-1.3,0-1.7,0-1-.2-1.6-.6-2.1-.4-.4-1-.6-1.9-.6s-1.6.2-2,.6-.6,1.1-.7,2.1c0,1.3,0,2.6,0,3.8,0,1.2,0,2.3,0,3.4Z"/>
        <path d="M-2309.9,980.2v-24h1.7v2.1h.4c.3-.8.6-1.3,1.1-1.7.5-.3,1.1-.4,1.9-.4h1.1v1.5h-1.1c-1,0-1.8.2-2.3.6-.5.4-.9,1.1-1.1,2v19.9h-1.7Z"/>
        <path d="M-2298.9,980.5c-1.2,0-2-.4-2.6-1.1-.6-.7-.9-1.7-1-3.1,0-.4,0-.7,0-1.1,0-.3,0-.7,0-1,0-.9.2-1.7.4-2.5s.5-1.5,1-2.1c.5-.6,1.2-1.3,2-1.8.5-.4,1.1-.7,1.7-1.1.6-.3,1.2-.7,1.8-1v-5.7c0-.9-.2-1.6-.5-2s-1-.6-1.9-.6-1.4.2-1.8.5c-.4.4-.6,1.1-.7,2.1,0,.3,0,.8,0,1.2,0,.5,0,.9,0,1.4,0,.5,0,1,0,1.4h-1.6c0-.6,0-1.3,0-2,0-.7,0-1.3,0-1.9,0-1,.2-1.8.5-2.4s.8-1.1,1.4-1.3c.6-.3,1.4-.4,2.4-.4s1.8.1,2.4.5c.6.3,1,.8,1.3,1.4.3.6.4,1.5.4,2.5v19.9h-1.7v-2h-.3c-.2.7-.6,1.2-1,1.6-.4.4-1.1.6-1.9.6ZM-2298.5,979.1c.7,0,1.3-.2,1.8-.6.5-.4.8-1.1,1.1-1.9v-9.1c-.4.2-.9.5-1.4.8s-1.1.7-1.8,1.2c-.8.6-1.3,1.3-1.6,2.1-.3.8-.4,1.7-.5,2.7,0,.2,0,.5,0,.9s0,.7,0,1.1c0,.9.3,1.6.7,2.1.4.5.9.7,1.6.7Z"/>
        <path d="M-2285.4,980.5c-1.5,0-2.5-.3-3.1-1-.5-.7-.8-1.7-.8-3.2v-18.6h-1.5v-1.4h1.5v-6.8h1.7v6.8h3.4v1.4h-3.5v18.7c0,1,.1,1.7.4,2.1s.9.6,1.8.6.7,0,.9,0c.2,0,.5,0,.8-.1v1.4c-.3,0-.5,0-.8.1-.3,0-.6,0-.9,0Z"/>
        <path d="M-2273.3,980.2l-2.7-24h1.8l1.1,12.1,1.1,10.4h1.1l1.1-10.4,1.2-12.1h1.8l-2.8,24h-3.6Z"/>
        <path d="M-2259.6,980.5c-1,0-1.8-.2-2.5-.5s-1.1-.8-1.4-1.4-.5-1.5-.5-2.5c0-1.3,0-2.5,0-3.9,0-1.3,0-2.6,0-4s0-2.7,0-4c0-1.3,0-2.6,0-3.9,0-1.1.2-1.9.5-2.5s.7-1.1,1.4-1.4,1.4-.5,2.5-.5,1.9.2,2.5.5,1.1.8,1.4,1.4c.3.6.4,1.5.5,2.5,0,1.3,0,2.5,0,3.9,0,1.3,0,2.6,0,4s0,2.7,0,4c0,1.3,0,2.6,0,3.9,0,1-.2,1.9-.5,2.5-.3.6-.7,1.1-1.4,1.4s-1.4.5-2.5.5ZM-2259.6,979c.9,0,1.6-.2,2-.6.4-.4.6-1.1.7-2.1,0-1.6,0-3,0-4.3,0-1.3,0-2.6,0-3.8s0-2.5,0-3.8c0-1.3,0-2.7,0-4.3,0-1-.2-1.8-.6-2.1s-1-.6-2-.6-1.6.2-2,.6c-.4.4-.6,1.1-.6,2.1,0,1.5,0,3-.1,4.3,0,1.3,0,2.6,0,3.8s0,2.5,0,3.8c0,1.3,0,2.7.1,4.3,0,1,.3,1.7.7,2.1.4.4,1.1.6,2,.6Z"/>
        <path d="M-2251,980.2v-32h1.7v32h-1.7Z"/>
        <path d="M-2241.4,980.5c-1.1,0-2-.3-2.5-1s-.8-1.7-.8-3.2v-20h1.7v20.1c0,.9.2,1.6.5,2.1.3.4.9.6,1.6.6s1.4-.2,2-.7,1-1.1,1.2-2v-20.2h1.7v24h-1.7v-2h-.4c-.3.7-.8,1.3-1.3,1.7s-1.2.6-1.9.6Z"/>
        <path d="M-2227.5,980.5c-1.5,0-2.5-.3-3.1-1-.5-.7-.8-1.7-.8-3.2v-18.6h-1.5v-1.4h1.5v-6.8h1.7v6.8h3.4v1.4h-3.5v18.7c0,1,.1,1.7.4,2.1s.9.6,1.8.6.7,0,.9,0c.2,0,.5,0,.8-.1v1.4c-.3,0-.5,0-.8.1-.3,0-.6,0-.9,0Z"/>
        <path d="M-2223.2,988.2v-32h1.7v2h.4c.3-.8.7-1.4,1.2-1.7.5-.4,1.1-.5,2-.5s2,.3,2.5,1c.5.6.8,1.7.9,3.2,0,1,0,2.1,0,3.5,0,1.3,0,2.8,0,4.2s0,2.9,0,4.4c0,1.4,0,2.8,0,4,0,1.5-.3,2.6-.9,3.2s-1.4,1-2.5,1-1.4-.2-1.9-.5c-.5-.4-.9-.9-1.2-1.7h-.4v10h-1.7ZM-2218.3,979.1c.7,0,1.3-.2,1.6-.6.3-.4.5-1.1.5-2.1,0-1.7,0-3.2,0-4.6,0-1.4,0-2.8,0-4.1,0-1.3,0-2.6,0-3.8,0-1.2,0-2.5,0-3.8,0-1-.2-1.6-.5-2.1-.3-.4-.9-.6-1.6-.6s-1.5.2-2,.6c-.5.4-.9,1.1-1.2,2v16.4c.3.9.7,1.6,1.2,2,.5.4,1.1.6,2,.6Z"/>
        <path d="M-2207.3,980.5c-1.2,0-2-.4-2.6-1.1-.6-.7-.9-1.7-1-3.1,0-.4,0-.7,0-1.1,0-.3,0-.7,0-1,0-.9.2-1.7.4-2.5s.5-1.5,1-2.1c.5-.6,1.2-1.3,2-1.8.5-.4,1.1-.7,1.7-1.1.6-.3,1.2-.7,1.8-1v-5.7c0-.9-.2-1.6-.5-2s-1-.6-1.9-.6-1.4.2-1.8.5c-.4.4-.6,1.1-.7,2.1,0,.3,0,.8,0,1.2,0,.5,0,.9,0,1.4,0,.5,0,1,0,1.4h-1.6c0-.6,0-1.3,0-2,0-.7,0-1.3,0-1.9,0-1,.2-1.8.5-2.4s.8-1.1,1.4-1.3c.6-.3,1.4-.4,2.4-.4s1.8.1,2.4.5c.6.3,1,.8,1.3,1.4.3.6.4,1.5.4,2.5v19.9h-1.7v-2h-.3c-.2.7-.6,1.2-1,1.6-.4.4-1.1.6-1.9.6ZM-2206.9,979.1c.7,0,1.3-.2,1.8-.6.5-.4.8-1.1,1.1-1.9v-9.1c-.4.2-.9.5-1.4.8s-1.1.7-1.8,1.2c-.8.6-1.3,1.3-1.6,2.1-.3.8-.4,1.7-.5,2.7,0,.2,0,.5,0,.9s0,.7,0,1.1c0,.9.3,1.6.7,2.1.4.5.9.7,1.6.7Z"/>
        <path d="M-2193.8,980.5c-1.5,0-2.5-.3-3.1-1-.5-.7-.8-1.7-.8-3.2v-18.6h-1.5v-1.4h1.5v-6.8h1.7v6.8h3.4v1.4h-3.5v18.7c0,1,.1,1.7.4,2.1s.9.6,1.8.6.7,0,.9,0c.2,0,.5,0,.8-.1v1.4c-.3,0-.5,0-.8.1-.3,0-.6,0-.9,0Z"/>
        <path d="M-2190.2,980.2v-3h3.8v3h-3.8Z"/>
        <path d="M-2170.2,980.5c-1.5,0-2.6-.3-3.3-1-.7-.7-1-1.8-1-3.4,0-4.6,0-9.3,0-13.9s0-9.3,0-13.9h1.7c0,3.1,0,6.2,0,9.3,0,3.1,0,6.3,0,9.4s0,6.2,0,9.3c0,.9.2,1.6.6,2s1.1.6,2,.6,1.6-.2,2-.6c.4-.4.6-1.1.6-2,0-3.1,0-6.2,0-9.3s0-6.2,0-9.4c0-3.1,0-6.2,0-9.3h1.7c0,4.6,0,9.3,0,13.9s0,9.3,0,13.9c0,1.6-.4,2.7-1,3.4-.7.7-1.8,1-3.3,1Z"/>
        <path d="M-2157.7,980.5c-1.5,0-2.5-.3-3.1-1-.5-.7-.8-1.7-.8-3.2v-18.6h-1.5v-1.4h1.5v-6.8h1.7v6.8h3.4v1.4h-3.5v18.7c0,1,.1,1.7.4,2.1s.9.6,1.8.6.7,0,.9,0c.2,0,.5,0,.8-.1v1.4c-.3,0-.5,0-.8.1-.3,0-.6,0-.9,0Z"/>
        <path d="M-2146.2,980.2l-2.1-24h1.6l.9,12.1.8,10.4h1.1l.6-10.4,1.1-12h3.8l1,12,.7,10.4h1.1l.9-10.4.9-12.1h1.7l-2.2,24h-3.7l-.6-9.2-1-13.3h-1.2l-1,13.3-.6,9.2h-3.7Z"/>
        <path d="M-2129.9,951.1v-2.8h3.7v2.8h-3.7ZM-2128.9,980.2v-24h1.7v24h-1.7Z"/>
        <path d="M-2119.2,980.5c-1.5,0-2.5-.3-3.1-1s-.9-1.7-.9-3.2c0-.6,0-1.2,0-1.8s0-1.4,0-2.1h1.6c0,.8,0,1.5,0,2.2s0,1.3,0,1.9c0,1,.2,1.7.6,2.1s1,.6,1.9.6,1.6-.2,2-.6c.4-.4.6-1.1.6-2.1,0-.4,0-.8,0-1.2s0-.7,0-1.1,0-.7,0-1.1c0-1.2-.2-2-.4-2.6-.2-.6-.7-1-1.5-1.3l-1.6-.6c-.8-.3-1.5-.7-1.9-1.1-.5-.4-.8-1-.9-1.8-.2-.7-.3-1.7-.3-2.9,0-.5,0-.9,0-1.3,0-.4,0-.8,0-1.3,0-1.5.3-2.6.9-3.3s1.6-1,3.2-1,2.5.3,3.1,1c.6.7.9,1.7.9,3.2v1.8c0,.7,0,1.4,0,2.1h-1.6c0-.5,0-1,0-1.5v-1.4c0-.4,0-.8,0-1.2,0-1-.2-1.7-.5-2.1-.3-.4-1-.5-1.9-.5s-1.5.2-1.9.5c-.3.4-.5,1.1-.6,2.1,0,.5,0,1,0,1.3,0,.4,0,.8,0,1.3,0,1.1.1,2,.3,2.7s.7,1.2,1.5,1.5l1.6.5c1.1.4,1.9,1,2.5,1.8s.8,2,.8,3.7,0,1.1,0,1.6c0,.6,0,1.1,0,1.7,0,1.5-.4,2.6-1,3.2-.6.7-1.7,1-3.2,1Z"/>
        <path d="M-2112,951.1v-2.8h3.7v2.8h-3.7ZM-2111,980.2v-24h1.7v24h-1.7Z"/>
        <path d="M-2092.5,980.5c-1.5,0-2.6-.3-3.3-1s-1-1.7-1.1-3.2c0-1.3,0-2.6,0-3.9,0-1.3,0-2.7,0-4.1s0-2.7,0-4.1,0-2.7,0-3.9c0-1.5.4-2.6,1.1-3.3s1.8-1,3.3-1,2.5.3,3.1,1,1,1.7,1.1,3.2c0,.5,0,1.1,0,1.9,0,.8,0,1.8,0,2.9s0,2.3,0,3.7h-6.9c0,1.2,0,2.4,0,3.6,0,1.2,0,2.6,0,4.1,0,1,.2,1.7.6,2.1.4.4,1.1.6,2,.6s1.5-.2,1.9-.6.6-1.1.6-2.1c0-.5,0-1.2,0-1.8s0-1.4,0-2.2h1.7c0,.7,0,1.4,0,2.1,0,.7,0,1.3,0,1.8,0,1.5-.4,2.6-1,3.2-.6.6-1.7,1-3.2,1ZM-2095.3,967.2h5.3c0-1,0-2,0-2.9,0-.9,0-1.8,0-2.5,0-.7,0-1.3,0-1.7,0-1-.2-1.6-.6-2.1-.4-.4-1-.6-1.9-.6s-1.6.2-2,.6-.6,1.1-.7,2.1c0,1.3,0,2.6,0,3.8,0,1.2,0,2.3,0,3.4Z"/>
        <path d="M-2084.3,980.2v-24h1.7v2h.4c.3-.7.7-1.3,1.3-1.7.5-.4,1.2-.6,1.9-.6,1.1,0,2,.3,2.5,1,.5.6.8,1.7.8,3.2v20.1h-1.7v-20.1c0-1-.2-1.7-.5-2.1-.3-.4-.9-.6-1.6-.6s-1.4.2-2,.7c-.6.5-1,1.1-1.2,2v20.2h-1.7Z"/>
        <path d="M-2072,951.1v-2.8h3.7v2.8h-3.7ZM-2071,980.2v-24h1.7v24h-1.7Z"/>
        <path d="M-2064.7,980.2v-24h1.7v2h.4c.3-.8.8-1.4,1.3-1.7s1.2-.5,2-.5,1.6.2,2.1.5c.5.4.9,1,1.1,1.8h.4c.4-.8.8-1.4,1.3-1.8s1.2-.6,2.1-.6,2,.3,2.5,1c.5.6.8,1.7.8,3.2v20.1h-1.7v-20.1c0-1-.2-1.6-.5-2.1-.3-.4-.9-.6-1.6-.6s-1.5.2-2,.6c-.5.4-.9,1.1-1.2,2v20.2h-1.7v-20.1c0-1-.2-1.6-.5-2.1-.3-.4-.9-.6-1.6-.6s-1.5.2-2,.6c-.5.4-.9,1.1-1.2,2v20.2h-1.7Z"/>
        <path d="M-2033.5,980.5c-1.2,0-2-.4-2.6-1.1-.6-.7-.9-1.7-1-3.1,0-.4,0-.7,0-1.1,0-.3,0-.7,0-1,0-.9.2-1.7.4-2.5s.5-1.5,1-2.1c.5-.6,1.2-1.3,2-1.8.5-.4,1.1-.7,1.7-1.1.6-.3,1.2-.7,1.8-1v-5.7c0-.9-.2-1.6-.5-2s-1-.6-1.9-.6-1.4.2-1.8.5c-.4.4-.6,1.1-.7,2.1,0,.3,0,.8,0,1.2,0,.5,0,.9,0,1.4,0,.5,0,1,0,1.4h-1.6c0-.6,0-1.3,0-2,0-.7,0-1.3,0-1.9,0-1,.2-1.8.5-2.4s.8-1.1,1.4-1.3c.6-.3,1.4-.4,2.4-.4s1.8.1,2.4.5c.6.3,1,.8,1.3,1.4.3.6.4,1.5.4,2.5v19.9h-1.7v-2h-.3c-.2.7-.6,1.2-1,1.6-.4.4-1.1.6-1.9.6ZM-2033.1,979.1c.7,0,1.3-.2,1.8-.6.5-.4.8-1.1,1.1-1.9v-9.1c-.4.2-.9.5-1.4.8s-1.1.7-1.8,1.2c-.8.6-1.3,1.3-1.6,2.1-.3.8-.4,1.7-.5,2.7,0,.2,0,.5,0,.9s0,.7,0,1.1c0,.9.3,1.6.7,2.1.4.5.9.7,1.6.7Z"/>
        <path d="M-2021,980.5c-1.1,0-2-.3-2.5-1-.5-.7-.8-1.7-.9-3.2,0-1.3,0-2.6,0-3.9s0-2.6,0-3.9,0-2.7,0-4.1,0-2.8,0-4.2c0-1.5.3-2.6.9-3.2.5-.6,1.4-1,2.5-1s1.5.2,2,.5c.5.4.9.9,1.3,1.7h.4v-10h1.7v32h-1.7v-2h-.4c-.3.7-.8,1.3-1.2,1.7-.5.4-1.1.6-2,.6ZM-2020.5,979.1c.8,0,1.5-.2,2-.6.5-.4.9-1.1,1.2-2v-16.4c-.3-.9-.7-1.6-1.2-2-.5-.4-1.2-.6-2-.6s-1.3.2-1.6.6c-.3.4-.5,1.1-.5,2.1,0,2,0,3.9,0,5.8s0,3.6,0,5.3,0,3.5,0,5.2c0,.9.2,1.6.5,2.1.3.4.8.6,1.6.6Z"/>
        <path d="M-2566.6,1028.2v-24h1.7v2h.4c.3-.8.8-1.4,1.3-1.7s1.2-.5,2-.5,1.6.2,2.1.5c.5.4.9,1,1.1,1.8h.4c.4-.8.8-1.4,1.3-1.8s1.2-.6,2.1-.6,2,.3,2.5,1c.5.6.8,1.7.8,3.2v20.1h-1.7v-20.1c0-1-.2-1.6-.5-2.1-.3-.4-.9-.6-1.6-.6s-1.5.2-2,.6c-.5.4-.9,1.1-1.2,2v20.2h-1.7v-20.1c0-1-.2-1.6-.5-2.1-.3-.4-.9-.6-1.6-.6s-1.5.2-2,.6c-.5.4-.9,1.1-1.2,2v20.2h-1.7Z"/>
        <path d="M-2547.4,999.1v-2.8h3.7v2.8h-3.7ZM-2546.4,1028.2v-24h1.7v24h-1.7Z"/>
        <path d="M-2540.1,1028.2v-24h1.7v2h.4c.3-.7.7-1.3,1.3-1.7.5-.4,1.2-.6,1.9-.6,1.1,0,2,.3,2.5,1,.5.6.8,1.7.8,3.2v20.1h-1.7v-20.1c0-1-.2-1.7-.5-2.1-.3-.4-.9-.6-1.6-.6s-1.4.2-2,.7c-.6.5-1,1.1-1.2,2v20.2h-1.7Z"/>
        <path d="M-2527.8,999.1v-2.8h3.7v2.8h-3.7ZM-2526.8,1028.2v-24h1.7v24h-1.7Z"/>
        <path d="M-2520.5,1028.2v-24h1.7v2h.4c.3-.8.8-1.4,1.3-1.7s1.2-.5,2-.5,1.6.2,2.1.5c.5.4.9,1,1.1,1.8h.4c.4-.8.8-1.4,1.3-1.8s1.2-.6,2.1-.6,2,.3,2.5,1c.5.6.8,1.7.8,3.2v20.1h-1.7v-20.1c0-1-.2-1.6-.5-2.1-.3-.4-.9-.6-1.6-.6s-1.5.2-2,.6c-.5.4-.9,1.1-1.2,2v20.2h-1.7v-20.1c0-1-.2-1.6-.5-2.1-.3-.4-.9-.6-1.6-.6s-1.5.2-2,.6c-.5.4-.9,1.1-1.2,2v20.2h-1.7Z"/>
        <path d="M-2490.9,1028.2l-2.7-24h1.8l1.1,12.1,1.1,10.4h1.1l1.1-10.4,1.2-12.1h1.8l-2.8,24h-3.6Z"/>
        <path d="M-2477.2,1028.5c-1.5,0-2.6-.3-3.3-1s-1-1.7-1.1-3.2c0-1.3,0-2.6,0-3.9,0-1.3,0-2.7,0-4.1s0-2.7,0-4.1,0-2.7,0-3.9c0-1.5.4-2.6,1.1-3.3s1.8-1,3.3-1,2.5.3,3.1,1,1,1.7,1.1,3.2c0,.5,0,1.1,0,1.9,0,.8,0,1.8,0,2.9s0,2.3,0,3.7h-6.9c0,1.2,0,2.4,0,3.6,0,1.2,0,2.6,0,4.1,0,1,.2,1.7.6,2.1.4.4,1.1.6,2,.6s1.5-.2,1.9-.6.6-1.1.6-2.1c0-.5,0-1.2,0-1.8s0-1.4,0-2.2h1.7c0,.7,0,1.4,0,2.1,0,.7,0,1.3,0,1.8,0,1.5-.4,2.6-1,3.2-.6.6-1.7,1-3.2,1ZM-2480,1015.2h5.3c0-1,0-2,0-2.9,0-.9,0-1.8,0-2.5,0-.7,0-1.3,0-1.7,0-1-.2-1.6-.6-2.1-.4-.4-1-.6-1.9-.6s-1.6.2-2,.6-.6,1.1-.7,2.1c0,1.3,0,2.6,0,3.8,0,1.2,0,2.3,0,3.4Z"/>
        <path d="M-2469,1028.2v-24h1.7v2h.4c.3-.7.7-1.3,1.3-1.7.5-.4,1.2-.6,1.9-.6,1.1,0,2,.3,2.5,1,.5.6.8,1.7.8,3.2v20.1h-1.7v-20.1c0-1-.2-1.7-.5-2.1-.3-.4-.9-.6-1.6-.6s-1.4.2-2,.7c-.6.5-1,1.1-1.2,2v20.2h-1.7Z"/>
        <path d="M-2456.7,999.1v-2.8h3.7v2.8h-3.7ZM-2455.7,1028.2v-24h1.7v24h-1.7Z"/>
        <path d="M-2446.5,1028.5c-1.2,0-2-.4-2.6-1.1-.6-.7-.9-1.7-1-3.1,0-.4,0-.7,0-1.1,0-.3,0-.7,0-1,0-.9.2-1.7.4-2.5s.5-1.5,1-2.1c.5-.6,1.2-1.3,2-1.8.5-.4,1.1-.7,1.7-1.1.6-.3,1.2-.7,1.8-1v-5.7c0-.9-.2-1.6-.5-2s-1-.6-1.9-.6-1.4.2-1.8.5c-.4.4-.6,1.1-.7,2.1,0,.3,0,.8,0,1.2,0,.5,0,.9,0,1.4,0,.5,0,1,0,1.4h-1.6c0-.6,0-1.3,0-2,0-.7,0-1.3,0-1.9,0-1,.2-1.8.5-2.4s.8-1.1,1.4-1.3c.6-.3,1.4-.4,2.4-.4s1.8.1,2.4.5c.6.3,1,.8,1.3,1.4.3.6.4,1.5.4,2.5v19.9h-1.7v-2h-.3c-.2.7-.6,1.2-1,1.6-.4.4-1.1.6-1.9.6ZM-2446.1,1027.1c.7,0,1.3-.2,1.8-.6.5-.4.8-1.1,1.1-1.9v-9.1c-.4.2-.9.5-1.4.8s-1.1.7-1.8,1.2c-.8.6-1.3,1.3-1.6,2.1-.3.8-.4,1.7-.5,2.7,0,.2,0,.5,0,.9s0,.7,0,1.1c0,.9.3,1.6.7,2.1.4.5.9.7,1.6.7Z"/>
        <path d="M-2437,1028.2v-24h1.7v2h.4c.3-.8.8-1.4,1.3-1.7s1.2-.5,2-.5,1.6.2,2.1.5c.5.4.9,1,1.1,1.8h.4c.4-.8.8-1.4,1.3-1.8s1.2-.6,2.1-.6,2,.3,2.5,1c.5.6.8,1.7.8,3.2v20.1h-1.7v-20.1c0-1-.2-1.6-.5-2.1-.3-.4-.9-.6-1.6-.6s-1.5.2-2,.6c-.5.4-.9,1.1-1.2,2v20.2h-1.7v-20.1c0-1-.2-1.6-.5-2.1-.3-.4-.9-.6-1.6-.6s-1.5.2-2,.6c-.5.4-.9,1.1-1.2,2v20.2h-1.7Z"/>
        <path d="M-2416.3,1031.9l1.3-3.6h-2.2v-3h3.8v2.7l-1.5,3.9h-1.4Z"/>
        <path d="M-2394.3,1036.2v-10h-.4c-.3.8-.8,1.4-1.2,1.7-.5.4-1.1.5-1.9.5-1.1,0-2-.3-2.5-1-.6-.7-.9-1.7-.9-3.2,0-1,0-2.1,0-3.4,0-1.3,0-2.7,0-4.2s0-3,0-4.4,0-2.8,0-4c0-1.5.3-2.6.9-3.2.5-.6,1.4-1,2.5-1s1.5.2,2,.5.9.9,1.2,1.7h.4v-2h1.7v32h-1.7ZM-2397.5,1027.1c.8,0,1.5-.2,2-.6.5-.4.9-1.1,1.2-2v-16.4c-.3-.9-.7-1.6-1.2-2-.5-.4-1.2-.6-2-.6s-1.3.2-1.6.6c-.3.4-.5,1.1-.5,2.1,0,2.1,0,4.1,0,5.9,0,1.8,0,3.5,0,5.2,0,1.7,0,3.4.1,5.1,0,.9.2,1.6.6,2.1.3.4.9.6,1.6.6Z"/>
        <path d="M-2384.8,1028.5c-1.1,0-2-.3-2.5-1s-.8-1.7-.8-3.2v-20h1.7v20.1c0,.9.2,1.6.5,2.1.3.4.9.6,1.6.6s1.4-.2,2-.7,1-1.1,1.2-2v-20.2h1.7v24h-1.7v-2h-.4c-.3.7-.8,1.3-1.3,1.7s-1.2.6-1.9.6Z"/>
        <path d="M-2375.8,999.1v-2.8h3.7v2.8h-3.7ZM-2374.8,1028.2v-24h1.7v24h-1.7Z"/>
        <path d="M-2365.1,1028.5c-1.5,0-2.5-.3-3.1-1s-.9-1.7-.9-3.2c0-.6,0-1.2,0-1.8s0-1.4,0-2.1h1.6c0,.8,0,1.5,0,2.2s0,1.3,0,1.9c0,1,.2,1.7.6,2.1s1,.6,1.9.6,1.6-.2,2-.6c.4-.4.6-1.1.6-2.1,0-.4,0-.8,0-1.2s0-.7,0-1.1,0-.7,0-1.1c0-1.2-.2-2-.4-2.6-.2-.6-.7-1-1.5-1.3l-1.6-.6c-.8-.3-1.5-.7-1.9-1.1-.5-.4-.8-1-.9-1.8-.2-.7-.3-1.7-.3-2.9,0-.5,0-.9,0-1.3,0-.4,0-.8,0-1.3,0-1.5.3-2.6.9-3.3s1.6-1,3.2-1,2.5.3,3.1,1c.6.7.9,1.7.9,3.2v1.8c0,.7,0,1.4,0,2.1h-1.6c0-.5,0-1,0-1.5v-1.4c0-.4,0-.8,0-1.2,0-1-.2-1.7-.5-2.1-.3-.4-1-.5-1.9-.5s-1.5.2-1.9.5c-.3.4-.5,1.1-.6,2.1,0,.5,0,1,0,1.3,0,.4,0,.8,0,1.3,0,1.1.1,2,.3,2.7s.7,1.2,1.5,1.5l1.6.5c1.1.4,1.9,1,2.5,1.8s.8,2,.8,3.7,0,1.1,0,1.6c0,.6,0,1.1,0,1.7,0,1.5-.4,2.6-1,3.2-.6.7-1.7,1-3.2,1Z"/>
        <path d="M-2348.8,1028.2v-24h1.7v2h.4c.3-.7.7-1.3,1.3-1.7.5-.4,1.2-.6,1.9-.6,1.1,0,2,.3,2.5,1,.5.6.8,1.7.8,3.2v20.1h-1.7v-20.1c0-1-.2-1.7-.5-2.1-.3-.4-.9-.6-1.6-.6s-1.4.2-2,.7c-.6.5-1,1.1-1.2,2v20.2h-1.7Z"/>
        <path d="M-2331.6,1028.5c-1,0-1.8-.2-2.5-.5s-1.1-.8-1.4-1.4-.5-1.5-.5-2.5c0-1.3,0-2.5,0-3.9,0-1.3,0-2.6,0-4s0-2.7,0-4c0-1.3,0-2.6,0-3.9,0-1.1.2-1.9.5-2.5s.7-1.1,1.4-1.4,1.4-.5,2.5-.5,1.9.2,2.5.5,1.1.8,1.4,1.4c.3.6.4,1.5.5,2.5,0,1.3,0,2.5,0,3.9,0,1.3,0,2.6,0,4s0,2.7,0,4c0,1.3,0,2.6,0,3.9,0,1-.2,1.9-.5,2.5-.3.6-.7,1.1-1.4,1.4s-1.4.5-2.5.5ZM-2331.6,1027c.9,0,1.6-.2,2-.6.4-.4.6-1.1.7-2.1,0-1.6,0-3,0-4.3,0-1.3,0-2.6,0-3.8s0-2.5,0-3.8c0-1.3,0-2.7,0-4.3,0-1-.2-1.8-.6-2.1s-1-.6-2-.6-1.6.2-2,.6c-.4.4-.6,1.1-.6,2.1,0,1.5,0,3-.1,4.3,0,1.3,0,2.6,0,3.8s0,2.5,0,3.8c0,1.3,0,2.7.1,4.3,0,1,.3,1.7.7,2.1.4.4,1.1.6,2,.6Z"/>
        <path d="M-2319.5,1028.5c-1.5,0-2.5-.3-3.1-1s-.9-1.7-.9-3.2c0-.6,0-1.2,0-1.8s0-1.4,0-2.1h1.6c0,.8,0,1.5,0,2.2s0,1.3,0,1.9c0,1,.2,1.7.6,2.1s1,.6,1.9.6,1.6-.2,2-.6c.4-.4.6-1.1.6-2.1,0-.4,0-.8,0-1.2s0-.7,0-1.1,0-.7,0-1.1c0-1.2-.2-2-.4-2.6-.2-.6-.7-1-1.5-1.3l-1.6-.6c-.8-.3-1.5-.7-1.9-1.1-.5-.4-.8-1-.9-1.8-.2-.7-.3-1.7-.3-2.9,0-.5,0-.9,0-1.3,0-.4,0-.8,0-1.3,0-1.5.3-2.6.9-3.3s1.6-1,3.2-1,2.5.3,3.1,1c.6.7.9,1.7.9,3.2v1.8c0,.7,0,1.4,0,2.1h-1.6c0-.5,0-1,0-1.5v-1.4c0-.4,0-.8,0-1.2,0-1-.2-1.7-.5-2.1-.3-.4-1-.5-1.9-.5s-1.5.2-1.9.5c-.3.4-.5,1.1-.6,2.1,0,.5,0,1,0,1.3,0,.4,0,.8,0,1.3,0,1.1.1,2,.3,2.7s.7,1.2,1.5,1.5l1.6.5c1.1.4,1.9,1,2.5,1.8s.8,2,.8,3.7,0,1.1,0,1.6c0,.6,0,1.1,0,1.7,0,1.5-.4,2.6-1,3.2-.6.7-1.7,1-3.2,1Z"/>
        <path d="M-2307.4,1028.5c-1.5,0-2.5-.3-3.1-1-.5-.7-.8-1.7-.8-3.2v-18.6h-1.5v-1.4h1.5v-6.8h1.7v6.8h3.4v1.4h-3.5v18.7c0,1,.1,1.7.4,2.1s.9.6,1.8.6.7,0,.9,0c.2,0,.5,0,.8-.1v1.4c-.3,0-.5,0-.8.1-.3,0-.6,0-.9,0Z"/>
        <path d="M-2303.1,1028.2v-24h1.7v2.1h.4c.3-.8.6-1.3,1.1-1.7.5-.3,1.1-.4,1.9-.4h1.1v1.5h-1.1c-1,0-1.8.2-2.3.6-.5.4-.9,1.1-1.1,2v19.9h-1.7Z"/>
        <path d="M-2291.1,1028.5c-1.1,0-2-.3-2.5-1s-.8-1.7-.8-3.2v-20h1.7v20.1c0,.9.2,1.6.5,2.1.3.4.9.6,1.6.6s1.4-.2,2-.7,1-1.1,1.2-2v-20.2h1.7v24h-1.7v-2h-.4c-.3.7-.8,1.3-1.3,1.7s-1.2.6-1.9.6Z"/>
        <path d="M-2278.1,1028.5c-1.1,0-2-.3-2.5-1-.5-.7-.8-1.7-.9-3.2,0-1.3,0-2.6,0-3.9s0-2.6,0-3.9,0-2.7,0-4.1,0-2.8,0-4.2c0-1.5.3-2.6.9-3.2.5-.6,1.4-1,2.5-1s1.5.2,2,.5c.5.4.9.9,1.3,1.7h.4v-10h1.7v32h-1.7v-2h-.4c-.3.7-.8,1.3-1.2,1.7-.5.4-1.1.6-2,.6ZM-2277.7,1027.1c.8,0,1.5-.2,2-.6.5-.4.9-1.1,1.2-2v-16.4c-.3-.9-.7-1.6-1.2-2-.5-.4-1.2-.6-2-.6s-1.3.2-1.6.6c-.3.4-.5,1.1-.5,2.1,0,2,0,3.9,0,5.8s0,3.6,0,5.3,0,3.5,0,5.2c0,.9.2,1.6.5,2.1.3.4.8.6,1.6.6Z"/>
        <path d="M-2256,1028.5c-1.5,0-2.6-.3-3.3-1s-1-1.7-1.1-3.2c0-1.3,0-2.6,0-3.9,0-1.3,0-2.7,0-4.1s0-2.7,0-4.1,0-2.7,0-3.9c0-1.5.4-2.6,1.1-3.3s1.8-1,3.3-1,2.5.3,3.1,1,1,1.7,1.1,3.2c0,.5,0,1.1,0,1.9,0,.8,0,1.8,0,2.9s0,2.3,0,3.7h-6.9c0,1.2,0,2.4,0,3.6,0,1.2,0,2.6,0,4.1,0,1,.2,1.7.6,2.1.4.4,1.1.6,2,.6s1.5-.2,1.9-.6.6-1.1.6-2.1c0-.5,0-1.2,0-1.8s0-1.4,0-2.2h1.7c0,.7,0,1.4,0,2.1,0,.7,0,1.3,0,1.8,0,1.5-.4,2.6-1,3.2-.6.6-1.7,1-3.2,1ZM-2258.8,1015.2h5.3c0-1,0-2,0-2.9,0-.9,0-1.8,0-2.5,0-.7,0-1.3,0-1.7,0-1-.2-1.6-.6-2.1-.4-.4-1-.6-1.9-.6s-1.6.2-2,.6-.6,1.1-.7,2.1c0,1.3,0,2.6,0,3.8,0,1.2,0,2.3,0,3.4Z"/>
        <path d="M-2249.5,1028.2l2.8-12.2-2.7-11.8h1.7l1.1,5.3,1.2,5.8h.7l1.3-5.8,1.1-5.3h1.7l-2.8,11.8,2.9,12.2h-1.7l-1.4-6.4-1.1-5.1h-.7l-1.1,5.1-1.4,6.4h-1.7Z"/>
        <path d="M-2233.7,1028.5c-1.5,0-2.6-.3-3.3-1s-1-1.7-1.1-3.2c0-1.3,0-2.6,0-3.9,0-1.3,0-2.7,0-4.1s0-2.7,0-4.1,0-2.7,0-3.9c0-1.5.4-2.6,1.1-3.3s1.8-1,3.3-1,2.5.3,3.1,1,1,1.7,1.1,3.2c0,.5,0,1.1,0,1.9,0,.8,0,1.8,0,2.9s0,2.3,0,3.7h-6.9c0,1.2,0,2.4,0,3.6,0,1.2,0,2.6,0,4.1,0,1,.2,1.7.6,2.1.4.4,1.1.6,2,.6s1.5-.2,1.9-.6.6-1.1.6-2.1c0-.5,0-1.2,0-1.8s0-1.4,0-2.2h1.7c0,.7,0,1.4,0,2.1,0,.7,0,1.3,0,1.8,0,1.5-.4,2.6-1,3.2-.6.6-1.7,1-3.2,1ZM-2236.4,1015.2h5.3c0-1,0-2,0-2.9,0-.9,0-1.8,0-2.5,0-.7,0-1.3,0-1.7,0-1-.2-1.6-.6-2.1-.4-.4-1-.6-1.9-.6s-1.6.2-2,.6-.6,1.1-.7,2.1c0,1.3,0,2.6,0,3.8,0,1.2,0,2.3,0,3.4Z"/>
        <path d="M-2225.4,1028.2v-24h1.7v2.1h.4c.3-.8.6-1.3,1.1-1.7.5-.3,1.1-.4,1.9-.4h1.1v1.5h-1.1c-1,0-1.8.2-2.3.6-.5.4-.9,1.1-1.1,2v19.9h-1.7Z"/>
        <path d="M-2210.6,1012.1c0-.5,0-1,0-1.5s0-.9,0-1.4c0-.4,0-.8,0-1.2,0-1-.2-1.7-.6-2.1-.4-.4-1.1-.5-2-.5s-1.6.2-2,.5c-.4.4-.6,1.1-.6,2.1,0,1.6,0,3,0,4.3,0,1.3,0,2.6,0,3.8s0,2.5,0,3.8c0,1.3,0,2.7,0,4.3,0,1,.2,1.7.6,2.1.4.4,1.1.6,2,.6s1.6-.2,2-.6c.4-.4.6-1.1.6-2.1,0-.6,0-1.2,0-1.9s0-1.4,0-2.2h1.7c0,.7,0,1.4,0,2.1,0,.7,0,1.3,0,1.8,0,1.5-.4,2.6-1,3.2s-1.7,1-3.2,1-2.6-.3-3.2-1-1-1.7-1-3.2c0-1.3,0-2.6,0-3.9,0-1.3,0-2.7,0-4.1s0-2.7,0-4.1,0-2.7,0-3.9c0-1.5.4-2.6,1.1-3.3s1.7-1,3.2-1,2.6.3,3.3,1,1,1.7,1,3.2c0,.5,0,1.1,0,1.8s0,1.4,0,2.1h-1.7Z"/>
        <path d="M-2206,999.1v-2.8h3.7v2.8h-3.7ZM-2205,1028.2v-24h1.7v24h-1.7Z"/>
        <path d="M-2187.3,1028.5c-1.5,0-2.5-.3-3.1-1-.5-.7-.8-1.7-.8-3.2v-18.6h-1.5v-1.4h1.5v-6.8h1.7v6.8h3.4v1.4h-3.5v18.7c0,1,.1,1.7.4,2.1s.9.6,1.8.6.7,0,.9,0c.2,0,.5,0,.8-.1v1.4c-.3,0-.5,0-.8.1-.3,0-.6,0-.9,0Z"/>
        <path d="M-2180.1,1028.5c-1.2,0-2-.4-2.6-1.1-.6-.7-.9-1.7-1-3.1,0-.4,0-.7,0-1.1,0-.3,0-.7,0-1,0-.9.2-1.7.4-2.5s.5-1.5,1-2.1c.5-.6,1.2-1.3,2-1.8.5-.4,1.1-.7,1.7-1.1.6-.3,1.2-.7,1.8-1v-5.7c0-.9-.2-1.6-.5-2s-1-.6-1.9-.6-1.4.2-1.8.5c-.4.4-.6,1.1-.7,2.1,0,.3,0,.8,0,1.2,0,.5,0,.9,0,1.4,0,.5,0,1,0,1.4h-1.6c0-.6,0-1.3,0-2,0-.7,0-1.3,0-1.9,0-1,.2-1.8.5-2.4s.8-1.1,1.4-1.3c.6-.3,1.4-.4,2.4-.4s1.8.1,2.4.5c.6.3,1,.8,1.3,1.4.3.6.4,1.5.4,2.5v19.9h-1.7v-2h-.3c-.2.7-.6,1.2-1,1.6-.4.4-1.1.6-1.9.6ZM-2179.7,1027.1c.7,0,1.3-.2,1.8-.6.5-.4.8-1.1,1.1-1.9v-9.1c-.4.2-.9.5-1.4.8s-1.1.7-1.8,1.2c-.8.6-1.3,1.3-1.6,2.1-.3.8-.4,1.7-.5,2.7,0,.2,0,.5,0,.9s0,.7,0,1.1c0,.9.3,1.6.7,2.1.4.5.9.7,1.6.7Z"/>
        <path d="M-2166.6,1028.5c-1.5,0-2.5-.3-3.1-1-.5-.7-.8-1.7-.8-3.2v-18.6h-1.5v-1.4h1.5v-6.8h1.7v6.8h3.4v1.4h-3.5v18.7c0,1,.1,1.7.4,2.1s.9.6,1.8.6.7,0,.9,0c.2,0,.5,0,.8-.1v1.4c-.3,0-.5,0-.8.1-.3,0-.6,0-.9,0Z"/>
        <path d="M-2163.3,999.1v-2.8h3.7v2.8h-3.7ZM-2162.3,1028.2v-24h1.7v24h-1.7Z"/>
        <path d="M-2152,1028.5c-1,0-1.8-.2-2.5-.5s-1.1-.8-1.4-1.4-.5-1.5-.5-2.5c0-1.3,0-2.5,0-3.9,0-1.3,0-2.6,0-4s0-2.7,0-4c0-1.3,0-2.6,0-3.9,0-1.1.2-1.9.5-2.5s.7-1.1,1.4-1.4,1.4-.5,2.5-.5,1.9.2,2.5.5,1.1.8,1.4,1.4c.3.6.4,1.5.5,2.5,0,1.3,0,2.5,0,3.9,0,1.3,0,2.6,0,4s0,2.7,0,4c0,1.3,0,2.6,0,3.9,0,1-.2,1.9-.5,2.5-.3.6-.7,1.1-1.4,1.4s-1.4.5-2.5.5ZM-2152,1027c.9,0,1.6-.2,2-.6.4-.4.6-1.1.7-2.1,0-1.6,0-3,0-4.3,0-1.3,0-2.6,0-3.8s0-2.5,0-3.8c0-1.3,0-2.7,0-4.3,0-1-.2-1.8-.6-2.1s-1-.6-2-.6-1.6.2-2,.6c-.4.4-.6,1.1-.6,2.1,0,1.5,0,3-.1,4.3,0,1.3,0,2.6,0,3.8s0,2.5,0,3.8c0,1.3,0,2.7.1,4.3,0,1,.3,1.7.7,2.1.4.4,1.1.6,2,.6Z"/>
        <path d="M-2143.3,1028.2v-24h1.7v2h.4c.3-.7.7-1.3,1.3-1.7.5-.4,1.2-.6,1.9-.6,1.1,0,2,.3,2.5,1,.5.6.8,1.7.8,3.2v20.1h-1.7v-20.1c0-1-.2-1.7-.5-2.1-.3-.4-.9-.6-1.6-.6s-1.4.2-2,.7c-.6.5-1,1.1-1.2,2v20.2h-1.7Z"/>
        <path d="M-2118.7,1028.5c-1.1,0-2-.3-2.5-1s-.8-1.7-.8-3.2v-20h1.7v20.1c0,.9.2,1.6.5,2.1.3.4.9.6,1.6.6s1.4-.2,2-.7,1-1.1,1.2-2v-20.2h1.7v24h-1.7v-2h-.4c-.3.7-.8,1.3-1.3,1.7s-1.2.6-1.9.6Z"/>
        <path d="M-2108.7,1028.2v-32h1.7v32h-1.7Z"/>
        <path d="M-2102.4,1028.2v-32h1.7v32h-1.7Z"/>
        <path d="M-2093.2,1028.5c-1.2,0-2-.4-2.6-1.1-.6-.7-.9-1.7-1-3.1,0-.4,0-.7,0-1.1,0-.3,0-.7,0-1,0-.9.2-1.7.4-2.5s.5-1.5,1-2.1c.5-.6,1.2-1.3,2-1.8.5-.4,1.1-.7,1.7-1.1.6-.3,1.2-.7,1.8-1v-5.7c0-.9-.2-1.6-.5-2s-1-.6-1.9-.6-1.4.2-1.8.5c-.4.4-.6,1.1-.7,2.1,0,.3,0,.8,0,1.2,0,.5,0,.9,0,1.4,0,.5,0,1,0,1.4h-1.6c0-.6,0-1.3,0-2,0-.7,0-1.3,0-1.9,0-1,.2-1.8.5-2.4s.8-1.1,1.4-1.3c.6-.3,1.4-.4,2.4-.4s1.8.1,2.4.5c.6.3,1,.8,1.3,1.4.3.6.4,1.5.4,2.5v19.9h-1.7v-2h-.3c-.2.7-.6,1.2-1,1.6-.4.4-1.1.6-1.9.6ZM-2092.8,1027.1c.7,0,1.3-.2,1.8-.6.5-.4.8-1.1,1.1-1.9v-9.1c-.4.2-.9.5-1.4.8s-1.1.7-1.8,1.2c-.8.6-1.3,1.3-1.6,2.1-.3.8-.4,1.7-.5,2.7,0,.2,0,.5,0,.9s0,.7,0,1.1c0,.9.3,1.6.7,2.1.4.5.9.7,1.6.7Z"/>
        <path d="M-2083.7,1028.2v-24h1.7v2h.4c.3-.8.8-1.4,1.3-1.7s1.2-.5,2-.5,1.6.2,2.1.5c.5.4.9,1,1.1,1.8h.4c.4-.8.8-1.4,1.3-1.8s1.2-.6,2.1-.6,2,.3,2.5,1c.5.6.8,1.7.8,3.2v20.1h-1.7v-20.1c0-1-.2-1.6-.5-2.1-.3-.4-.9-.6-1.6-.6s-1.5.2-2,.6c-.5.4-.9,1.1-1.2,2v20.2h-1.7v-20.1c0-1-.2-1.6-.5-2.1-.3-.4-.9-.6-1.6-.6s-1.5.2-2,.6c-.5.4-.9,1.1-1.2,2v20.2h-1.7Z"/>
        <path d="M-2057,1012.1c0-.5,0-1,0-1.5s0-.9,0-1.4c0-.4,0-.8,0-1.2,0-1-.2-1.7-.6-2.1-.4-.4-1.1-.5-2-.5s-1.6.2-2,.5c-.4.4-.6,1.1-.6,2.1,0,1.6,0,3,0,4.3,0,1.3,0,2.6,0,3.8s0,2.5,0,3.8c0,1.3,0,2.7,0,4.3,0,1,.2,1.7.6,2.1.4.4,1.1.6,2,.6s1.6-.2,2-.6c.4-.4.6-1.1.6-2.1,0-.6,0-1.2,0-1.9s0-1.4,0-2.2h1.7c0,.7,0,1.4,0,2.1,0,.7,0,1.3,0,1.8,0,1.5-.4,2.6-1,3.2s-1.7,1-3.2,1-2.6-.3-3.2-1-1-1.7-1-3.2c0-1.3,0-2.6,0-3.9,0-1.3,0-2.7,0-4.1s0-2.7,0-4.1,0-2.7,0-3.9c0-1.5.4-2.6,1.1-3.3s1.7-1,3.2-1,2.6.3,3.3,1,1,1.7,1,3.2c0,.5,0,1.1,0,1.8s0,1.4,0,2.1h-1.7Z"/>
        <path d="M-2047.3,1028.5c-1,0-1.8-.2-2.5-.5s-1.1-.8-1.4-1.4-.5-1.5-.5-2.5c0-1.3,0-2.5,0-3.9,0-1.3,0-2.6,0-4s0-2.7,0-4c0-1.3,0-2.6,0-3.9,0-1.1.2-1.9.5-2.5s.7-1.1,1.4-1.4,1.4-.5,2.5-.5,1.9.2,2.5.5,1.1.8,1.4,1.4c.3.6.4,1.5.5,2.5,0,1.3,0,2.5,0,3.9,0,1.3,0,2.6,0,4s0,2.7,0,4c0,1.3,0,2.6,0,3.9,0,1-.2,1.9-.5,2.5-.3.6-.7,1.1-1.4,1.4s-1.4.5-2.5.5ZM-2047.3,1027c.9,0,1.6-.2,2-.6.4-.4.6-1.1.7-2.1,0-1.6,0-3,0-4.3,0-1.3,0-2.6,0-3.8s0-2.5,0-3.8c0-1.3,0-2.7,0-4.3,0-1-.2-1.8-.6-2.1s-1-.6-2-.6-1.6.2-2,.6c-.4.4-.6,1.1-.6,2.1,0,1.5,0,3-.1,4.3,0,1.3,0,2.6,0,3.8s0,2.5,0,3.8c0,1.3,0,2.7.1,4.3,0,1,.3,1.7.7,2.1.4.4,1.1.6,2,.6Z"/>
        <path d="M-2038.6,1028.2v-24h1.7v2.1h.4c.3-.8.6-1.3,1.1-1.7.5-.3,1.1-.4,1.9-.4h1.1v1.5h-1.1c-1,0-1.8.2-2.3.6-.5.4-.9,1.1-1.1,2v19.9h-1.7Z"/>
        <path d="M-2029.9,1036.2v-32h1.7v2h.4c.3-.8.7-1.4,1.2-1.7.5-.4,1.1-.5,2-.5s2,.3,2.5,1c.5.6.8,1.7.9,3.2,0,1,0,2.1,0,3.5,0,1.3,0,2.8,0,4.2s0,2.9,0,4.4c0,1.4,0,2.8,0,4,0,1.5-.3,2.6-.9,3.2s-1.4,1-2.5,1-1.4-.2-1.9-.5c-.5-.4-.9-.9-1.2-1.7h-.4v10h-1.7ZM-2025.1,1027.1c.7,0,1.3-.2,1.6-.6.3-.4.5-1.1.5-2.1,0-1.7,0-3.2,0-4.6,0-1.4,0-2.8,0-4.1,0-1.3,0-2.6,0-3.8,0-1.2,0-2.5,0-3.8,0-1-.2-1.6-.5-2.1-.3-.4-.9-.6-1.6-.6s-1.5.2-2,.6c-.5.4-.9,1.1-1.2,2v16.4c.3.9.7,1.6,1.2,2,.5.4,1.1.6,2,.6Z"/>
        <path d="M-2012.9,1028.5c-1.5,0-2.6-.3-3.3-1s-1-1.7-1.1-3.2c0-1.3,0-2.6,0-3.9,0-1.3,0-2.7,0-4.1s0-2.7,0-4.1,0-2.7,0-3.9c0-1.5.4-2.6,1.1-3.3s1.8-1,3.3-1,2.5.3,3.1,1,1,1.7,1.1,3.2c0,.5,0,1.1,0,1.9,0,.8,0,1.8,0,2.9s0,2.3,0,3.7h-6.9c0,1.2,0,2.4,0,3.6,0,1.2,0,2.6,0,4.1,0,1,.2,1.7.6,2.1.4.4,1.1.6,2,.6s1.5-.2,1.9-.6.6-1.1.6-2.1c0-.5,0-1.2,0-1.8s0-1.4,0-2.2h1.7c0,.7,0,1.4,0,2.1,0,.7,0,1.3,0,1.8,0,1.5-.4,2.6-1,3.2-.6.6-1.7,1-3.2,1ZM-2015.7,1015.2h5.3c0-1,0-2,0-2.9,0-.9,0-1.8,0-2.5,0-.7,0-1.3,0-1.7,0-1-.2-1.6-.6-2.1-.4-.4-1-.6-1.9-.6s-1.6.2-2,.6-.6,1.1-.7,2.1c0,1.3,0,2.6,0,3.8,0,1.2,0,2.3,0,3.4Z"/>
        <path d="M-2004.7,1028.2v-24h1.7v2.1h.4c.3-.8.6-1.3,1.1-1.7.5-.3,1.1-.4,1.9-.4h1.1v1.5h-1.1c-1,0-1.8.2-2.3.6-.5.4-.9,1.1-1.1,2v19.9h-1.7Z"/>
        <path d="M-2563.3,1076.5c-1.5,0-2.5-.3-3.1-1s-.9-1.7-.9-3.2c0-.6,0-1.2,0-1.8s0-1.4,0-2.1h1.6c0,.8,0,1.5,0,2.2s0,1.3,0,1.9c0,1,.2,1.7.6,2.1s1,.6,1.9.6,1.6-.2,2-.6c.4-.4.6-1.1.6-2.1,0-.4,0-.8,0-1.2s0-.7,0-1.1,0-.7,0-1.1c0-1.2-.2-2-.4-2.6-.2-.6-.7-1-1.5-1.3l-1.6-.6c-.8-.3-1.5-.7-1.9-1.1-.5-.4-.8-1-.9-1.8-.2-.7-.3-1.7-.3-2.9,0-.5,0-.9,0-1.3,0-.4,0-.8,0-1.3,0-1.5.3-2.6.9-3.3s1.6-1,3.2-1,2.5.3,3.1,1c.6.7.9,1.7.9,3.2v1.8c0,.7,0,1.4,0,2.1h-1.6c0-.5,0-1,0-1.5v-1.4c0-.4,0-.8,0-1.2,0-1-.2-1.7-.5-2.1-.3-.4-1-.5-1.9-.5s-1.5.2-1.9.5c-.3.4-.5,1.1-.6,2.1,0,.5,0,1,0,1.3,0,.4,0,.8,0,1.3,0,1.1.1,2,.3,2.7s.7,1.2,1.5,1.5l1.6.5c1.1.4,1.9,1,2.5,1.8s.8,2,.8,3.7,0,1.1,0,1.6c0,.6,0,1.1,0,1.7,0,1.5-.4,2.6-1,3.2-.6.7-1.7,1-3.2,1Z"/>
        <path d="M-2551.9,1076.5c-1.1,0-2-.3-2.5-1s-.8-1.7-.8-3.2v-20h1.7v20.1c0,.9.2,1.6.5,2.1.3.4.9.6,1.6.6s1.4-.2,2-.7,1-1.1,1.2-2v-20.2h1.7v24h-1.7v-2h-.4c-.3.7-.8,1.3-1.3,1.7s-1.2.6-1.9.6Z"/>
        <path d="M-2538.5,1076.5c-1.5,0-2.5-.3-3.1-1s-.9-1.7-.9-3.2c0-.6,0-1.2,0-1.8s0-1.4,0-2.1h1.6c0,.8,0,1.5,0,2.2s0,1.3,0,1.9c0,1,.2,1.7.6,2.1s1,.6,1.9.6,1.6-.2,2-.6c.4-.4.6-1.1.6-2.1,0-.4,0-.8,0-1.2s0-.7,0-1.1,0-.7,0-1.1c0-1.2-.2-2-.4-2.6-.2-.6-.7-1-1.5-1.3l-1.6-.6c-.8-.3-1.5-.7-1.9-1.1-.5-.4-.8-1-.9-1.8-.2-.7-.3-1.7-.3-2.9,0-.5,0-.9,0-1.3,0-.4,0-.8,0-1.3,0-1.5.3-2.6.9-3.3s1.6-1,3.2-1,2.5.3,3.1,1c.6.7.9,1.7.9,3.2v1.8c0,.7,0,1.4,0,2.1h-1.6c0-.5,0-1,0-1.5v-1.4c0-.4,0-.8,0-1.2,0-1-.2-1.7-.5-2.1-.3-.4-1-.5-1.9-.5s-1.5.2-1.9.5c-.3.4-.5,1.1-.6,2.1,0,.5,0,1,0,1.3,0,.4,0,.8,0,1.3,0,1.1.1,2,.3,2.7s.7,1.2,1.5,1.5l1.6.5c1.1.4,1.9,1,2.5,1.8s.8,2,.8,3.7,0,1.1,0,1.6c0,.6,0,1.1,0,1.7,0,1.5-.4,2.6-1,3.2-.6.7-1.7,1-3.2,1Z"/>
        <path d="M-2523.9,1060.1c0-.5,0-1,0-1.5s0-.9,0-1.4c0-.4,0-.8,0-1.2,0-1-.2-1.7-.6-2.1-.4-.4-1.1-.5-2-.5s-1.6.2-2,.5c-.4.4-.6,1.1-.6,2.1,0,1.6,0,3,0,4.3,0,1.3,0,2.6,0,3.8s0,2.5,0,3.8c0,1.3,0,2.7,0,4.3,0,1,.2,1.7.6,2.1.4.4,1.1.6,2,.6s1.6-.2,2-.6c.4-.4.6-1.1.6-2.1,0-.6,0-1.2,0-1.9s0-1.4,0-2.2h1.7c0,.7,0,1.4,0,2.1,0,.7,0,1.3,0,1.8,0,1.5-.4,2.6-1,3.2s-1.7,1-3.2,1-2.6-.3-3.2-1-1-1.7-1-3.2c0-1.3,0-2.6,0-3.9,0-1.3,0-2.7,0-4.1s0-2.7,0-4.1,0-2.7,0-3.9c0-1.5.4-2.6,1.1-3.3s1.7-1,3.2-1,2.6.3,3.3,1,1,1.7,1,3.2c0,.5,0,1.1,0,1.8s0,1.4,0,2.1h-1.7Z"/>
        <path d="M-2519.2,1047.1v-2.8h3.7v2.8h-3.7ZM-2518.2,1076.2v-24h1.7v24h-1.7Z"/>
        <path d="M-2511.9,1084.2v-32h1.7v2h.4c.3-.8.7-1.4,1.2-1.7.5-.4,1.1-.5,2-.5s2,.3,2.5,1c.5.6.8,1.7.9,3.2,0,1,0,2.1,0,3.5,0,1.3,0,2.8,0,4.2s0,2.9,0,4.4c0,1.4,0,2.8,0,4,0,1.5-.3,2.6-.9,3.2s-1.4,1-2.5,1-1.4-.2-1.9-.5c-.5-.4-.9-.9-1.2-1.7h-.4v10h-1.7ZM-2507,1075.1c.7,0,1.3-.2,1.6-.6.3-.4.5-1.1.5-2.1,0-1.7,0-3.2,0-4.6,0-1.4,0-2.8,0-4.1,0-1.3,0-2.6,0-3.8,0-1.2,0-2.5,0-3.8,0-1-.2-1.6-.5-2.1-.3-.4-.9-.6-1.6-.6s-1.5.2-2,.6c-.5.4-.9,1.1-1.2,2v16.4c.3.9.7,1.6,1.2,2,.5.4,1.1.6,2,.6Z"/>
        <path d="M-2499.9,1047.1v-2.8h3.7v2.8h-3.7ZM-2498.9,1076.2v-24h1.7v24h-1.7Z"/>
        <path d="M-2488.5,1076.5c-1.5,0-2.5-.3-3.1-1-.5-.7-.8-1.7-.8-3.2v-18.6h-1.5v-1.4h1.5v-6.8h1.7v6.8h3.4v1.4h-3.5v18.7c0,1,.1,1.7.4,2.1s.9.6,1.8.6.7,0,.9,0c.2,0,.5,0,.8-.1v1.4c-.3,0-.5,0-.8.1-.3,0-.6,0-.9,0Z"/>
        <path d="M-2477.7,1076.2v-32h1.7v32h-1.7Z"/>
        <path d="M-2467.5,1076.5c-1,0-1.8-.2-2.5-.5s-1.1-.8-1.4-1.4-.5-1.5-.5-2.5c0-1.3,0-2.5,0-3.9,0-1.3,0-2.6,0-4s0-2.7,0-4c0-1.3,0-2.6,0-3.9,0-1.1.2-1.9.5-2.5s.7-1.1,1.4-1.4,1.4-.5,2.5-.5,1.9.2,2.5.5,1.1.8,1.4,1.4c.3.6.4,1.5.5,2.5,0,1.3,0,2.5,0,3.9,0,1.3,0,2.6,0,4s0,2.7,0,4c0,1.3,0,2.6,0,3.9,0,1-.2,1.9-.5,2.5-.3.6-.7,1.1-1.4,1.4s-1.4.5-2.5.5ZM-2467.5,1075c.9,0,1.6-.2,2-.6.4-.4.6-1.1.7-2.1,0-1.6,0-3,0-4.3,0-1.3,0-2.6,0-3.8s0-2.5,0-3.8c0-1.3,0-2.7,0-4.3,0-1-.2-1.8-.6-2.1s-1-.6-2-.6-1.6.2-2,.6c-.4.4-.6,1.1-.6,2.1,0,1.5,0,3-.1,4.3,0,1.3,0,2.6,0,3.8s0,2.5,0,3.8c0,1.3,0,2.7.1,4.3,0,1,.3,1.7.7,2.1.4.4,1.1.6,2,.6Z"/>
        <path d="M-2453.5,1076.5c-.8,0-1.5-.2-2-.5-.5-.4-.9-.9-1.3-1.7h-.4v2h-1.7v-32h1.7v10h.4c.3-.8.8-1.4,1.2-1.7.5-.4,1.1-.5,2-.5s2,.3,2.5,1c.5.6.8,1.7.8,3.2,0,1.4,0,2.8,0,4.2,0,1.4,0,2.7,0,4.1s0,2.6,0,3.9c0,1.3,0,2.6,0,3.9,0,1.5-.3,2.6-.9,3.2s-1.4,1-2.5,1ZM-2453.9,1075.1c.7,0,1.3-.2,1.6-.6.3-.4.5-1.1.5-2.1,0-1.3,0-2.6,0-3.9,0-1.3,0-2.6,0-3.9s0-2.7,0-4.1c0-1.4,0-2.9,0-4.4,0-1-.2-1.6-.5-2.1-.3-.4-.9-.6-1.6-.6s-1.5.2-2,.6c-.5.4-.9,1.1-1.2,2v16.4c.3.9.7,1.6,1.2,2,.5.4,1.2.6,2,.6Z"/>
        <path d="M-2441.8,1076.5c-1,0-1.8-.2-2.5-.5s-1.1-.8-1.4-1.4-.5-1.5-.5-2.5c0-1.3,0-2.5,0-3.9,0-1.3,0-2.6,0-4s0-2.7,0-4c0-1.3,0-2.6,0-3.9,0-1.1.2-1.9.5-2.5s.7-1.1,1.4-1.4,1.4-.5,2.5-.5,1.9.2,2.5.5,1.1.8,1.4,1.4c.3.6.4,1.5.5,2.5,0,1.3,0,2.5,0,3.9,0,1.3,0,2.6,0,4s0,2.7,0,4c0,1.3,0,2.6,0,3.9,0,1-.2,1.9-.5,2.5-.3.6-.7,1.1-1.4,1.4s-1.4.5-2.5.5ZM-2441.8,1075c.9,0,1.6-.2,2-.6.4-.4.6-1.1.7-2.1,0-1.6,0-3,0-4.3,0-1.3,0-2.6,0-3.8s0-2.5,0-3.8c0-1.3,0-2.7,0-4.3,0-1-.2-1.8-.6-2.1s-1-.6-2-.6-1.6.2-2,.6c-.4.4-.6,1.1-.6,2.1,0,1.5,0,3-.1,4.3,0,1.3,0,2.6,0,3.8s0,2.5,0,3.8c0,1.3,0,2.7.1,4.3,0,1,.3,1.7.7,2.1.4.4,1.1.6,2,.6Z"/>
        <path d="M-2433.2,1076.2v-24h1.7v2.1h.4c.3-.8.6-1.3,1.1-1.7.5-.3,1.1-.4,1.9-.4h1.1v1.5h-1.1c-1,0-1.8.2-2.3.6-.5.4-.9,1.1-1.1,2v19.9h-1.7Z"/>
        <path d="M-2420.4,1076.5c-1.5,0-2.5-.3-3.1-1-.5-.7-.8-1.7-.8-3.2v-18.6h-1.5v-1.4h1.5v-6.8h1.7v6.8h3.4v1.4h-3.5v18.7c0,1,.1,1.7.4,2.1s.9.6,1.8.6.7,0,.9,0c.2,0,.5,0,.8-.1v1.4c-.3,0-.5,0-.8.1-.3,0-.6,0-.9,0Z"/>
        <path d="M-2417.1,1047.1v-2.8h3.7v2.8h-3.7ZM-2416.1,1076.2v-24h1.7v24h-1.7Z"/>
        <path d="M-2406.4,1076.5c-1.5,0-2.5-.3-3.1-1s-.9-1.7-.9-3.2c0-.6,0-1.2,0-1.8s0-1.4,0-2.1h1.6c0,.8,0,1.5,0,2.2s0,1.3,0,1.9c0,1,.2,1.7.6,2.1s1,.6,1.9.6,1.6-.2,2-.6c.4-.4.6-1.1.6-2.1,0-.4,0-.8,0-1.2s0-.7,0-1.1,0-.7,0-1.1c0-1.2-.2-2-.4-2.6-.2-.6-.7-1-1.5-1.3l-1.6-.6c-.8-.3-1.5-.7-1.9-1.1-.5-.4-.8-1-.9-1.8-.2-.7-.3-1.7-.3-2.9,0-.5,0-.9,0-1.3,0-.4,0-.8,0-1.3,0-1.5.3-2.6.9-3.3s1.6-1,3.2-1,2.5.3,3.1,1c.6.7.9,1.7.9,3.2v1.8c0,.7,0,1.4,0,2.1h-1.6c0-.5,0-1,0-1.5v-1.4c0-.4,0-.8,0-1.2,0-1-.2-1.7-.5-2.1-.3-.4-1-.5-1.9-.5s-1.5.2-1.9.5c-.3.4-.5,1.1-.6,2.1,0,.5,0,1,0,1.3,0,.4,0,.8,0,1.3,0,1.1.1,2,.3,2.7s.7,1.2,1.5,1.5l1.6.5c1.1.4,1.9,1,2.5,1.8s.8,2,.8,3.7,0,1.1,0,1.6c0,.6,0,1.1,0,1.7,0,1.5-.4,2.6-1,3.2-.6.7-1.7,1-3.2,1Z"/>
        <path d="M-2390.1,1076.2v-24h1.7v2h.4c.3-.7.7-1.3,1.3-1.7.5-.4,1.2-.6,1.9-.6,1.1,0,2,.3,2.5,1,.5.6.8,1.7.8,3.2v20.1h-1.7v-20.1c0-1-.2-1.7-.5-2.1-.3-.4-.9-.6-1.6-.6s-1.4.2-2,.7c-.6.5-1,1.1-1.2,2v20.2h-1.7Z"/>
        <path d="M-2377.9,1047.1v-2.8h3.7v2.8h-3.7ZM-2376.9,1076.2v-24h1.7v24h-1.7Z"/>
        <path d="M-2367.2,1076.5c-1.5,0-2.5-.3-3.1-1s-.9-1.7-.9-3.2c0-.6,0-1.2,0-1.8s0-1.4,0-2.1h1.6c0,.8,0,1.5,0,2.2s0,1.3,0,1.9c0,1,.2,1.7.6,2.1s1,.6,1.9.6,1.6-.2,2-.6c.4-.4.6-1.1.6-2.1,0-.4,0-.8,0-1.2s0-.7,0-1.1,0-.7,0-1.1c0-1.2-.2-2-.4-2.6-.2-.6-.7-1-1.5-1.3l-1.6-.6c-.8-.3-1.5-.7-1.9-1.1-.5-.4-.8-1-.9-1.8-.2-.7-.3-1.7-.3-2.9,0-.5,0-.9,0-1.3,0-.4,0-.8,0-1.3,0-1.5.3-2.6.9-3.3s1.6-1,3.2-1,2.5.3,3.1,1c.6.7.9,1.7.9,3.2v1.8c0,.7,0,1.4,0,2.1h-1.6c0-.5,0-1,0-1.5v-1.4c0-.4,0-.8,0-1.2,0-1-.2-1.7-.5-2.1-.3-.4-1-.5-1.9-.5s-1.5.2-1.9.5c-.3.4-.5,1.1-.6,2.1,0,.5,0,1,0,1.3,0,.4,0,.8,0,1.3,0,1.1.1,2,.3,2.7s.7,1.2,1.5,1.5l1.6.5c1.1.4,1.9,1,2.5,1.8s.8,2,.8,3.7,0,1.1,0,1.6c0,.6,0,1.1,0,1.7,0,1.5-.4,2.6-1,3.2-.6.7-1.7,1-3.2,1Z"/>
        <path d="M-2359,1076.2v-32h1.7v32h-1.7Z"/>
        <path d="M-2341.3,1076.5c-1.1,0-2-.3-2.5-1s-.8-1.7-.8-3.2v-20h1.7v20.1c0,.9.2,1.6.5,2.1.3.4.9.6,1.6.6s1.4-.2,2-.7,1-1.1,1.2-2v-20.2h1.7v24h-1.7v-2h-.4c-.3.7-.8,1.3-1.3,1.7s-1.2.6-1.9.6Z"/>
        <path d="M-2327.3,1076.5c-1.5,0-2.5-.3-3.1-1-.5-.7-.8-1.7-.8-3.2v-18.6h-1.5v-1.4h1.5v-6.8h1.7v6.8h3.4v1.4h-3.5v18.7c0,1,.1,1.7.4,2.1s.9.6,1.8.6.7,0,.9,0c.2,0,.5,0,.8-.1v1.4c-.3,0-.5,0-.8.1-.3,0-.6,0-.9,0Z"/>
        <path d="M-2313.6,1076.5c-1.2,0-2-.4-2.6-1.1-.6-.7-.9-1.7-1-3.1,0-.4,0-.7,0-1.1,0-.3,0-.7,0-1,0-.9.2-1.7.4-2.5s.5-1.5,1-2.1c.5-.6,1.2-1.3,2-1.8.5-.4,1.1-.7,1.7-1.1.6-.3,1.2-.7,1.8-1v-5.7c0-.9-.2-1.6-.5-2s-1-.6-1.9-.6-1.4.2-1.8.5c-.4.4-.6,1.1-.7,2.1,0,.3,0,.8,0,1.2,0,.5,0,.9,0,1.4,0,.5,0,1,0,1.4h-1.6c0-.6,0-1.3,0-2,0-.7,0-1.3,0-1.9,0-1,.2-1.8.5-2.4s.8-1.1,1.4-1.3c.6-.3,1.4-.4,2.4-.4s1.8.1,2.4.5c.6.3,1,.8,1.3,1.4.3.6.4,1.5.4,2.5v19.9h-1.7v-2h-.3c-.2.7-.6,1.2-1,1.6-.4.4-1.1.6-1.9.6ZM-2313.2,1075.1c.7,0,1.3-.2,1.8-.6.5-.4.8-1.1,1.1-1.9v-9.1c-.4.2-.9.5-1.4.8s-1.1.7-1.8,1.2c-.8.6-1.3,1.3-1.6,2.1-.3.8-.4,1.7-.5,2.7,0,.2,0,.5,0,.9s0,.7,0,1.1c0,.9.3,1.6.7,2.1.4.5.9.7,1.6.7Z"/>
        <path d="M-2304.1,1076.2v-32h1.7v32h-1.7Z"/>
        <path d="M-2298.8,1047.1v-2.8h3.7v2.8h-3.7ZM-2297.8,1076.2v-24h1.7v24h-1.7Z"/>
        <path d="M-2284.8,1084.2v-10h-.4c-.3.8-.8,1.4-1.2,1.7-.5.4-1.1.5-1.9.5-1.1,0-2-.3-2.5-1-.6-.7-.9-1.7-.9-3.2,0-1,0-2.1,0-3.4,0-1.3,0-2.7,0-4.2s0-3,0-4.4,0-2.8,0-4c0-1.5.3-2.6.9-3.2.5-.6,1.4-1,2.5-1s1.5.2,2,.5.9.9,1.2,1.7h.4v-2h1.7v32h-1.7ZM-2288,1075.1c.8,0,1.5-.2,2-.6.5-.4.9-1.1,1.2-2v-16.4c-.3-.9-.7-1.6-1.2-2-.5-.4-1.2-.6-2-.6s-1.3.2-1.6.6c-.3.4-.5,1.1-.5,2.1,0,2.1,0,4.1,0,5.9,0,1.8,0,3.5,0,5.2,0,1.7,0,3.4.1,5.1,0,.9.2,1.6.6,2.1.3.4.9.6,1.6.6Z"/>
        <path d="M-2275.3,1076.5c-1.1,0-2-.3-2.5-1s-.8-1.7-.8-3.2v-20h1.7v20.1c0,.9.2,1.6.5,2.1.3.4.9.6,1.6.6s1.4-.2,2-.7,1-1.1,1.2-2v-20.2h1.7v24h-1.7v-2h-.4c-.3.7-.8,1.3-1.3,1.7s-1.2.6-1.9.6Z"/>
        <path d="M-2266.3,1047.1v-2.8h3.7v2.8h-3.7ZM-2265.3,1076.2v-24h1.7v24h-1.7Z"/>
        <path d="M-2259,1084.2v-32h1.7v2h.4c.3-.8.7-1.4,1.2-1.7.5-.4,1.1-.5,2-.5s2,.3,2.5,1c.5.6.8,1.7.9,3.2,0,1,0,2.1,0,3.5,0,1.3,0,2.8,0,4.2s0,2.9,0,4.4c0,1.4,0,2.8,0,4,0,1.5-.3,2.6-.9,3.2s-1.4,1-2.5,1-1.4-.2-1.9-.5c-.5-.4-.9-.9-1.2-1.7h-.4v10h-1.7ZM-2254.2,1075.1c.7,0,1.3-.2,1.6-.6.3-.4.5-1.1.5-2.1,0-1.7,0-3.2,0-4.6,0-1.4,0-2.8,0-4.1,0-1.3,0-2.6,0-3.8,0-1.2,0-2.5,0-3.8,0-1-.2-1.6-.5-2.1-.3-.4-.9-.6-1.6-.6s-1.5.2-2,.6c-.5.4-.9,1.1-1.2,2v16.4c.3.9.7,1.6,1.2,2,.5.4,1.1.6,2,.6Z"/>
      </g>
      <rect x="-1295.2" y="-172" width="608.9" height="609"/>
      <path class="cls-2" d="M-1199.1,0c-4.5,0-8.2,3.7-8.2,8.2v2.3h-26.4c-10.3,0-18.7,8.4-18.7,18.7s8.4,18.7,18.7,18.7h26.4v2.9c0,4.5,3.7,8.2,8.2,8.2s8.2-3.7,8.2-8.2V8.2c0-4.5-3.7-8.2-8.2-8.2Z"/>
      <path class="cls-2" d="M-1155.4,11.4c-.3-.3,0-.9.4-.9h122c7.6,0,14.2,4.6,17.1,11.2.6-.1,1.3-.2,2-.2,3.9.2,7.1,3.5,7.2,7.4,0,4.3-3.3,7.8-7.6,7.8s-1,0-1.5-.2c-2.9,6.6-9.5,11.2-17.1,11.2h-117c-5.5,0-10-4.5-9.9-10,0-2,.4-4,1.1-6,1.2-3.5,3.6-6.6,4.7-10.2,1-3.1.9-7.9-1.3-10.2Z"/>
      <circle cx="-1132.1" cy="32.3" r="4.1"/>
      <circle cx="-1141.3" cy="35.2" r="1.9"/>
      <path class="cls-2" d="M-1007.6,41.9l-4.3,8.4c0,2.4,1.9,4.3,4.3,4.3s4.3-1.9,4.3-4.3l-4.3-8.4Z"/>
      <g>
        <path class="cls-2" d="M-1251.8,209.2V69.3h21.8v139.8h-21.8Z"/>
        <path class="cls-2" d="M-1214.7,209.2V69.3h32.6l9.6,44.5,10.3,76.1h4.4l-4.1-63.8-1.7-56.8h21.1v139.8h-34l-10-47.1-8-73.6h-4.6l3.7,67.5,1.8,53.2h-21.1Z"/>
        <path class="cls-2" d="M-1127.1,209.2V69.3h23.3l-.3,33.6-3.8,32.7h4.2l9.2-33.6,11.7-32.7h23.9l-22.5,59,23.9,80.8h-22.2l-16.2-56.4-8.8,20.4v36h-22.4Z"/>
        <path class="cls-2" d="M-1017.8,210.7c-11.4,0-19.5-2.4-24.4-7.3-4.9-4.9-7.5-12.9-8-24.2-.1-2.4-.2-4.9-.2-7.3s0-4.9.1-7.3c0-2.4.3-4.9.6-7.3h20.5c-.2,4.5-.4,9-.4,13.4,0,4.5.1,8.6.4,12.5.3,3.1,1.3,5.5,3.1,7.2,1.8,1.6,4.5,2.4,8.1,2.4s6.2-.8,7.9-2.4,2.6-4,2.9-7.2c.2-2.3.4-4.6.5-6.7,0-2.2,0-4.3,0-6.5,0-2.2-.2-4.5-.5-7-.2-3-.9-5.6-2.1-7.9-1.3-2.3-3.3-3.8-6.2-4.5l-12.8-3.3c-5.6-1.4-10-3.5-13.2-6.2-3.2-2.8-5.5-6.2-6.9-10.4-1.4-4.1-2.2-9.1-2.4-14.8,0-2.9,0-5.7,0-8.4,0-2.8,0-5.5,0-8.3.3-7.5,1.6-13.5,3.8-18.1,2.2-4.6,5.6-8,10.4-10,4.7-2.1,11-3.1,18.7-3.1,11.1,0,19.1,2.4,24,7.3,4.9,4.8,7.6,12.8,8.1,24,.1,2.7.1,6.1,0,10,0,3.9-.2,7.8-.3,11.5h-21c.2-4.2.3-8.4.3-12.7,0-4.3,0-8.5-.2-12.7,0-3.2-1-5.6-2.9-7.2-1.9-1.6-4.6-2.4-8-2.4s-6.3.8-8,2.4c-1.7,1.6-2.7,4-3,7.2-.3,3.4-.4,6.8-.4,10.3s.1,6.9.4,10.3c.2,3.2,1,5.9,2.3,8,1.3,2.1,3.5,3.6,6.6,4.3l11.2,2.7c6,1.4,10.7,3.5,14,6.4,3.4,2.9,5.7,6.4,7.2,10.7,1.4,4.3,2.2,9.3,2.4,15,0,2,.1,3.9.1,5.7,0,1.8,0,3.6,0,5.3,0,1.7-.1,3.5-.2,5.4-.5,11.2-3.1,19.3-8,24.2-4.9,4.9-13.1,7.3-24.5,7.3Z"/>
        <path class="cls-2" d="M-972.4,209.2V69.3h30.1c11.5,0,19.9,2.4,25,7.1,5.1,4.7,7.8,12.6,8.2,23.5.2,5.8.3,11.1.3,15.9s-.1,9.9-.3,15.2c-.3,11-3.1,18.8-8.2,23.6-5.1,4.7-13.5,7.1-25,7.1h-8.1v47.5h-21.8ZM-950.6,142.4h8.1c3.8,0,6.6-.9,8.4-2.6,1.8-1.7,2.8-4.3,3-7.6.2-3.4.3-7,.3-10.9,0-3.9,0-7.7,0-11.6,0-3.8-.2-7.5-.3-10.9-.2-3.3-1.2-5.9-3-7.6-1.8-1.7-4.6-2.6-8.4-2.6h-8.2v53.8Z"/>
        <path class="cls-2" d="M-897.3,209.2V69.3h21.8v139.8h-21.8Z"/>
        <path class="cls-2" d="M-860.1,209.2V69.3h30.1c11.5,0,19.9,2.4,25,7.1,5.1,4.7,7.8,12.6,8.2,23.5.2,3.9.3,7.4.3,10.5,0,3.1,0,6.1,0,9.2,0,3-.1,6.3-.3,9.9-.2,7-1.3,12.7-3.5,17.1-2.2,4.4-5.5,7.7-10,9.8l15.7,52.8h-23.2l-13.2-49h-7.3v49h-21.8ZM-838.3,140.8h8.1c3.8,0,6.6-.9,8.4-2.6,1.8-1.7,2.8-4.3,3-7.6.2-3.4.3-6.9.3-10.5,0-3.6,0-7.2,0-10.8,0-3.6-.2-7.1-.3-10.5-.2-3.3-1.2-5.9-3-7.6-1.8-1.7-4.6-2.6-8.4-2.6h-8.2v52.3Z"/>
        <path class="cls-2" d="M-783.6,209.2V69.3h54.3v19.2h-32.4v40.1h30.7v19.2h-30.7v42h32.4v19.2h-54.3Z"/>
      </g>
      <rect class="cls-2" x="-666.1" y="-172" width="608.8" height="609"/>
      <path d="M-570,0c-4.5,0-8.2,3.7-8.2,8.2v2.3h-26.4c-10.3,0-18.7,8.4-18.7,18.7s8.4,18.7,18.7,18.7h26.4v2.9c0,4.5,3.7,8.2,8.2,8.2s8.2-3.7,8.2-8.2V8.2c0-4.5-3.7-8.2-8.2-8.2Z"/>
      <path d="M-526.3,11.4c-.3-.3,0-.9.4-.9h122c7.6,0,14.2,4.6,17.1,11.2.6-.1,1.3-.2,2-.2,3.9.2,7.1,3.5,7.2,7.4,0,4.3-3.3,7.8-7.6,7.8s-1,0-1.5-.2c-2.9,6.6-9.5,11.2-17.1,11.2h-117c-5.5,0-10-4.5-9.9-10,0-2,.4-4,1.1-6,1.2-3.5,3.6-6.6,4.7-10.2,1-3.1.9-7.9-1.3-10.2Z"/>
      <circle class="cls-2" cx="-503" cy="32.3" r="4.1"/>
      <circle class="cls-2" cx="-512.3" cy="35.2" r="1.9"/>
      <path d="M-378.5,41.9l-4.3,8.4c0,2.4,1.9,4.3,4.3,4.3s4.3-1.9,4.3-4.3l-4.3-8.4Z"/>
      <g>
        <path d="M-622.8,209.2V69.3h21.8v139.8h-21.8Z"/>
        <path d="M-585.6,209.2V69.3h32.6l9.6,44.5,10.3,76.1h4.4l-4.1-63.8-1.7-56.8h21.1v139.8h-34l-10-47.1-8-73.6h-4.6l3.7,67.5,1.8,53.2h-21.1Z"/>
        <path d="M-498.1,209.2V69.3h23.3l-.3,33.6-3.8,32.7h4.2l9.2-33.6,11.7-32.7h23.9l-22.5,59,23.9,80.8h-22.2l-16.2-56.4-8.8,20.4v36h-22.4Z"/>
        <path d="M-388.7,210.7c-11.4,0-19.5-2.4-24.4-7.3-4.9-4.9-7.5-12.9-8-24.2-.1-2.4-.2-4.9-.2-7.3s0-4.9.1-7.3c0-2.4.3-4.9.6-7.3h20.5c-.2,4.5-.4,9-.4,13.4,0,4.5.1,8.6.4,12.5.3,3.1,1.3,5.5,3.1,7.2,1.8,1.6,4.5,2.4,8.1,2.4s6.2-.8,7.9-2.4,2.6-4,2.9-7.2c.2-2.3.4-4.6.5-6.7,0-2.2,0-4.3,0-6.5,0-2.2-.2-4.5-.5-7-.2-3-.9-5.6-2.1-7.9-1.3-2.3-3.3-3.8-6.2-4.5l-12.8-3.3c-5.6-1.4-10-3.5-13.2-6.2-3.2-2.8-5.5-6.2-6.9-10.4-1.4-4.1-2.2-9.1-2.4-14.8,0-2.9,0-5.7,0-8.4,0-2.8,0-5.5,0-8.3.3-7.5,1.6-13.5,3.8-18.1,2.2-4.6,5.6-8,10.4-10,4.7-2.1,11-3.1,18.7-3.1,11.1,0,19.1,2.4,24,7.3,4.9,4.8,7.6,12.8,8.1,24,.1,2.7.1,6.1,0,10,0,3.9-.2,7.8-.3,11.5h-21c.2-4.2.3-8.4.3-12.7,0-4.3,0-8.5-.2-12.7,0-3.2-1-5.6-2.9-7.2-1.9-1.6-4.6-2.4-8-2.4s-6.3.8-8,2.4c-1.7,1.6-2.7,4-3,7.2-.3,3.4-.4,6.8-.4,10.3s.1,6.9.4,10.3c.2,3.2,1,5.9,2.3,8,1.3,2.1,3.5,3.6,6.6,4.3l11.2,2.7c6,1.4,10.7,3.5,14,6.4,3.4,2.9,5.7,6.4,7.2,10.7,1.4,4.3,2.2,9.3,2.4,15,0,2,.1,3.9.1,5.7,0,1.8,0,3.6,0,5.3,0,1.7-.1,3.5-.2,5.4-.5,11.2-3.1,19.3-8,24.2-4.9,4.9-13.1,7.3-24.5,7.3Z"/>
        <path d="M-343.4,209.2V69.3h30.1c11.5,0,19.9,2.4,25,7.1,5.1,4.7,7.8,12.6,8.2,23.5.2,5.8.3,11.1.3,15.9s-.1,9.9-.3,15.2c-.3,11-3.1,18.8-8.2,23.6-5.1,4.7-13.5,7.1-25,7.1h-8.1v47.5h-21.8ZM-321.5,142.4h8.1c3.8,0,6.6-.9,8.4-2.6,1.8-1.7,2.8-4.3,3-7.6.2-3.4.3-7,.3-10.9,0-3.9,0-7.7,0-11.6,0-3.8-.2-7.5-.3-10.9-.2-3.3-1.2-5.9-3-7.6-1.8-1.7-4.6-2.6-8.4-2.6h-8.2v53.8Z"/>
        <path d="M-268.2,209.2V69.3h21.8v139.8h-21.8Z"/>
        <path d="M-231.1,209.2V69.3h30.1c11.5,0,19.9,2.4,25,7.1,5.1,4.7,7.8,12.6,8.2,23.5.2,3.9.3,7.4.3,10.5,0,3.1,0,6.1,0,9.2,0,3-.1,6.3-.3,9.9-.2,7-1.3,12.7-3.5,17.1-2.2,4.4-5.5,7.7-10,9.8l15.7,52.8h-23.2l-13.2-49h-7.3v49h-21.8ZM-209.2,140.8h8.1c3.8,0,6.6-.9,8.4-2.6,1.8-1.7,2.8-4.3,3-7.6.2-3.4.3-6.9.3-10.5,0-3.6,0-7.2,0-10.8,0-3.6-.2-7.1-.3-10.5-.2-3.3-1.2-5.9-3-7.6-1.8-1.7-4.6-2.6-8.4-2.6h-8.2v52.3Z"/>
        <path d="M-154.5,209.2V69.3h54.3v19.2h-32.4v40.1h30.7v19.2h-30.7v42h32.4v19.2h-54.3Z"/>
      </g>
      <path class="cls-4" d="M292.6,43.9l-4.3,8.4c0,2.4,1.9,4.3,4.3,4.3s4.3-1.9,4.3-4.3l-4.3-8.4Z"/>
      <g>
        <path class="cls-2" d="M6.3,209.2V69.3h21.8v139.8H6.3Z"/>
        <path class="cls-2" d="M43.4,209.2V69.3h32.6l9.6,44.5,10.3,76.1h4.4l-4.1-63.8-1.7-56.8h21.1v139.8h-34l-10-47.1-8-73.6h-4.6l3.7,67.5,1.8,53.2h-21.1Z"/>
        <path class="cls-2" d="M131,209.2V69.3h23.3l-.3,33.6-3.8,32.7h4.2l9.2-33.6,11.7-32.7h23.9l-22.5,59,23.9,80.8h-22.2l-16.2-56.4-8.8,20.4v36h-22.4Z"/>
        <path class="cls-2" d="M240.3,210.7c-11.4,0-19.5-2.4-24.4-7.3-4.9-4.9-7.5-12.9-8-24.2-.1-2.4-.2-4.9-.2-7.3s0-4.9.1-7.3c0-2.4.3-4.9.6-7.3h20.5c-.2,4.5-.4,9-.4,13.4,0,4.5.1,8.6.4,12.5.3,3.1,1.3,5.5,3.1,7.2,1.8,1.6,4.5,2.4,8.1,2.4s6.2-.8,7.9-2.4,2.6-4,2.9-7.2c.2-2.3.4-4.6.5-6.7,0-2.2,0-4.3,0-6.5,0-2.2-.2-4.5-.5-7-.2-3-.9-5.6-2.1-7.9-1.3-2.3-3.3-3.8-6.2-4.5l-12.8-3.3c-5.6-1.4-10-3.5-13.2-6.2-3.2-2.8-5.5-6.2-6.9-10.4-1.4-4.1-2.2-9.1-2.4-14.8,0-2.9,0-5.7,0-8.4,0-2.8,0-5.5,0-8.3.3-7.5,1.6-13.5,3.8-18.1,2.2-4.6,5.6-8,10.4-10,4.7-2.1,11-3.1,18.7-3.1,11.1,0,19.1,2.4,24,7.3,4.9,4.8,7.6,12.8,8.1,24,.1,2.7.1,6.1,0,10,0,3.9-.2,7.8-.3,11.5h-21c.2-4.2.3-8.4.3-12.7,0-4.3,0-8.5-.2-12.7,0-3.2-1-5.6-2.9-7.2-1.9-1.6-4.6-2.4-8-2.4s-6.3.8-8,2.4c-1.7,1.6-2.7,4-3,7.2-.3,3.4-.4,6.8-.4,10.3s.1,6.9.4,10.3c.2,3.2,1,5.9,2.3,8,1.3,2.1,3.5,3.6,6.6,4.3l11.2,2.7c6,1.4,10.7,3.5,14,6.4,3.4,2.9,5.7,6.4,7.2,10.7,1.4,4.3,2.2,9.3,2.4,15,0,2,.1,3.9.1,5.7,0,1.8,0,3.6,0,5.3,0,1.7-.1,3.5-.2,5.4-.5,11.2-3.1,19.3-8,24.2-4.9,4.9-13.1,7.3-24.5,7.3Z"/>
        <path class="cls-2" d="M285.7,209.2V69.3h30.1c11.5,0,19.9,2.4,25,7.1,5.1,4.7,7.8,12.6,8.2,23.5.2,5.8.3,11.1.3,15.9s-.1,9.9-.3,15.2c-.3,11-3.1,18.8-8.2,23.6-5.1,4.7-13.5,7.1-25,7.1h-8.1v47.5h-21.8ZM307.5,142.4h8.1c3.8,0,6.6-.9,8.4-2.6,1.8-1.7,2.8-4.3,3-7.6.2-3.4.3-7,.3-10.9,0-3.9,0-7.7,0-11.6,0-3.8-.2-7.5-.3-10.9-.2-3.3-1.2-5.9-3-7.6-1.8-1.7-4.6-2.6-8.4-2.6h-8.2v53.8Z"/>
        <path class="cls-2" d="M360.8,209.2V69.3h21.8v139.8h-21.8Z"/>
        <path class="cls-2" d="M398,209.2V69.3h30.1c11.5,0,19.9,2.4,25,7.1,5.1,4.7,7.8,12.6,8.2,23.5.2,3.9.3,7.4.3,10.5,0,3.1,0,6.1,0,9.2,0,3-.1,6.3-.3,9.9-.2,7-1.3,12.7-3.5,17.1-2.2,4.4-5.5,7.7-10,9.8l15.7,52.8h-23.2l-13.2-49h-7.3v49h-21.8ZM419.8,140.8h8.1c3.8,0,6.6-.9,8.4-2.6,1.8-1.7,2.8-4.3,3-7.6.2-3.4.3-6.9.3-10.5,0-3.6,0-7.2,0-10.8,0-3.6-.2-7.1-.3-10.5-.2-3.3-1.2-5.9-3-7.6-1.8-1.7-4.6-2.6-8.4-2.6h-8.2v52.3Z"/>
        <path class="cls-2" d="M474.5,209.2V69.3h54.3v19.2h-32.4v40.1h30.7v19.2h-30.7v42h32.4v19.2h-54.3Z"/>
      </g>
      <path class="cls-2" d="M112.3,13.3H15.3v-4c0-2.5-2-4.4-4.5-4.4s-4.5,2-4.5,4.4v44.5c0,2.5,2,4.4,4.5,4.4s4.5-2,4.5-4.4v-4h97V13.3Z"/>
      <path class="cls-4" d="M292.7,31.6l-54.3-7.3h0c-2.8-6.5-9.3-11-16.8-11h-120c-.5,0-.7.5-.4.9,2.2,2.3,2.3,7,1.3,10.1-1.1,3.5-3.4,6.6-4.6,10-.7,1.9-1,3.9-1.1,5.9,0,5.4,4.3,9.8,9.8,9.8h115.1c7.5,0,14-4.6,16.8-11.1h0s54.3-7.3,54.3-7.3ZM115,37.6c-1,0-1.9-.8-1.9-1.9s.8-1.9,1.9-1.9,1.9.8,1.9,1.9-.8,1.9-1.9,1.9ZM124.1,37c-2.3,0-4.1-1.8-4.1-4.1s1.8-4.1,4.1-4.1,4.1,1.8,4.1,4.1-1.8,4.1-4.1,4.1Z"/>
    </g>
  </g>
</svg>